<?xml version="1.0" encoding="UTF-8" standalone="no"?>
<!-- Created with Inkscape (http://www.inkscape.org/) -->

<svg
   width="18.411755mm"
   height="7.6447783mm"
   viewBox="0 0 18.411755 7.6447783"
   version="1.1"
   id="svg5"
   xmlns:xlink="http://www.w3.org/1999/xlink"
   xmlns="http://www.w3.org/2000/svg"
   xmlns:svg="http://www.w3.org/2000/svg">
  <defs
     id="defs2">
    <linearGradient
       id="linearGradient34826">
      <stop
         style="stop-color:#cc1b1c;stop-opacity:1"
         offset="0"
         id="stop36068" />
      <stop
         style="stop-color:#ebeb39;stop-opacity:1"
         offset="0.50173551"
         id="stop51467" />
      <stop
         style="stop-color:#cc1b1c;stop-opacity:1"
         offset="1"
         id="stop36070" />
    </linearGradient>
    <linearGradient
       xlink:href="#linearGradient34826"
       id="linearGradient81462"
       gradientUnits="userSpaceOnUse"
       gradientTransform="matrix(1.2863194,0,0,1,-40.908166,0.55902372)"
       x1="182.0554"
       y1="328.33328"
       x2="182.0554"
       y2="353.76886" />
    <linearGradient
       xlink:href="#linearGradient34826"
       id="linearGradient81464"
       gradientUnits="userSpaceOnUse"
       gradientTransform="matrix(1.2863194,0,0,1,-40.908166,0.55902372)"
       x1="182.0554"
       y1="328.33328"
       x2="182.0554"
       y2="353.76886" />
    <linearGradient
       xlink:href="#linearGradient34826"
       id="linearGradient81466"
       gradientUnits="userSpaceOnUse"
       gradientTransform="matrix(1.2863194,0,0,1,-40.908166,0.55902372)"
       x1="182.0554"
       y1="328.33328"
       x2="182.0554"
       y2="353.76886" />
    <linearGradient
       xlink:href="#linearGradient34826"
       id="linearGradient81494"
       gradientUnits="userSpaceOnUse"
       gradientTransform="matrix(1.2863194,0,0,1,-40.908166,0.55902372)"
       x1="182.0554"
       y1="328.33328"
       x2="182.0554"
       y2="353.76886" />
    <linearGradient
       xlink:href="#linearGradient34826"
       id="linearGradient81496"
       gradientUnits="userSpaceOnUse"
       gradientTransform="matrix(1.2863194,0,0,1,-40.908166,0.55902372)"
       x1="182.0554"
       y1="328.33328"
       x2="182.0554"
       y2="353.76886" />
    <linearGradient
       xlink:href="#linearGradient34826"
       id="linearGradient81498"
       gradientUnits="userSpaceOnUse"
       gradientTransform="matrix(1.2863194,0,0,1,-40.908167,0.55902349)"
       x1="182.0554"
       y1="328.33328"
       x2="182.0554"
       y2="353.76886" />
    <linearGradient
       xlink:href="#linearGradient34826"
       id="linearGradient81500"
       gradientUnits="userSpaceOnUse"
       gradientTransform="matrix(1.2863194,0,0,1,-40.908166,0.55902372)"
       x1="182.0554"
       y1="328.33328"
       x2="182.0554"
       y2="353.76886" />
    <linearGradient
       xlink:href="#linearGradient34826"
       id="linearGradient81502"
       gradientUnits="userSpaceOnUse"
       gradientTransform="matrix(1.2863194,0,0,1,-40.908166,0.55902372)"
       x1="182.0554"
       y1="328.33328"
       x2="182.0554"
       y2="353.76886" />
    <linearGradient
       xlink:href="#linearGradient34826"
       id="linearGradient81504"
       gradientUnits="userSpaceOnUse"
       gradientTransform="matrix(1.2863194,0,0,1,-40.908166,0.55902372)"
       x1="182.0554"
       y1="328.33328"
       x2="182.0554"
       y2="353.76886" />
    <linearGradient
       xlink:href="#linearGradient34826"
       id="linearGradient81506"
       gradientUnits="userSpaceOnUse"
       gradientTransform="matrix(1.2863194,0,0,1,-40.908166,0.55902372)"
       x1="182.0554"
       y1="328.33328"
       x2="182.0554"
       y2="353.76886" />
    <linearGradient
       xlink:href="#linearGradient34826"
       id="linearGradient81508"
       gradientUnits="userSpaceOnUse"
       gradientTransform="matrix(1.2863194,0,0,1,-40.908166,0.55902372)"
       x1="182.0554"
       y1="328.33328"
       x2="182.0554"
       y2="353.76886" />
    <linearGradient
       xlink:href="#linearGradient34826"
       id="linearGradient81510"
       gradientUnits="userSpaceOnUse"
       gradientTransform="matrix(1.2863194,0,0,1,-40.908166,0.55902372)"
       x1="182.0554"
       y1="328.33328"
       x2="182.0554"
       y2="353.76886" />
    <linearGradient
       xlink:href="#linearGradient34826"
       id="linearGradient81512"
       gradientUnits="userSpaceOnUse"
       gradientTransform="matrix(1.2863194,0,0,1,-40.908166,0.55902372)"
       x1="182.0554"
       y1="328.33328"
       x2="182.0554"
       y2="353.76886" />
  </defs>
  <g
     id="layer1"
     transform="translate(-37.14027,-86.369019)">
    <rect
       style="fill:#000000;stroke-width:0.764998;stroke-linecap:round;stroke-linejoin:round;stroke-dasharray:3.06001, 1.53;stroke-dashoffset:1.071"
       id="rect3369"
       width="18.411755"
       height="7.6447783"
       x="37.14027"
       y="86.369019" />
    <g
       id="g3345"
       transform="matrix(0.77741191,0,0,1,8.4143997,0)"
       style="stroke-width:1.13416">
      <path
         id="rect80014"
         style="stroke:#000000;stroke-width:0.147441;stroke-linecap:round;stroke-linejoin:round;stroke-dashoffset:4.04787"
         d="m 37.802708,93.63832 v -6.77913 l 22.149481,0.936753 v 4.979578 z" />
      <g
         transform="matrix(0.264583,0,0,0.264583,0,-0.147908)"
         id="text3339"
         style="stroke-width:1.13416">
        <path
           id="path81231"
           d="m 146.984,340.93 c -0.219,-1.691 -0.561,-2.947 -0.683,-3.569 -0.122,-0.622 -0.314,-1.297 -0.576,-2.023 -0.257,-0.728 -0.539,-1.464 -0.846,-2.209 -0.301,-0.746 -0.627,-1.459 -0.979,-2.14 -0.353,-0.687 -0.694,-1.35 -1.024,-1.991 l 3.425,0.091 c 3.818,0.199 6,0.388 6.614,0.571 0.617,0.182 1.075,0.438 1.376,0.767 0.306,0.328 0.536,0.67 0.692,1.026 0.161,0.352 0.276,0.766 0.345,1.245 0.074,0.474 -0.118,0.879 -0.578,1.216 0.529,0.209 0.939,0.428 1.231,0.658 0.297,0.226 0.556,0.507 0.778,0.844 0.227,0.336 0.44,0.742 0.638,1.219 0.204,0.476 0.382,1.014 0.534,1.614 0.152,0.599 0.189,1.046 0.11,1.342 -0.073,0.291 -0.271,0.578 -0.593,0.861 -0.323,0.283 -0.689,0.438 -1.099,0.466 -0.406,0.032 -1.556,0.044 -3.469,0.036 l -4.61,-0.018 z m 1.79,-7.876 c 1.283,0.068 2.04549,0.0625 2.293,-0.022 0.24751,-0.0845 0.4535,-0.208 0.627,-0.371 0.1735,-0.163 0.2345,-0.3535 0.176,-0.564 -0.0585,-0.2105 -0.185,-0.383 -0.379,-0.518 -0.194,-0.135 -0.47399,-0.2255 -0.841,-0.279 -0.36701,-0.0535 -0.935,-0.104 -1.705,-0.144 -0.768,-0.041 -1.147,-0.032 -1.135,0.024 0.018,0.052 0.135,0.259 0.352,0.621 0.216,0.356 0.42,0.774 0.612,1.253 z m 1.796,5.715 c 1.098,0.012 1.951,0.007 2.563,-0.016 0.611,-0.023 0.932,-0.197 0.967,-0.522 0.041,-0.33 -0.014,-0.684 -0.165,-1.063 -0.151,-0.379 -0.336,-0.671 -0.557,-0.874 -0.215,-0.204 -0.586,-0.332 -1.112,-0.385 -0.528,-0.058 -1.078,-0.084 -1.652,-0.079 -0.575,0.001 -0.848,0.025 -0.819,0.073 0.036,0.044 0.125,0.322 0.268,0.835 0.142,0.512 0.312,1.189 0.507,2.031 z"
           style="line-height:10px;font-family:'Back to the future 2002';-inkscape-font-specification:'Back to the future 2002, Normal';fill:url(#linearGradient81462);fill-opacity:1;stroke:#20a7d2;stroke-width:0.557257;stroke-miterlimit:4;stroke-dasharray:none;stroke-opacity:1" />
        <path
           d="m 167.231,330.017 c 0.402,0.473 0.779,0.963 1.132,1.468 0.357,0.501 0.724,1.123 1.1,1.866 0.38,0.742 0.715,1.527 1.006,2.355 0.295,0.826 0.535,1.612 0.721,2.357 0.185,0.745 0.355,1.722 0.509,2.931 l -3.533,-0.015 -0.364,-2.025 -0.293,-0.974 -3.646,-0.096 0.316,1.496 0.09,1.583 -3.829,-0.016 c -0.099,-1.036 -0.23,-1.91 -0.391,-2.621 -0.162,-0.711 -0.346,-1.414 -0.552,-2.107 -0.201,-0.698 -0.464,-1.414 -0.789,-2.147 -0.326,-0.739 -0.644,-1.479 -0.955,-2.22 -0.305,-0.743 -0.257,-1.312 0.144,-1.706 0.406,-0.396 0.828,-0.593 1.265,-0.592 0.441,0.002 1.309,0.033 2.596,0.092 1.276,0.053 3.107,0.178 5.473,0.371 z m -0.486,5.653 c -0.298,-0.932 -0.545,-1.576 -0.743,-1.931 -0.193,-0.359 -0.541,-0.98 -1.046,-1.866 -1.862,-0.159 -2.866,-0.148 -2.992,0.037 -0.121,0.182 -0.135,0.462 -0.041,0.84 0.099,0.374 0.491,1.32 1.173,2.833 z"
           style="line-height:10px;font-family:'Back to the future 2002';-inkscape-font-specification:'Back to the future 2002, Normal';fill:url(#linearGradient81464);fill-opacity:1;stroke:#20a7d2;stroke-width:0.557257;stroke-miterlimit:4;stroke-dasharray:none;stroke-opacity:1"
           id="path81233" />
        <path
           d="m 179.603,330.586 0.77,1.58 0.145,0.37 0.087,0.27 c -1.644,-0.087 -2.911,-0.145 -3.791,-0.175 -0.879,-0.03 -1.374,-0.015 -1.479,0.044 -0.105,0.056 -0.17,0.158 -0.195,0.307 -0.02,0.145 0.027,0.406 0.142,0.783 0.121,0.374 0.283,0.856 0.488,1.447 0.204,0.586 0.366,1.078 0.486,1.477 0.119,0.398 0.216,0.692 0.291,0.881 0.079,0.186 0.148,0.32 0.208,0.403 0.064,0.079 0.223,0.205 0.475,0.376 0.252,0.168 0.609,0.254 1.07,0.26 0.46,0.006 1.955,0.025 4.451,0.057 0.25626,0.78921 0.3353,1.67922 0.434,2.393 -4.61,-0.019 -6.9995,-0.029 -7.049,-0.029 -0.0495,0 -0.57141,-0.0243 -0.84465,-0.084 -0.28669,-0.0627 -0.33434,-0.0385 -0.81535,-0.28397 -0.48101,-0.24551 -0.79,-0.5065 -0.932,-0.777 -0.142,-0.2705 -0.287,-0.716 -0.434,-1.336 -0.143,-0.625 -0.352,-1.37 -0.627,-2.238 -0.276,-0.869 -0.533,-1.603 -0.769,-2.203 -0.231,-0.601 -0.427,-1.094 -0.586,-1.479 -0.16,-0.384 -0.274,-0.654 -0.341,-0.809 -0.062,-0.154 -0.124,-0.33 -0.186,-0.528 -0.062,-0.203 0.059,-0.442 0.364,-0.718 0.31,-0.279 0.76,-0.413 1.349,-0.405 0.592,0.009 1.508,0.048 2.743,0.116 1.224,0.067 2.742,0.16797 4.546,0.30097 z"
           style="line-height:10px;font-family:'Back to the future 2002';-inkscape-font-specification:'Back to the future 2002, Normal';fill:url(#linearGradient81466);fill-opacity:1;stroke:#20a7d2;stroke-width:0.557257;stroke-miterlimit:4;stroke-dasharray:none;stroke-opacity:1"
           id="path81235" />
        <path
           d="m 185.053,341.067 c -0.145,-1.271 -0.348,-2.351 -0.498,-3.149 -0.15,-0.798 -0.387,-1.605 -0.712,-2.421 -0.32,-0.822 -0.668,-1.675 -1.042,-2.56 -0.371,-0.887 -0.754,-1.673 -1.151,-2.358 l 3.739,0.157 c 0.609,1.09 1.044,1.909 1.307,2.463 0.267,0.552 0.461,0.972 0.58,1.262 0.12,0.29 0.179,0.435 0.179,0.435 l 1.574,-4.007 3.49,0.146 -1.942,4.961 c 1.449,0.934 2.385,1.625 2.821,2.082 0.433,0.452 0.839,0.911 1.218,1.378 0.378,0.461 0.711,1.013 1.001,1.654 l -3.576,-0.015 c -0.502,-0.762 -0.951,-1.25392 -1.524,-1.827 -0.37879,-0.37885 -0.8147,-0.72232 -1.257,-1.057 -0.40067,-0.30317 -0.75893,-0.54606 -1.262,-0.859 0.219,0.83 0.362,1.466 0.431,1.91 0.068,0.444 0.141,1.05 0.218,1.819 z"
           style="line-height:10px;font-family:'Back to the future 2002';-inkscape-font-specification:'Back to the future 2002, Normal';fill:url(#linearGradient81496);fill-opacity:1;stroke:#20a7d2;stroke-width:0.557257;stroke-miterlimit:4;stroke-dasharray:none;stroke-opacity:1"
           id="path81237" />
        <path
           d="m 196.804,331.231 1.708,1.57 9.423,0.315 c 0.693,0.98 1.434,2.029 2.224,3.146 0.793,1.104 1.309,2.128 1.551,3.074 l -9.191,-0.124 0.819,1.853 c -2.621,-1.591 -5.503,-3.386 -8.663,-5.397 z m 16.361,2.116 c 0.775,0.99 1.464,1.974 2.069,2.953 0.603,0.975 1.07,2.005 1.402,3.093 l -3.458,-0.04 c -0.034,-0.743 -0.586,-1.866 -1.662,-3.377 -1.086,-1.53 -1.782,-2.468 -2.081,-2.805 z m 4.906,6.03 c -0.222,-0.699 -0.477,-1.342 -0.765,-1.931 -0.289,-0.589 -1.219,-1.939 -2.804,-4.067 l 2.383,0.103 c 0.816,0.987 1.309,1.622 1.48,1.909 0.18,0.282 0.547,0.871 1.099,1.766 0.55,0.89 0.852,1.638 0.908,2.247 z m 3.835,0.045 c -0.191,-0.688 -0.419,-1.22845 -0.716,-1.819 -0.24916,-0.49541 -0.571,-0.96741 -0.89,-1.438 -0.34652,-0.51119 -0.73802,-1.00319 -1.11096,-1.50303 -0.2645,-0.3545 -0.50149,-0.66713 -0.79904,-1.06097 l 1.584,0.057 c 0.314,0.275 0.66628,0.70861 0.964,1.081 0.39462,0.49359 0.77129,0.99821 1.087,1.525 0.36588,0.61051 0.63865,1.25249 0.93017,1.88674 0.19476,0.42374 0.34582,0.80116 0.54683,1.28126 z m 2.672,-0.025 c -0.116,-0.435 -0.14879,-0.60957 -0.256,-0.908 -0.078,-0.21711 -0.18258,-0.42796 -0.281,-0.64 -0.17144,-0.36937 -0.34075,-0.73983 -0.539,-1.101 -0.27143,-0.49449 -0.55755,-0.98547 -0.88934,-1.45718 C 222.24052,334.76175 221.98,334.516 221.381,333.756 l 0.977,0.011 c 0.445,0.481 0.76129,0.83317 1.0905,1.27462 0.22589,0.3029 0.42072,0.61973 0.6045,0.93938 0.31423,0.54655 0.5952,1.10506 0.85,1.67 0.12669,0.28089 0.24712,0.56433 0.3369,0.85369 0.0931,0.29992 0.18803,0.61032 0.2081,0.91131 z"
           style="font-size:18px;fill:url(#linearGradient81498);fill-opacity:1;stroke:#20a7d2;stroke-width:0.42866;stroke-miterlimit:4;stroke-dasharray:none;stroke-opacity:1"
           id="path81239" />
        <path
           d="m 152.722,342.566 c -0.029,0.548 -0.055,0.899 -0.079,1.052 -0.017,0.153 -0.026,0.23 -0.026,0.23 l -1.958,0.011 -0.445,0.002 c -0.071,0.617 -0.148,1.117 -0.231,1.5 -0.084,0.382 -0.182,0.759 -0.295,1.129 -0.113,0.367 -0.259,0.758 -0.438,1.173 -0.18,0.412 -0.311,0.688 -0.395,0.827 l -2.271,0.046 0.691,-1.681 c 0.29,-0.955 0.468,-1.648 0.535,-2.081 0.072,-0.436 0.105,-0.743 0.099,-0.92 l -2.047,0.011 0.064,-0.867 -0.018,-0.423 0.348,-10e-4 z m 2.002,4.278 c -0.012,0.013 -0.023,0.056 -0.035,0.127 -0.006,0.068 0.005,0.133 0.035,0.196 0.028,0.059 0.103,0.096 0.224,0.11 0.127,0.011 0.38,0.009 0.758,-0.005 0.383,-0.02 0.617,-0.032 0.703,-0.037 0.085,-0.006 0.168,-0.037 0.247,-0.093 0.08,-0.06 0.148,-0.126 0.205,-0.198 0.057,-0.076 0.114,-0.194 0.17,-0.355 0.057,-0.164 0.117,-0.353 0.179,-0.567 0.068,-0.219 0.136,-0.481 0.204,-0.788 0.074,-0.306 0.133,-0.599 0.178,-0.879 0.051,-0.281 0.048,-0.463 -0.009,-0.546 -0.051,-0.084 -0.153,-0.129 -0.306,-0.137 -0.153,-0.007 -0.385,-0.01 -0.698,-0.009 -0.314,0.002 -0.528,0.007 -0.642,0.016 -0.114,0.009 -0.206,0.039 -0.275,0.09 -0.068,0.046 -0.114,0.112 -0.137,0.196 -0.023,0.085 -0.066,0.285 -0.129,0.601 -0.063,0.317 -0.121,0.576 -0.172,0.779 -0.052,0.199 -0.104,0.376 -0.156,0.533 -0.051,0.157 -0.165,0.478 -0.344,0.966 z m -2.458,0.932 c 0.357,-0.793 0.585,-1.319 0.684,-1.58 0.099,-0.264 0.189,-0.56 0.271,-0.888 0.087,-0.331 0.166,-0.758 0.235,-1.28 0.076,-0.522 0.131,-0.851 0.166,-0.986 0.04,-0.14 0.151,-0.251 0.33,-0.331 0.186,-0.085 0.443,-0.132 0.772,-0.141 0.328,-0.009 0.948,-0.014 1.856,-0.015 0.902,-0.001 1.568,0.002 2.001,0.01 0.432,0.008 0.74,0.078 0.924,0.211 0.185,0.132 0.254,0.429 0.21,0.89 -0.039,0.461 -0.112,0.939 -0.218,1.435 -0.106,0.495 -0.221,0.921 -0.344,1.276 -0.117,0.355 -0.229,0.667 -0.336,0.935 -0.106,0.265 -0.227,0.457 -0.362,0.576 -0.129,0.119 -0.298,0.229 -0.507,0.329 -0.209,0.096 -0.435,0.149 -0.678,0.158 -0.244,0.01 -0.901,0.023 -1.977,0.041 -1.077,0.017 -1.808,0.03 -2.186,0.038 -0.373,0.007 -0.616,-0.036 -0.727,-0.132 -0.111,-0.1 -0.164,-0.207 -0.158,-0.322 0.007,-0.116 0.021,-0.19 0.044,-0.225 z m -2.667,1.233 c -0.096,0.483 -0.161,0.792 -0.197,0.926 l -0.054,0.195 -1.557,0.04 -0.344,0.009 c -0.145,0.535 -0.275,0.969 -0.39,1.302 -0.115,0.332 -0.242,0.661 -0.382,0.986 -0.134,0.325 -0.298,0.667 -0.493,1.026 -0.195,0.354 -0.338,0.596 -0.43,0.726 l -1.797,0.069 0.768,-1.469 c 0.35,-0.83 0.58,-1.434 0.69,-1.811 0.116,-0.382 0.186,-0.651 0.211,-0.809 l -1.632,0.042 0.167,-0.751 0.056,-0.362 0.277,-0.006 z m -1.383,5.134 0.603,-0.933 0.484,-0.901 0.394,-0.952 0.348,-0.975 0.214,-0.758 0.142,-0.587 1.214,-0.027 0.546,-0.013 -0.115,0.706 -0.176,0.681 -0.194,0.588 1.449,-0.067 0.227,-0.687 0.183,-0.914 0.035,-0.325 1.74,-0.026 c -0.074,0.49 -0.149,0.875 -0.224,1.156 -0.069,0.276 -0.189,0.635 -0.362,1.079 -0.173,0.445 -0.318,0.787 -0.433,1.028 -0.116,0.24 -0.243,0.492 -0.382,0.755 -0.133,0.263 -0.371,0.596 -0.714,0.999 l -1.58,0.061 0.484,-0.83 0.422,-0.78 0.193,-0.466 -1.453,0.028 -0.203,0.423 -0.461,0.74 -0.605,0.929 -1.74,0.067 z m 8.013,-5.205 1.719,-0.038 2.775,-0.062 c -0.072,0.424 -0.172,0.751 -0.299,0.982 l -2.934,0.075 c -0.084,0.316 -0.184,0.595 -0.297,0.837 l 2.939,-0.084 -0.15,0.453 -0.309,0.582 -2.863,0.091 -0.384,0.837 -0.12,0.206 2.814,-0.08 -0.32,0.523 -0.387,0.49 -4.391,0.169 c 0.387,-0.568 0.673,-1.039 0.857,-1.413 0.184,-0.377 0.351,-0.732 0.5,-1.066 0.149,-0.337 0.278,-0.679 0.387,-1.027 0.115,-0.348 0.269,-0.84 0.463,-1.475 z"
           style="line-height:1.25;font-family:'Back to the future 2002';-inkscape-font-specification:'Back to the future 2002, Normal';fill:url(#linearGradient81500);fill-opacity:1;stroke:#20a7d2;stroke-width:0.42866;stroke-linejoin:miter;stroke-miterlimit:4;stroke-dasharray:none;stroke-opacity:1"
           id="path81241" />
        <path
           d="m 162.012,353.66 c 0.389,-0.694 0.654,-1.194 0.796,-1.503 0.148,-0.314 0.382,-0.89 0.703,-1.727 0.326,-0.841 0.58,-1.631 0.764,-2.371 0.189,-0.739 0.343,-1.491 0.462,-2.256 0.124,-0.765 0.277,-1.853 0.46,-3.265 l 3.786,-0.004 6.538,-0.002 c 0.045,0.92 0.005,1.644 -0.12,2.172 l -6.591,0.016 c -0.068,0.722 -0.149,1.327 -0.244,1.815 l 6.61,-0.057 c -0.116,0.624 -0.316,1.35 -0.603,2.181 l -6.662,0.152 c -0.475,1.248 -0.766,1.997 -0.873,2.243 -0.106,0.243 -0.496,1.06 -1.174,2.458 z"
           style="letter-spacing:-1px;fill:url(#linearGradient81502);fill-opacity:1;stroke:#20a7d2;stroke-width:0.557257;stroke-miterlimit:4;stroke-dasharray:none;stroke-opacity:1"
           id="path81243" />
        <path
           d="m 174.133,353.161 c 0,0 0.54809,-0.87289 0.755,-1.33 0.39261,-0.86737 0.64622,-1.76974 0.916,-2.665 0.19256,-0.639 0.35721,-1.28329 0.501,-1.93 0.14521,-0.6531 0.26907,-1.30943 0.365,-1.968 0.078,-0.5354 0.13622,-1.07285 0.171,-1.611 0.0278,-0.42986 0.04,-0.877 0.03,-1.291 l 3.673,0.084 c -0.087,1.233 -0.169,2.209 -0.246,2.929 -0.078,0.72 -0.235,1.531 -0.472,2.433 -0.233,0.9 -0.505,1.737 -0.817,2.51 -0.313,0.775 -0.727,1.674 -1.242,2.699 z"
           style="letter-spacing:-1px;fill:url(#linearGradient81504);fill-opacity:1;stroke:#20a7d2;stroke-width:0.557257;stroke-miterlimit:4;stroke-dasharray:none;stroke-opacity:1"
           id="path81245" />
        <path
           d="m 179.41,352.946 c 0.772,-1.59 1.14,-2.663 1.386,-3.33 0.25,-0.666 0.486,-1.417 0.706,-2.253 0.22,-0.835 0.373,-1.626 0.459,-2.372 0.091,-0.746 0.155,-1.359 0.194,-1.84 0.038,-0.48 0.057,-0.75 0.057,-0.812 l 3.508,0.044 c 0.042,0.777 0.03,1.504 -0.035,2.183 -0.06,0.676 -0.162,1.346 -0.307,2.013 -0.144,0.663 -0.317,1.344 -0.518,2.044 -0.196,0.697 -0.417,1.31 -0.661,1.839 l 6.347,-0.152 c -0.278,0.687 -0.635,1.422 -1.073,2.208 l -0.081,0.042 z"
           style="letter-spacing:-1px;fill:url(#linearGradient81494);fill-opacity:1;stroke:#20a7d2;stroke-width:0.557257;stroke-miterlimit:4;stroke-dasharray:none;stroke-opacity:1"
           id="path81247" />
        <path
           d="m 199.846,342.464 c -0.079,0.913 -0.138,1.498 -0.175,1.753 -0.038,0.256 -0.057,0.384 -0.057,0.384 l -3.157,0.03 c -0.095,1.006 -0.215,1.831 -0.361,2.475 -0.142,0.641 -0.308,1.271 -0.497,1.889 -0.191,0.619 -0.428,1.275 -0.714,1.969 -0.283,0.691 -0.489,1.161 -0.62,1.408 l -3.304,0.128 1.115,-2.853 c 0.778,-2.222 1.141,-3.882 1.092,-4.991 l -3.318,0.031 0.162,-1.502 0.008,-0.71 0.512,-0.001 z"
           style="letter-spacing:-1px;fill:url(#linearGradient81506);fill-opacity:1;stroke:#20a7d2;stroke-width:0.557257;stroke-miterlimit:4;stroke-dasharray:none;stroke-opacity:1"
           id="path81249" />
        <path
           d="m 199.479,349.423 c 0.302,-0.738 0.546,-1.432 0.734,-2.082 0.187,-0.649 0.353,-1.31 0.498,-1.982 0.15,-0.671 0.34,-1.639 0.572,-2.902 l 2.946,-0.003 h 4.898 c -0.046,0.836 -0.134,1.486 -0.262,1.952 l -5.006,0.007 c -0.101,0.635 -0.203,1.167 -0.304,1.597 l 5.018,-0.039 c -0.129,0.551 -0.328,1.192 -0.598,1.925 l -5.067,0.116 c -0.396,1.072 -0.669,1.746 -0.816,2.017 l 5.199,-0.122 c -0.303,0.662 -0.636,1.33 -0.996,2.001 l -8.091,0.313 c 0.43834,-1.01074 1.12155,-2.46603 1.275,-2.798 z"
           style="letter-spacing:-1px;fill:url(#linearGradient81508);fill-opacity:1;stroke:#20a7d2;stroke-width:0.557257;stroke-miterlimit:4;stroke-dasharray:none;stroke-opacity:1"
           id="path81251" />
        <path
           d="m 207.623,351.909 c 0.659,-1.336 1.139,-2.374 1.442,-3.118 0.302,-0.742 0.562,-1.472 0.778,-2.192 0.22,-0.722 0.401,-1.461 0.543,-2.218 0.146,-0.759 0.24,-1.443 0.282,-2.053 l 3.851,-0.002 c 1.946,0.046 3.038,0.199 3.299,0.46 0.26,0.256 0.363,0.596 0.309,1.021 -0.055,0.424 -0.139,0.895 -0.255,1.411 -0.112,0.516 -0.204,0.869 -0.277,1.057 -0.072,0.186 -0.217,0.425 -0.435,0.717 -0.215,0.293 -0.775,0.618 -1.686,0.976 0.533,1.001 0.898,2.21 1.095,3.629 l -2.94,0.115 c -0.116,-0.728 -0.273,-1.264 -0.472,-1.608 -0.196,-0.348 -0.565,-0.774 -1.11,-1.279 -0.137,0.405 -0.253,0.711 -0.348,0.92 -0.095,0.205 -0.409,0.885 -0.944,2.043 l -3.085,0.119 z m 4.946,-5.251 c 0.82,-0.015 1.361,-0.053 1.626,-0.116 0.264,-0.062 0.461,-0.176 0.591,-0.341 0.133,-0.164 0.222,-0.311 0.267,-0.44 0.048,-0.133 0.131,-0.408 0.249,-0.825 0.122,-0.42 0.059,-0.67 -0.188,-0.749 -0.248,-0.079 -0.863,-0.103 -1.85,-0.071 -0.106,0.611 -0.235,1.158 -0.39,1.641 -0.15,0.484 -0.252,0.784 -0.305,0.901 z"
           style="letter-spacing:-1px;fill:url(#linearGradient81510);fill-opacity:1;stroke:#20a7d2;stroke-width:0.557257;stroke-miterlimit:4;stroke-dasharray:none;stroke-opacity:1"
           id="path81253" />
        <path
           d="m 224.489,342.393 c 0.855,0 1.423,0.103 1.71,0.309 0.286,0.205 0.415,0.492 0.389,0.859 -0.024,0.364 -0.076,0.764 -0.157,1.2 l -2.348,0.027 c 0.182,-0.585 0.021,-0.875 -0.484,-0.871 -0.508,0.003 -0.958,0.007 -1.351,0.01 -0.391,0.002 -0.612,0.098 -0.661,0.286 -0.049,0.188 -0.11,0.432 -0.184,0.733 -0.074,0.301 -0.082,0.513 -0.026,0.638 0.056,0.121 0.173,0.218 0.352,0.291 0.178,0.072 0.579,0.087 1.201,0.045 0.619,-0.046 1.148,-0.002 1.59,0.13 0.443,0.129 0.763,0.414 0.959,0.854 0.2,0.439 0.178,1.056 -0.066,1.852 -0.244,0.798 -0.499,1.358 -0.765,1.678 -0.267,0.319 -1.3265,0.7225 -1.791,0.845 -0.4645,0.1225 -1.65599,0.14194 -3.044,0.117 -1.38801,-0.0249 -2.79,-0.499 -2.234,-1.942 l 0.401,-0.859 2.44,-0.065 -0.228,0.641 c -0.0855,0.23752 0.051,0.378 0.111,0.439 0.06,0.058 0.641,0.058 1.735,0 0.589,-0.084 0.953,-0.395 1.095,-0.932 0.141,-0.54 0.076,-0.877 -0.198,-1.011 -0.27,-0.138 -0.722,-0.183 -1.358,-0.136 -0.64,0.047 -1.237,0.048 -1.79,10e-4 -0.553,-0.048 -0.93,-0.183 -1.131,-0.405 -0.198,-0.226 -0.218,-0.649 -0.06,-1.269 0.162,-0.618 0.289,-1.129 0.382,-1.533 0.093,-0.407 0.174,-0.723 0.242,-0.95 0.071,-0.226 0.223,-0.427 0.455,-0.604 0.234,-0.176 0.54,-0.288 0.915,-0.335 0.377,-0.049 1.059,-0.075 2.038,-0.075 0.972,-10e-4 1.591,0.01 1.861,0.032 z"
           style="letter-spacing:-1px;fill:url(#linearGradient81512);fill-opacity:1;stroke:#20a7d2;stroke-width:0.557257;stroke-miterlimit:4;stroke-dasharray:none;stroke-opacity:1"
           id="path81255" />
      </g>
    </g>
  </g>
</svg>
