<?xml version="1.0" encoding="UTF-8" standalone="no"?>
<!-- Created with Inkscape (http://www.inkscape.org/) -->

<svg
   width="154.04897mm"
   height="20.515249mm"
   viewBox="0 0 154.04897 20.515249"
   version="1.1"
   id="svg590"
   xmlns="http://www.w3.org/2000/svg"
   xmlns:svg="http://www.w3.org/2000/svg">
  <defs
     id="defs587">
    <rect
       x="273.01764"
       y="375.4234"
       width="273.59729"
       height="43.280926"
       id="rect1003" />
  </defs>
  <g
     id="layer1"
     transform="translate(-27.643402,-73.482102)">
    <g
       id="layer1-6"
       transform="matrix(0.24633516,0,0,0.24633516,24.915447,66.971139)"
       style="stroke-width:4.05951">
      <g
         id="g15883"
         transform="translate(2.6458334,1.5875)"
         style="stroke-width:4.05951">
        <path
           id="path1189"
           style="fill:#000000;stroke-width:4.05951"
           d="m 8.8335693,39.666313 v 17.506425 17.505908 c 13.3902877,-9e-6 27.4295917,0 40.4704017,0 V 57.172738 39.666313 c 0,0 -29.243854,0 -40.4704017,0 z M 84.80826,44.873747 c -1.671385,-0.0021 -2.883129,0.268342 -4.228166,0.944128 -2.485446,1.248766 -4.79867,4.028613 -5.744869,6.904488 -0.520205,1.581114 -0.625135,2.326685 -0.626835,4.450375 -0.0017,2.128185 0.103095,2.867057 0.629936,4.449857 0.74917,2.250747 2.393877,4.553794 4.264339,5.970695 1.274432,0.965399 3.046955,1.712727 4.450891,1.876888 2.575012,0.301095 5.000983,-0.357941 6.975802,-1.894975 3.696701,-2.877186 5.449312,-7.561862 4.70824,-12.585795 -0.393579,-2.668121 -1.578176,-5.059766 -3.477824,-7.021276 -2.049446,-2.116187 -4.239451,-3.090885 -6.951514,-3.094385 z m 68.73792,0.01188 c -0.87494,0.0217 -1.49489,0.139848 -2.3244,0.410828 -3.70079,1.208953 -6.73341,5.00287 -7.51324,9.399426 -0.11875,0.669179 -0.15441,1.275952 -0.15141,2.51871 0.006,1.903804 0.13485,2.792611 0.62322,4.284493 1.39792,4.27044 4.97303,7.52708 8.74313,7.964371 1.98587,0.230342 3.62919,-0.03997 5.32216,-0.875398 1.14001,-0.562557 1.87629,-1.102449 2.8546,-2.092896 1.741,-1.762555 2.8622,-3.873777 3.41272,-6.425964 0.26088,-1.209229 0.2831,-4.20365 0.0408,-5.499406 -0.6604,-3.532094 -2.87943,-6.796246 -5.76244,-8.476485 -1.45027,-0.845226 -2.50322,-1.141102 -4.26796,-1.19941 -0.36552,-0.01208 -0.68555,-0.01547 -0.9772,-0.0083 z m -139.255063,0.364319 5.310787,0.01757 5.310787,0.01757 v 0.315226 0.315227 l -1.343587,0.0031 -1.34307,0.0031 v 8.228438 c 0,7.62689 0.01136,8.292147 0.155029,9.105904 0.537,3.041339 1.75471,4.525553 4.046781,4.931482 0.632848,0.11207 0.9067,0.118374 1.731161,0.03876 1.757291,-0.169701 2.747644,-0.612554 3.822505,-1.707906 0.853845,-0.87012 1.375886,-1.933525 1.616956,-3.294889 0.05729,-0.323549 0.08837,-3.137065 0.08837,-8.025867 0,-8.135531 0.0097,-7.948889 -0.448552,-8.641333 -0.287498,-0.43444 -0.642153,-0.577673 -1.598869,-0.644921 l -0.81597,-0.05736 0.02532,-0.280087 0.02532,-0.280086 3.337264,-0.0217 3.337781,-0.02222 -5.17e-4,0.335897 v 0.335897 l -0.690913,0.02635 c -1.040644,0.0396 -1.382254,0.262036 -1.722376,1.122412 -0.129954,0.32872 -0.14832,1.076205 -0.19482,8.044987 -0.04476,6.709259 -0.06844,7.762257 -0.189653,8.30957 -0.343339,1.550309 -0.895858,2.658891 -1.809708,3.632337 -1.053484,1.122182 -2.195979,1.753687 -3.927409,2.170927 -0.624469,0.150487 -1.049397,0.182875 -2.673739,0.203605 -2.07173,0.02644 -2.082169,0.02567 -3.129524,-0.217041 C 20.30704,68.54207 18.095918,66.607189 17.316772,64.057589 16.907806,62.71931 16.895104,62.417578 16.894576,53.86958 l -5.17e-4,-8.005196 -1.301212,0.02842 -1.30173,0.02894 v -0.335897 z m 83.543221,0.02687 v 0.301274 0.301273 h 1.678968 1.679484 v 11.335226 11.334708 h -1.679484 -1.678968 v 0.252698 0.252698 l 5.100462,-0.0217 5.10098,-0.0217 0.0264,-0.230994 0.0269,-0.230994 h -1.72703 -1.72651 v -5.709212 -5.709729 l 1.53221,0.0031 c 2.7743,0.0053 3.81238,0.36538 4.54339,1.576131 0.44235,0.732652 0.61754,1.447915 0.89607,3.654557 0.41181,3.262404 0.82581,4.906521 1.44332,5.734534 0.32922,0.441452 1.21068,0.91581 1.91203,1.028877 h 5.2e-4 c 1.13076,0.181922 3.31231,0.05712 4.0504,-0.23151 0.20535,-0.08028 0.22019,-0.111762 0.13849,-0.290938 l -0.0915,-0.200505 -0.50333,0.15658 c -1.22514,0.381309 -2.13538,-0.03333 -2.45773,-1.118795 -0.0698,-0.235063 -0.20344,-1.11178 -0.29714,-1.948201 -0.45997,-4.10477 -0.59416,-4.819965 -1.10484,-5.889047 -0.14802,-0.309872 -0.45016,-0.761607 -0.67128,-1.003556 -0.70038,-0.766339 -2.30177,-1.424065 -4.02611,-1.653646 -0.41223,-0.05488 -0.72073,-0.125339 -0.68523,-0.156579 0.0354,-0.03124 0.3361,-0.09977 0.66818,-0.152446 0.9727,-0.15431 2.516,-0.6588 3.51038,-1.147217 1.40321,-0.689215 1.99847,-1.293409 2.47944,-2.517159 0.17652,-0.449124 0.19747,-0.640389 0.19947,-1.7632 0.001,-0.930354 -0.0365,-1.401906 -0.14366,-1.805057 -0.49648,-1.86808 -1.66124,-2.938499 -3.87884,-3.564124 -1.65628,-0.467274 -1.95338,-0.48568 -8.3752,-0.5271 z m 22.586222,0.01499 v 3.484542 3.484542 h 0.24184 0.24185 l 0.0558,-0.818555 c 0.21193,-3.100659 0.82171,-4.393551 2.34094,-4.961971 1.0268,-0.384173 2.61949,-0.598973 4.44521,-0.599963 l 1.23816,-10e-4 v 11.335226 11.335225 h -1.72082 -1.72134 v 0.251664 0.251664 h 5.16351 5.16402 v -0.250114 -0.250113 l -1.70015,-0.02274 -1.70067,-0.02274 -0.0212,-11.314038 -0.0212,-11.314038 1.36478,0.0016 c 2.69484,0.003 4.65738,0.471385 5.46581,1.303797 0.70096,0.721755 1.11473,2.085496 1.20303,3.963582 l 0.0527,1.112594 h 0.23926 0.23926 v -3.484542 -3.484542 h -10.28567 z m -66.339107,0.01499 c -0.933103,0.0078 -1.409871,0.02598 -1.438671,0.05478 -0.04724,0.04724 -0.06134,0.182961 -0.03152,0.301791 l 0.05426,0.216007 h 1.635559 1.635559 v 11.333675 11.333159 l -1.65778,0.02274 c -1.770379,0.0243 -1.676694,0.0011 -1.626774,0.400493 0.0069,0.05493 1.766605,0.08371 5.090129,0.08371 h 5.079793 v -0.251664 -0.251664 h -1.721342 -1.721342 v -5.290116 c 0,-3.580199 0.02816,-5.2896 0.08682,-5.2896 0.04766,0 0.227251,0.05879 0.398942,0.130741 0.831836,0.348584 2.816868,0.461177 4.406449,0.249598 2.900761,-0.386105 5.274942,-1.755979 6.192387,-3.573426 1.01317,-2.007076 0.748683,-5.21919 -0.559656,-6.798551 -1.027748,-1.240645 -2.724425,-2.060836 -5.067391,-2.450497 -0.967765,-0.160948 -1.480439,-0.177713 -6.578926,-0.213423 -1.853939,-0.01298 -3.243385,-0.01554 -4.17649,-0.0078 z m 100.552517,0.07441 c 0.27414,0.0089 0.52739,0.03213 0.73846,0.07183 1.88911,0.355311 3.15384,1.443735 4.2199,3.631819 0.88165,1.809643 1.28495,4.105543 1.33945,7.625891 0.0557,3.598494 -0.42467,6.577439 -1.37718,8.541081 -0.97202,2.003898 -2.22094,3.175847 -3.82767,3.592546 -0.63106,0.163655 -1.94066,0.224993 -2.59984,0.121439 -2.28589,-0.359097 -3.88847,-1.924564 -4.89531,-4.782137 -0.96144,-2.728698 -1.16107,-8.268138 -0.43615,-12.109338 0.62239,-3.297926 2.2881,-5.731203 4.39095,-6.414596 0.6153,-0.199965 1.62498,-0.305322 2.44739,-0.278536 z m -69.854649,0.0021 c 0.524402,1.38e-4 1.050325,0.03968 1.42627,0.118339 2.602993,0.544631 4.419894,3.101857 5.041553,7.095175 0.624314,4.010459 0.328449,9.058307 -0.691431,11.796696 -0.904376,2.42826 -2.365532,3.973941 -4.202844,4.445723 -1.093518,0.280791 -2.529473,0.230946 -3.597714,-0.12454 -1.159671,-0.385914 -1.930878,-1.017308 -2.764172,-2.263945 -1.063864,-1.591573 -1.524341,-3.061526 -1.840714,-5.877677 -0.481402,-4.285117 -0.02985,-8.700671 1.163236,-11.373983 0.34917,-0.782376 1.261108,-2.088325 1.782837,-2.553332 0.582729,-0.51938 1.499173,-0.982278 2.265495,-1.144633 0.370345,-0.07847 0.893084,-0.117961 1.417484,-0.117823 z m -25.4,0.478007 1.868103,0.04134 c 1.3976,0.03094 1.995067,0.07723 2.371949,0.183451 2.602041,0.73334 3.81132,2.62902 3.83129,6.006868 0.0082,1.392298 -0.167248,2.335675 -0.589111,3.171383 -0.640851,1.269521 -2.015732,2.220067 -3.721737,2.572453 -1.180159,0.24377 -2.145365,0.136145 -3.324345,-0.371037 L 59.379321,57.277669 V 51.56949 Z m 45.256149,0.0186 1.74202,10e-4 c 2.62994,0.0017 3.86756,0.326725 4.80332,1.262456 0.47145,0.47145 1.01362,1.497591 1.23972,2.346626 0.20462,0.769045 0.20342,2.84824 -0.002,3.610633 -0.53716,1.992062 -1.876,3.016777 -4.43539,3.394625 -0.4944,0.07299 -1.43962,0.131775 -2.11976,0.131775 h -1.22784 V 51.253202 Z M 41.288953,64.528878 c 0.64556,0.0069 1.117104,0.218451 1.603003,0.70435 0.481987,0.481986 0.702282,1.022171 0.702282,1.721341 0,0.876749 -0.578451,1.778223 -1.381828,2.152324 -0.474718,0.22106 -1.395069,0.263893 -1.854667,0.08682 -1.023333,-0.394286 -1.549926,-1.181228 -1.548226,-2.313037 0.0019,-1.284289 0.90531,-2.250154 2.191598,-2.342492 0.09988,-0.0072 0.195615,-0.01029 0.287838,-0.0093 z" />
        <g
           aria-label="FACULDADE DE MEDICINA"
           id="text1193"
           style="font-size:10.9118px;line-height:1.25;font-family:'Open Sans';-inkscape-font-specification:'Open Sans, Normal';font-variant-ligatures:none;letter-spacing:0px;word-spacing:0px;stroke-width:1.07408">
          <path
             d="m 57.717771,90.824821 h -1.625048 v -7.789576 h 4.464887 v 1.353319 h -2.839839 v 2.008667 h 2.642702 v 1.347991 h -2.642702 z"
             style="font-weight:bold;-inkscape-font-specification:'Open Sans Bold';stroke-width:1.07408"
             id="path15694" />
          <path
             d="m 66.85001,90.824821 -0.564771,-1.854153 h -2.839838 l -0.564771,1.854153 h -1.779562 l 2.749263,-7.821544 h 2.019322 l 2.759918,7.821544 z m -0.959045,-3.23944 -0.564771,-1.81153 q -0.05328,-0.181153 -0.143856,-0.463538 -0.08525,-0.287714 -0.175825,-0.580755 -0.08525,-0.29837 -0.138529,-0.516819 -0.05328,0.218449 -0.149185,0.543459 -0.09058,0.319682 -0.175825,0.607395 -0.08525,0.287714 -0.122544,0.410258 l -0.559443,1.81153 z"
             style="font-weight:bold;-inkscape-font-specification:'Open Sans Bold';stroke-width:1.07408"
             id="path15696" />
          <path
             d="m 72.918634,84.297988 q -0.474194,0 -0.841828,0.186481 -0.362306,0.181153 -0.612723,0.527474 -0.24509,0.346322 -0.372962,0.836501 -0.127873,0.490178 -0.127873,1.102901 0,0.825845 0.202465,1.411928 0.207793,0.580755 0.639363,0.88978 0.431571,0.303698 1.113558,0.303698 0.474195,0 0.948389,-0.106561 0.479522,-0.10656 1.038965,-0.303697 v 1.385287 q -0.516818,0.213121 -1.017653,0.303698 -0.500834,0.0959 -1.124214,0.0959 -1.204134,0 -1.982026,-0.495507 -0.772564,-0.500834 -1.145526,-1.395943 -0.372962,-0.900436 -0.372962,-2.099243 0,-0.884452 0.239761,-1.61972 0.239762,-0.735268 0.7033,-1.273399 0.463538,-0.53813 1.145526,-0.831172 0.681988,-0.293041 1.56644,-0.293041 0.580755,0 1.16151,0.149184 0.586083,0.143857 1.118886,0.399602 l -0.532803,1.342663 q -0.436898,-0.207793 -0.879124,-0.362305 -0.442227,-0.154513 -0.868469,-0.154513 z"
             style="font-weight:bold;-inkscape-font-specification:'Open Sans Bold';stroke-width:1.07408"
             id="path15698" />
          <path
             d="m 82.903357,83.035245 v 5.040314 q 0,0.804532 -0.356978,1.454552 -0.35165,0.644691 -1.070933,1.022981 -0.713956,0.37829 -1.800874,0.37829 -1.545128,0 -2.354988,-0.788548 -0.80986,-0.788548 -0.80986,-2.088587 v -5.019002 h 1.646361 v 4.768585 q 0,0.964373 0.394274,1.353319 0.394274,0.388946 1.166838,0.388946 0.543458,0 0.879124,-0.186481 0.340994,-0.186481 0.500835,-0.575427 0.159841,-0.388946 0.159841,-0.991013 v -4.757929 z"
             style="font-weight:bold;-inkscape-font-specification:'Open Sans Bold';stroke-width:1.07408"
             id="path15700" />
          <path
             d="m 84.81079,90.824821 v -7.789576 h 1.651688 v 6.425601 h 3.159521 v 1.363975 z"
             style="font-weight:bold;-inkscape-font-specification:'Open Sans Bold';stroke-width:1.07408"
             id="path15702" />
          <path
             d="m 97.438215,86.855441 q 0,1.316023 -0.506162,2.200475 -0.500835,0.879125 -1.454552,1.326679 -0.953717,0.442226 -2.29638,0.442226 h -2.205803 v -7.789576 h 2.445564 q 1.225447,0 2.125883,0.436898 0.900437,0.431571 1.395944,1.284055 0.495506,0.847156 0.495506,2.099243 z m -1.715625,0.04262 q 0,-0.86314 -0.255745,-1.417255 -0.250417,-0.559443 -0.745924,-0.825844 -0.490178,-0.266402 -1.21479,-0.266402 h -0.879125 v 5.072282 h 0.708628 q 1.209462,0 1.795545,-0.644691 0.591411,-0.644691 0.591411,-1.91809 z"
             style="font-weight:bold;-inkscape-font-specification:'Open Sans Bold';stroke-width:1.07408"
             id="path15704" />
          <path
             d="m 103.82119,90.824821 -0.56477,-1.854153 h -2.83984 l -0.564768,1.854153 H 98.07225 l 2.74926,-7.821544 h 2.01933 l 2.75991,7.821544 z m -0.95904,-3.23944 -0.56477,-1.81153 q -0.0533,-0.181153 -0.14386,-0.463538 -0.0853,-0.287714 -0.17583,-0.580755 -0.0852,-0.29837 -0.13852,-0.516819 -0.0533,0.218449 -0.14919,0.543459 -0.0906,0.319682 -0.17582,0.607395 -0.0853,0.287714 -0.12255,0.410258 l -0.55944,1.81153 z"
             style="font-weight:bold;-inkscape-font-specification:'Open Sans Bold';stroke-width:1.07408"
             id="path15706" />
          <path
             d="m 113.04401,86.855441 q 0,1.316023 -0.50616,2.200475 -0.50084,0.879125 -1.45456,1.326679 -0.95371,0.442226 -2.29638,0.442226 h -2.2058 v -7.789576 h 2.44557 q 1.22544,0 2.12588,0.436898 0.90044,0.431571 1.39594,1.284055 0.49551,0.847156 0.49551,2.099243 z m -1.71563,0.04262 q 0,-0.86314 -0.25574,-1.417255 -0.25042,-0.559443 -0.74593,-0.825844 -0.49017,-0.266402 -1.21479,-0.266402 h -0.87912 v 5.072282 h 0.70863 q 1.20946,0 1.79554,-0.644691 0.59141,-0.644691 0.59141,-1.91809 z"
             style="font-weight:bold;-inkscape-font-specification:'Open Sans Bold';stroke-width:1.07408"
             id="path15708" />
          <path
             d="m 119.1446,90.824821 h -4.4862 v -7.789576 h 4.4862 v 1.353319 h -2.83451 v 1.710297 h 2.63737 v 1.353319 h -2.63737 v 2.008666 h 2.83451 z"
             style="font-weight:bold;-inkscape-font-specification:'Open Sans Bold';stroke-width:1.07408"
             id="path15710" />
          <path
             d="m 130.06706,86.855441 q 0,1.316023 -0.50617,2.200475 -0.50083,0.879125 -1.45455,1.326679 -0.95371,0.442226 -2.29638,0.442226 h -2.2058 v -7.789576 h 2.44556 q 1.22545,0 2.12589,0.436898 0.90043,0.431571 1.39594,1.284055 0.49551,0.847156 0.49551,2.099243 z m -1.71563,0.04262 q 0,-0.86314 -0.25574,-1.417255 -0.25042,-0.559443 -0.74593,-0.825844 -0.49018,-0.266402 -1.21479,-0.266402 h -0.87912 v 5.072282 h 0.70863 q 1.20946,0 1.79554,-0.644691 0.59141,-0.644691 0.59141,-1.91809 z"
             style="font-weight:bold;-inkscape-font-specification:'Open Sans Bold';stroke-width:1.07408"
             id="path15712" />
          <path
             d="m 136.16764,90.824821 h -4.48619 v -7.789576 h 4.48619 v 1.353319 h -2.83451 v 1.710297 h 2.63738 v 1.353319 h -2.63738 v 2.008666 h 2.83451 z"
             style="font-weight:bold;-inkscape-font-specification:'Open Sans Bold';stroke-width:1.07408"
             id="path15714" />
          <path
             d="m 143.92526,90.824821 -1.87547,-6.111247 h -0.048 q 0.0107,0.218449 0.032,0.660675 0.0266,0.436899 0.048,0.932405 0.0213,0.495507 0.0213,0.895109 v 3.623058 h -1.47586 v -7.789576 h 2.24843 l 1.84349,5.956735 h 0.032 l 1.95539,-5.956735 h 2.24842 v 7.789576 h -1.5398 v -3.686995 q 0,-0.367633 0.0107,-0.847156 0.016,-0.479522 0.0373,-0.911093 0.0213,-0.436898 0.032,-0.655347 h -0.048 l -2.00866,6.100591 z"
             style="font-weight:bold;-inkscape-font-specification:'Open Sans Bold';stroke-width:1.07408"
             id="path15716" />
          <path
             d="m 155.40183,90.824821 h -4.4862 v -7.789576 h 4.4862 v 1.353319 h -2.83451 v 1.710297 h 2.63737 v 1.353319 h -2.63737 v 2.008666 h 2.83451 z"
             style="font-weight:bold;-inkscape-font-specification:'Open Sans Bold';stroke-width:1.07408"
             id="path15718" />
          <path
             d="m 163.48977,86.855441 q 0,1.316023 -0.50616,2.200475 -0.50084,0.879125 -1.45455,1.326679 -0.95372,0.442226 -2.29638,0.442226 h -2.20581 v -7.789576 h 2.44557 q 1.22544,0 2.12588,0.436898 0.90044,0.431571 1.39594,1.284055 0.49551,0.847156 0.49551,2.099243 z m -1.71562,0.04262 q 0,-0.86314 -0.25575,-1.417255 -0.25042,-0.559443 -0.74592,-0.825844 -0.49018,-0.266402 -1.21479,-0.266402 h -0.87913 v 5.072282 h 0.70863 q 1.20946,0 1.79554,-0.644691 0.59142,-0.644691 0.59142,-1.91809 z"
             style="font-weight:bold;-inkscape-font-specification:'Open Sans Bold';stroke-width:1.07408"
             id="path15720" />
          <path
             d="m 165.10417,90.824821 v -7.789576 h 1.65169 v 7.789576 z"
             style="font-weight:bold;-inkscape-font-specification:'Open Sans Bold';stroke-width:1.07408"
             id="path15722" />
          <path
             d="m 172.02528,84.297988 q -0.4742,0 -0.84183,0.186481 -0.36231,0.181153 -0.61273,0.527474 -0.24508,0.346322 -0.37296,0.836501 -0.12787,0.490178 -0.12787,1.102901 0,0.825845 0.20246,1.411928 0.2078,0.580755 0.63937,0.88978 0.43157,0.303698 1.11356,0.303698 0.47419,0 0.94838,-0.106561 0.47953,-0.10656 1.03897,-0.303697 v 1.385287 q -0.51682,0.213121 -1.01765,0.303698 -0.50084,0.0959 -1.12422,0.0959 -1.20413,0 -1.98202,-0.495507 -0.77257,-0.500834 -1.14553,-1.395943 -0.37296,-0.900436 -0.37296,-2.099243 0,-0.884452 0.23976,-1.61972 0.23976,-0.735268 0.7033,-1.273399 0.46354,-0.53813 1.14553,-0.831172 0.68198,-0.293041 1.56644,-0.293041 0.58075,0 1.16151,0.149184 0.58608,0.143857 1.11888,0.399602 l -0.5328,1.342663 q -0.4369,-0.207793 -0.87913,-0.362305 -0.44222,-0.154513 -0.86846,-0.154513 z"
             style="font-weight:bold;-inkscape-font-specification:'Open Sans Bold';stroke-width:1.07408"
             id="path15724" />
          <path
             d="m 175.66964,90.824821 v -7.789576 h 1.65169 v 7.789576 z"
             style="font-weight:bold;-inkscape-font-specification:'Open Sans Bold';stroke-width:1.07408"
             id="path15726" />
          <path
             d="m 186.1925,90.824821 h -2.09924 l -3.38863,-5.892798 h -0.048 q 0.0213,0.367634 0.0373,0.740596 0.016,0.372962 0.032,0.745924 0.016,0.367634 0.032,0.740596 v 3.665682 h -1.47586 v -7.789576 h 2.08325 l 3.3833,5.83419 h 0.0373 q -0.0107,-0.362306 -0.0266,-0.719283 -0.016,-0.356978 -0.032,-0.713956 -0.0107,-0.356978 -0.0213,-0.713956 v -3.686995 h 1.48652 z"
             style="font-weight:bold;-inkscape-font-specification:'Open Sans Bold';stroke-width:1.07408"
             id="path15728" />
          <path
             d="m 192.92179,90.824821 -0.56477,-1.854153 h -2.83984 l -0.56477,1.854153 h -1.77956 l 2.74926,-7.821544 h 2.01933 l 2.75991,7.821544 z m -0.95904,-3.23944 -0.56477,-1.81153 q -0.0533,-0.181153 -0.14386,-0.463538 -0.0853,-0.287714 -0.17582,-0.580755 -0.0853,-0.29837 -0.13853,-0.516819 -0.0533,0.218449 -0.14919,0.543459 -0.0906,0.319682 -0.17582,0.607395 -0.0853,0.287714 -0.12255,0.410258 l -0.55944,1.81153 z"
             style="font-weight:bold;-inkscape-font-specification:'Open Sans Bold';stroke-width:1.07408"
             id="path15730" />
        </g>
        <g
           aria-label="UNIVERSIDADE DO PORTO"
           id="text1224"
           style="font-size:11.3671px;line-height:1.25;font-family:'Open Sans';-inkscape-font-specification:'Open Sans, Normal';font-variant-ligatures:none;letter-spacing:0px;word-spacing:0px;stroke-width:1.07408">
          <path
             d="m 62.314657,96.029878 v 5.250622 q 0,0.8603 -0.349672,1.5319 -0.344121,0.67159 -1.043464,1.06011 -0.699343,0.38297 -1.753908,0.38297 -1.504143,0 -2.292291,-0.8159 -0.782598,-0.8159 -0.782598,-2.18128 v -5.228422 h 0.949108 v 5.256172 q 0,1.03237 0.543933,1.59295 0.549484,0.56058 1.637351,0.56058 0.743746,0 1.215525,-0.26641 0.477329,-0.27197 0.704893,-0.75485 0.233115,-0.48843 0.233115,-1.12672 v -5.261722 z"
             id="path15733"
             style="stroke-width:1.07408" />
          <path
             d="M 70.806679,104.14448 H 69.718812 L 65.29519,97.328658 h -0.0444 q 0.01665,0.271967 0.03885,0.621639 0.0222,0.344121 0.0333,0.738195 0.01665,0.388524 0.01665,0.793699 v 4.662289 h -0.876954 v -8.114602 h 1.082316 l 4.406972,6.793622 h 0.03885 q -0.0111,-0.19427 -0.02775,-0.54949 -0.01665,-0.36077 -0.0333,-0.77149 -0.0111,-0.41628 -0.0111,-0.7715 v -4.701142 h 0.888054 z"
             id="path15735"
             style="stroke-width:1.07408" />
          <path
             d="m 73.021266,104.14448 v -8.114602 h 0.943558 v 8.114602 z"
             id="path15737"
             style="stroke-width:1.07408" />
          <path
             d="m 81.86296,96.029878 -2.913929,8.114602 h -0.949109 l -2.913929,-8.114602 h 0.987961 l 1.898216,5.344982 q 0.116558,0.32192 0.205363,0.61609 0.09436,0.29416 0.16651,0.56613 0.07215,0.27197 0.127658,0.52728 0.0555,-0.25531 0.127658,-0.52728 0.07215,-0.27752 0.16651,-0.57169 0.09436,-0.29971 0.210913,-0.62718 l 1.887117,-5.328332 z"
             id="path15739"
             style="stroke-width:1.07408" />
          <path
             d="m 87.491007,104.14448 h -4.517978 v -8.114602 h 4.517978 v 0.832552 h -3.57442 v 2.625311 h 3.369058 v 0.821449 h -3.369058 v 3.00274 h 3.57442 z"
             id="path15741"
             style="stroke-width:1.07408" />
          <path
             d="m 91.481702,96.029878 q 0.999062,0 1.648452,0.249766 0.65494,0.244215 0.97686,0.749296 0.32192,0.505081 0.32192,1.287679 0,0.64384 -0.233115,1.076766 -0.233114,0.427377 -0.610537,0.693795 -0.377424,0.26641 -0.8048,0.41072 l 2.225687,3.64658 h -1.098968 l -1.987022,-3.38571 h -1.687304 v 3.38571 h -0.943558 v -8.114602 z m -0.0555,0.815901 h -1.193324 v 3.113741 h 1.28768 q 0.993511,0 1.459739,-0.405175 0.471779,-0.405175 0.471779,-1.193323 0,-0.827001 -0.49953,-1.171122 -0.493981,-0.344121 -1.526344,-0.344121 z"
             id="path15743"
             style="stroke-width:1.07408" />
          <path
             d="m 100.88398,101.98539 q 0,0.72155 -0.36077,1.23218 -0.35522,0.50508 -0.999062,0.7715 -0.64384,0.26641 -1.515243,0.26641 -0.460679,0 -0.871404,-0.0444 -0.410725,-0.0444 -0.754846,-0.12766 -0.344122,-0.0833 -0.604988,-0.20536 v -0.9047 q 0.416276,0.17206 1.015713,0.32192 0.599437,0.1443 1.254377,0.1443 0.610538,0 1.032364,-0.16096 0.421826,-0.16651 0.638289,-0.47177 0.222014,-0.31082 0.222014,-0.74375 0,-0.41628 -0.183162,-0.69379 -0.183161,-0.28307 -0.610537,-0.51063 -0.421826,-0.23312 -1.154471,-0.49398 -0.516182,-0.18317 -0.910256,-0.399629 -0.394075,-0.222014 -0.660491,-0.499531 -0.266416,-0.277517 -0.405175,-0.64384 -0.133208,-0.366322 -0.133208,-0.838101 0,-0.64939 0.32747,-1.110069 0.33302,-0.466228 0.915806,-0.710443 0.588337,-0.249766 1.348733,-0.249766 0.64939,0 1.198874,0.122108 0.555033,0.122107 1.015713,0.32747 l -0.29417,0.81035 q -0.438475,-0.183162 -0.932456,-0.305269 -0.48843,-0.122108 -1.010162,-0.122108 -0.521732,0 -0.882504,0.15541 -0.355222,0.149859 -0.543934,0.427376 -0.188711,0.277517 -0.188711,0.660491 0,0.427376 0.177611,0.710444 0.183161,0.283067 0.577235,0.505081 0.399625,0.216463 1.054565,0.455128 0.715994,0.260866 1.215525,0.555038 0.499531,0.28861 0.760401,0.71044 0.26086,0.41628 0.26086,1.06011 z"
             id="path15745"
             style="stroke-width:1.07408" />
          <path
             d="m 102.53798,104.14448 v -8.114602 h 0.94356 v 8.114602 z"
             id="path15747"
             style="stroke-width:1.07408" />
          <path
             d="m 112.15673,100.00947 q 0,1.37094 -0.49954,2.29229 -0.49953,0.91581 -1.44863,1.38204 -0.94356,0.46068 -2.2923,0.46068 h -2.20348 v -8.114602 h 2.4477 q 1.23773,0 2.13133,0.455128 0.89361,0.449578 1.37649,1.337633 0.48843,0.882504 0.48843,2.186831 z m -0.99352,0.0333 q 0,-1.093422 -0.36632,-1.803866 -0.36077,-0.710443 -1.06566,-1.054565 -0.69935,-0.349671 -1.71506,-0.349671 h -1.35983 v 6.499452 h 1.14892 q 1.6762,0 2.5143,-0.827 0.84365,-0.827 0.84365,-2.46435 z"
             id="path15749"
             style="stroke-width:1.07408" />
          <path
             d="m 119.05025,104.14448 -0.99906,-2.57536 h -3.2525 l -0.99351,2.57536 h -0.95466 l 3.17479,-8.147904 h 0.8492 l 3.1526,8.147904 z m -1.28213,-3.41346 -0.94911,-2.55871 q -0.0333,-0.09991 -0.11101,-0.32747 -0.0721,-0.227564 -0.14985,-0.471779 -0.0777,-0.244215 -0.12766,-0.394074 -0.0555,0.227564 -0.12211,0.455128 -0.061,0.222013 -0.12211,0.416275 -0.061,0.188712 -0.10545,0.32192 l -0.96576,2.55871 z"
             id="path15751"
             style="stroke-width:1.07408" />
          <path
             d="m 127.59222,100.00947 q 0,1.37094 -0.49953,2.29229 -0.49953,0.91581 -1.44864,1.38204 -0.94355,0.46068 -2.29229,0.46068 h -2.20348 v -8.114602 h 2.4477 q 1.23772,0 2.13133,0.455128 0.8936,0.449578 1.37648,1.337633 0.48843,0.882504 0.48843,2.186831 z m -0.99351,0.0333 q 0,-1.093422 -0.36632,-1.803866 -0.36077,-0.710443 -1.06567,-1.054565 -0.69934,-0.349671 -1.71505,-0.349671 h -1.35984 v 6.499452 h 1.14893 q 1.6762,0 2.5143,-0.827 0.84365,-0.827 0.84365,-2.46435 z"
             id="path15753"
             style="stroke-width:1.07408" />
          <path
             d="m 133.91406,104.14448 h -4.51797 v -8.114602 h 4.51797 v 0.832552 h -3.57442 v 2.625311 h 3.36906 v 0.821449 h -3.36906 v 3.00274 h 3.57442 z"
             id="path15755"
             style="stroke-width:1.07408" />
          <path
             d="m 145.10911,100.00947 q 0,1.37094 -0.49953,2.29229 -0.49953,0.91581 -1.44864,1.38204 -0.94356,0.46068 -2.29229,0.46068 h -2.20349 v -8.114602 h 2.4477 q 1.23773,0 2.13133,0.455128 0.89361,0.449578 1.37649,1.337633 0.48843,0.882504 0.48843,2.186831 z m -0.99351,0.0333 q 0,-1.093422 -0.36633,-1.803866 -0.36077,-0.710443 -1.06566,-1.054565 -0.69935,-0.349671 -1.71506,-0.349671 h -1.35983 v 6.499452 h 1.14892 q 1.6762,0 2.5143,-0.827 0.84366,-0.827 0.84366,-2.46435 z"
             id="path15757"
             style="stroke-width:1.07408" />
          <path
             d="m 153.9508,100.07608 q 0,0.93801 -0.23867,1.7095 -0.23866,0.76595 -0.71044,1.32098 -0.46623,0.54949 -1.16002,0.84921 -0.6938,0.29971 -1.6096,0.29971 -0.94356,0 -1.64845,-0.29971 -0.69935,-0.29972 -1.16558,-0.85476 -0.46067,-0.55503 -0.69379,-1.32653 -0.22756,-0.7715 -0.22756,-1.7095 0,-1.24328 0.41072,-2.181288 0.41073,-0.938007 1.24328,-1.459739 0.8381,-0.521733 2.09803,-0.521733 1.20442,0 2.02587,0.516182 0.827,0.516182 1.24883,1.45419 0.42738,0.932457 0.42738,2.203488 z m -6.4606,0 q 0,1.03236 0.29417,1.78721 0.29416,0.75484 0.89915,1.16557 0.61054,0.41072 1.54855,0.41072 0.94356,0 1.54299,-0.41072 0.60499,-0.41073 0.89361,-1.16557 0.28862,-0.75485 0.28862,-1.78721 0,-1.570749 -0.6605,-2.453254 -0.65494,-0.888054 -2.04807,-0.888054 -0.94356,0 -1.5541,0.405175 -0.61053,0.405175 -0.91025,1.154471 -0.29417,0.743745 -0.29417,1.781662 z"
             id="path15759"
             style="stroke-width:1.07408" />
          <path
             d="m 160.82767,96.029878 q 1.57075,0 2.29229,0.616088 0.7271,0.610538 0.7271,1.753908 0,0.516182 -0.17206,0.982411 -0.16651,0.460678 -0.54394,0.815895 -0.37742,0.34968 -0.99351,0.55504 -0.61053,0.19981 -1.49859,0.19981 H 159.651 v 3.19145 h -0.94356 v -8.114602 z m -0.0888,0.8048 H 159.651 v 3.308002 h 0.8825 q 0.77705,0 1.29323,-0.166509 0.52174,-0.16651 0.7826,-0.538383 0.26087,-0.377423 0.26087,-0.999061 0,-0.81035 -0.51618,-1.204425 -0.51618,-0.399624 -1.61515,-0.399624 z"
             id="path15761"
             style="stroke-width:1.07408" />
          <path
             d="m 172.5833,100.07608 q 0,0.93801 -0.23867,1.7095 -0.23866,0.76595 -0.71044,1.32098 -0.46623,0.54949 -1.16002,0.84921 -0.6938,0.29971 -1.6096,0.29971 -0.94356,0 -1.64845,-0.29971 -0.69935,-0.29972 -1.16558,-0.85476 -0.46067,-0.55503 -0.69379,-1.32653 -0.22756,-0.7715 -0.22756,-1.7095 0,-1.24328 0.41072,-2.181288 0.41073,-0.938007 1.24328,-1.459739 0.8381,-0.521733 2.09803,-0.521733 1.20442,0 2.02587,0.516182 0.827,0.516182 1.24883,1.45419 0.42738,0.932457 0.42738,2.203488 z m -6.4606,0 q 0,1.03236 0.29417,1.78721 0.29416,0.75484 0.89915,1.16557 0.61054,0.41072 1.54855,0.41072 0.94356,0 1.54299,-0.41072 0.60499,-0.41073 0.89361,-1.16557 0.28861,-0.75485 0.28861,-1.78721 0,-1.570749 -0.66049,-2.453254 -0.65494,-0.888054 -2.04807,-0.888054 -0.94356,0 -1.5541,0.405175 -0.61054,0.405175 -0.91025,1.154471 -0.29417,0.743745 -0.29417,1.781662 z"
             id="path15763"
             style="stroke-width:1.07408" />
          <path
             d="m 176.57954,96.029878 q 0.99906,0 1.64845,0.249766 0.65494,0.244215 0.97686,0.749296 0.32192,0.505081 0.32192,1.287679 0,0.64384 -0.23312,1.076766 -0.23311,0.427377 -0.61053,0.693795 -0.37743,0.26641 -0.8048,0.41072 l 2.22568,3.64658 h -1.09896 l -1.98703,-3.38571 h -1.6873 v 3.38571 h -0.94356 v -8.114602 z m -0.0555,0.815901 h -1.19332 v 3.113741 h 1.28768 q 0.99351,0 1.45974,-0.405175 0.47178,-0.405175 0.47178,-1.193323 0,-0.827001 -0.49953,-1.171122 -0.49398,-0.344121 -1.52635,-0.344121 z"
             id="path15765"
             style="stroke-width:1.07408" />
          <path
             d="m 183.89489,104.14448 h -0.94911 v -7.28205 h -2.55316 v -0.832552 h 6.04433 v 0.832552 h -2.54206 z"
             id="path15767"
             style="stroke-width:1.07408" />
          <path
             d="m 194.70141,100.07608 q 0,0.93801 -0.23867,1.7095 -0.23866,0.76595 -0.71044,1.32098 -0.46623,0.54949 -1.16002,0.84921 -0.6938,0.29971 -1.6096,0.29971 -0.94356,0 -1.64845,-0.29971 -0.69935,-0.29972 -1.16558,-0.85476 -0.46067,-0.55503 -0.69379,-1.32653 -0.22756,-0.7715 -0.22756,-1.7095 0,-1.24328 0.41072,-2.181288 0.41073,-0.938007 1.24328,-1.459739 0.8381,-0.521733 2.09803,-0.521733 1.20442,0 2.02587,0.516182 0.827,0.516182 1.24883,1.45419 0.42738,0.932457 0.42738,2.203488 z m -6.4606,0 q 0,1.03236 0.29417,1.78721 0.29417,0.75484 0.89915,1.16557 0.61054,0.41072 1.54855,0.41072 0.94356,0 1.54299,-0.41072 0.60499,-0.41073 0.89361,-1.16557 0.28862,-0.75485 0.28862,-1.78721 0,-1.570749 -0.6605,-2.453254 -0.65494,-0.888054 -2.04807,-0.888054 -0.94356,0 -1.5541,0.405175 -0.61053,0.405175 -0.91025,1.154471 -0.29417,0.743745 -0.29417,1.781662 z"
             id="path15769"
             style="stroke-width:1.07408" />
        </g>
        <rect
           style="display:inline;fill:none;fill-opacity:0;stroke:#000000;stroke-width:1.07577;stroke-linejoin:round;stroke-dasharray:none;stroke-opacity:1"
           id="rect1294"
           width="40.204193"
           height="22.01656"
           x="8.9662104"
           y="82.238922" />
        <rect
           style="fill:#fff500;fill-opacity:1;stroke:none;stroke-width:1.88767;stroke-linejoin:round"
           id="rect2093-0"
           width="38.090553"
           height="9.8982258"
           x="10.022981"
           y="93.41111" />
        <g
           aria-label="FMUP"
           transform="scale(1.1293871,0.885436)"
           id="text1228"
           style="font-size:12.1286px;line-height:1.25;font-family:'Open Sans';-inkscape-font-specification:'Open Sans, Normal';font-variant-ligatures:none;letter-spacing:0px;word-spacing:0px;stroke-width:1.07408">
          <path
             d="M 11.178431,103.40173 H 8.8747079 v -8.658206 h 5.1167531 v 1.877327 h -2.81303 v 1.652285 h 2.59391 v 1.877324 h -2.59391 z"
             style="font-weight:800;-inkscape-font-specification:'Open Sans Ultra-Bold';stroke-width:1.07408"
             id="path15772" />
          <path
             d="m 19.185202,103.40173 -1.770728,-6.23604 h -0.0533 q 0.02369,0.242809 0.04738,0.657361 0.02961,0.414552 0.0533,0.894247 0.02369,0.479696 0.02369,0.923859 v 3.760573 h -2.072759 v -8.658206 h 3.115061 l 1.806261,6.147206 h 0.04738 l 1.770729,-6.147206 h 3.120982 v 8.658206 h -2.149747 v -3.796106 q 0,-0.40863 0.01185,-0.876481 0.01777,-0.473774 0.03553,-0.888325 0.02369,-0.420474 0.04145,-0.663283 h -0.0533 l -1.747039,6.224195 z"
             style="font-weight:800;-inkscape-font-specification:'Open Sans Ultra-Bold';stroke-width:1.07408"
             id="path15774" />
          <path
             d="m 34.499928,94.743524 v 5.211508 q 0,1.089678 -0.414551,1.895098 -0.414552,0.79949 -1.243656,1.23773 -0.829103,0.43232 -2.078681,0.43232 -1.788494,0 -2.730119,-0.91794 -0.941625,-0.91794 -0.941625,-2.59391 v -5.264806 h 2.351101 v 5.08122 q 0,0.917936 0.343486,1.332486 0.343485,0.41455 1.01269,0.41455 0.479696,0 0.781727,-0.17766 0.30203,-0.18359 0.43824,-0.57445 0.142132,-0.39086 0.142132,-1.00677 v -5.069376 z"
             style="font-weight:800;-inkscape-font-specification:'Open Sans Ultra-Bold';stroke-width:1.07408"
             id="path15776" />
          <path
             d="m 39.314652,94.743524 q 1.646363,0 2.463622,0.716582 0.823181,0.716582 0.823181,2.037226 0,0.592217 -0.171743,1.137056 -0.16582,0.54484 -0.550761,0.971236 -0.379019,0.426396 -1.012691,0.675126 -0.62775,0.24873 -1.551608,0.24873 h -0.657361 v 2.87225 h -2.339256 v -8.658206 z m -0.0533,1.889171 h -0.604061 v 1.989849 h 0.461929 q 0.302031,0 0.562606,-0.100677 0.260576,-0.106599 0.414552,-0.337564 0.159899,-0.236886 0.159899,-0.627749 0,-0.40863 -0.242809,-0.663283 -0.242809,-0.260576 -0.752116,-0.260576 z"
             style="font-weight:800;-inkscape-font-specification:'Open Sans Ultra-Bold';stroke-width:1.07408"
             id="path15778" />
        </g>
      </g>
    </g>
    <g
       id="layer1-8"
       transform="matrix(0.77771402,0,0,0.77771402,27.359192,17.888855)"
       style="stroke-width:1.28582">
      <g
         id="g1057"
         transform="matrix(1.0682943,0,0,1.0682943,-2.9938315,-3.0540591)"
         style="fill:#2450a3;fill-opacity:1;stroke-width:1.20362">
        <path
           style="fill:#2450a3;fill-opacity:1;stroke-width:1.20362"
           d="m 76.882768,94.152592 c -0.65077,-0.175007 -0.986669,-0.661046 -0.986436,-1.42735 3.08e-4,-1.016545 0.635106,-1.634409 1.546518,-1.505281 0.646509,0.0916 1.004669,0.570247 1.004669,1.342627 v 0.285647 h -0.986857 -0.986857 l 0.02049,0.161433 c 0.04811,0.379046 0.253551,0.616368 0.606926,0.701145 0.19332,0.04639 0.68403,0.02095 0.898603,-0.04663 0.167271,-0.05262 0.177646,-0.04797 0.228253,0.103415 0.0539,0.161223 0.04397,0.272837 -0.02771,0.311206 -0.213184,0.114092 -1.003198,0.158318 -1.317596,0.07374 z m 1.011267,-1.82593 c 2.4e-5,-0.376676 -0.304632,-0.678534 -0.68318,-0.676963 -0.361309,0.0017 -0.624578,0.239487 -0.697664,0.630626 l -0.02568,0.137432 h 0.703259 0.703259 z m 2.327989,1.831213 c -0.458955,-0.113722 -0.689805,-0.392686 -0.69118,-0.835235 -0.0021,-0.667777 0.488014,-1.024661 1.359973,-0.99021 l 0.330553,0.01306 -1.84e-4,-0.09455 c -5.11e-4,-0.262545 -0.131352,-0.475727 -0.335454,-0.546422 -0.151282,-0.05238 -0.593111,-0.04298 -0.821905,0.01754 -0.1039,0.02752 -0.195086,0.04996 -0.202621,0.04996 -0.02494,0 -0.08965,-0.228794 -0.09508,-0.336174 -0.0065,-0.129094 0.09353,-0.167717 0.557524,-0.215186 0.67302,-0.06883 1.12557,0.08957 1.313121,0.459683 0.114908,0.226757 0.137587,0.465959 0.137852,1.453092 l 2.46e-4,0.915533 -0.07071,0.02681 c -0.284667,0.108245 -1.17703,0.157613 -1.482117,0.08203 z m 0.899411,-0.437569 0.09994,-0.01796 v -0.455368 -0.455359 l -0.203291,-0.02178 c -0.395388,-0.04231 -0.748974,0.04672 -0.860352,0.216698 -0.129291,0.19732 -0.07473,0.562458 0.101288,0.677785 0.146874,0.09624 0.507662,0.119649 0.86242,0.05595 z m 17.838769,0.432286 c -0.65077,-0.175007 -0.98667,-0.661046 -0.986437,-1.42735 3.09e-4,-1.016545 0.635106,-1.634409 1.546518,-1.505281 0.646515,0.0916 1.004675,0.570247 1.004675,1.342627 v 0.285647 h -0.986863 -0.986856 l 0.02049,0.161433 c 0.04811,0.379045 0.25355,0.616368 0.606925,0.701145 0.19332,0.04639 0.68403,0.02095 0.898604,-0.04663 0.16728,-0.05262 0.17765,-0.04797 0.22826,0.103415 0.0539,0.161223 0.044,0.272837 -0.0277,0.311206 -0.21319,0.114092 -1.003204,0.158318 -1.317602,0.07374 z m 1.011266,-1.82593 c -2.1e-5,-0.376676 -0.304631,-0.678534 -0.683179,-0.676963 -0.36131,0.0017 -0.624606,0.239482 -0.697665,0.630626 l -0.02567,0.137432 h 0.70326 0.703259 z m 2.03587,1.853326 c -0.0423,-0.0071 -0.14951,-0.03325 -0.2383,-0.05822 -0.19979,-0.0561 -0.20029,-0.06024 -0.0557,-0.462927 0.009,-0.02478 0.0734,-0.01804 0.22177,0.02303 0.58519,0.162261 1.11762,2.16e-4 1.11762,-0.340191 0,-0.263583 -0.0763,-0.325857 -0.68114,-0.555806 -0.5374,-0.204295 -0.73032,-0.433131 -0.69487,-0.824179 0.0392,-0.432374 0.3142,-0.676846 0.83573,-0.742969 0.39047,-0.04954 1.05123,0.06551 1.02183,0.177867 -0.007,0.02884 -0.031,0.118562 -0.052,0.199324 -0.0485,0.186222 -0.0389,0.182598 -0.29223,0.110357 -0.4169,-0.118894 -0.86209,-0.04323 -0.9324,0.15849 -0.0852,0.244472 0.0457,0.383135 0.5223,0.553038 0.67793,0.241696 0.83169,0.402189 0.83169,0.868173 0,0.440187 -0.26075,0.740293 -0.75878,0.873332 -0.14236,0.03802 -0.66498,0.05072 -0.84562,0.02064 z m 3.66905,-0.02734 c -0.65077,-0.175007 -0.98667,-0.661049 -0.98644,-1.427352 3.1e-4,-1.016546 0.63511,-1.63441 1.54652,-1.505282 0.64651,0.0916 1.00467,0.570247 1.00467,1.342627 v 0.285647 h -0.98686 -0.98686 l 0.0205,0.161433 c 0.0481,0.379053 0.25355,0.616368 0.60693,0.701145 0.19332,0.04639 0.68402,0.02095 0.8986,-0.04663 0.16727,-0.05262 0.17764,-0.04797 0.22826,0.103415 0.0539,0.161217 0.044,0.27284 -0.0277,0.311209 -0.21318,0.114083 -1.0032,0.158318 -1.3176,0.07374 z m 1.01126,-1.825933 c 8e-5,-0.376676 -0.30463,-0.678534 -0.68318,-0.676963 -0.36131,0.0017 -0.62452,0.239498 -0.69766,0.630626 l -0.0257,0.137432 h 0.70327 0.70325 z m 2.35873,1.831216 c -0.45895,-0.113731 -0.6898,-0.392688 -0.69117,-0.835238 -0.002,-0.667776 0.48801,-1.024633 1.35997,-0.990209 l 0.33056,0.01305 -3.1e-4,-0.09455 c -4.7e-4,-0.262545 -0.13136,-0.475727 -0.33545,-0.546421 -0.15129,-0.05238 -0.59312,-0.04298 -0.82191,0.01754 -0.10378,0.02752 -0.19497,0.04996 -0.2025,0.04996 -0.025,0 -0.0897,-0.228794 -0.0951,-0.336174 -0.007,-0.129094 0.0935,-0.167717 0.55752,-0.215185 0.67302,-0.06883 1.12557,0.08957 1.31312,0.459682 0.11491,0.226757 0.1376,0.465959 0.13785,1.453093 l 3.1e-4,0.915534 -0.0707,0.02681 c -0.28466,0.108236 -1.17703,0.157613 -1.48212,0.08203 z m 0.89941,-0.437571 0.0999,-0.01796 v -0.455367 -0.45536 l -0.20331,-0.02178 c -0.39537,-0.04236 -0.74897,0.04672 -0.86034,0.216699 -0.1293,0.197319 -0.0747,0.562457 0.10128,0.677785 0.14688,0.09624 0.50767,0.119648 0.86242,0.05595 z m 5.44651,0.439944 c -0.63729,-0.162817 -0.99701,-0.686121 -0.99701,-1.450379 0,-1.010618 0.6566,-1.596377 1.67199,-1.491615 0.49169,0.05071 0.53506,0.09066 0.44614,0.41086 -0.0312,0.112126 -0.0381,0.117439 -0.1305,0.09946 -0.24221,-0.04714 -0.70013,-0.05603 -0.84193,-0.01629 -0.50358,0.140991 -0.73498,1.047312 -0.41727,1.634334 0.19828,0.366351 0.72034,0.49127 1.30825,0.313047 0.0602,-0.01828 0.12167,0.0987 0.15771,0.300054 0.0199,0.111288 0.019,0.112541 -0.12678,0.164581 -0.19409,0.06933 -0.85341,0.09143 -1.0706,0.0359 z m -43.585334,-0.01147 -0.06918,-0.01332 v -2.007953 -2.007968 l 0.147638,-0.01962 c 0.0812,-0.01081 0.212653,-0.01064 0.292117,2.17e-4 l 0.144478,0.01978 v 0.82605 0.826042 h 0.8456 0.845601 V 90.94592 90.11987 l 0.144478,-0.01978 c 0.07946,-0.01089 0.210916,-0.01097 0.292117,-2.16e-4 l 0.147638,0.01962 v 2.006264 2.006255 l -0.09609,0.01923 c -0.05284,0.01058 -0.141061,0.01923 -0.196026,0.01923 -0.05497,0 -0.143175,-0.0088 -0.196025,-0.01923 l -0.09609,-0.01923 v -0.934004 -0.933995 h -0.845601 -0.8456 v 0.933995 0.934004 l -0.09609,0.01923 c -0.102733,0.02055 -0.305635,0.0194 -0.418957,-0.0026 z m 11.675187,-0.0531 c -0.181257,-0.08441 -0.294417,-0.230423 -0.347078,-0.447892 -0.0227,-0.09376 -0.03071,-0.698594 -0.02486,-1.87569 l 0.0086,-1.737325 0.269054,-0.0089 0.269055,-0.0089 1.84e-4,1.684703 c 9.3e-5,1.028325 0.01216,1.72784 0.03093,1.79541 0.04944,0.177984 0.128343,0.227895 0.356136,0.225302 0.218817,-0.0025 0.207136,-0.01738 0.235556,0.300126 0.01238,0.138419 -0.0098,0.147081 -0.376792,0.147249 -0.211961,9.7e-5 -0.29151,-0.01385 -0.420822,-0.07418 z m 2.62006,0.01076 c -0.172134,-0.07806 -0.263869,-0.162244 -0.34892,-0.320281 -0.06314,-0.117321 -0.06661,-0.167948 -0.07548,-1.097962 l -0.0093,-0.974971 -0.221339,-0.009 c -0.153116,-0.0066 -0.22134,-0.02095 -0.22134,-0.04789 0,-0.05229 0.91217,-1.078919 0.96091,-1.08147 0.02864,-0.0017 0.03844,0.08814 0.03844,0.351602 v 0.353616 h 0.368988 0.36899 v 0.215243 0.215244 h -0.3711 -0.371101 l 0.0098,0.884042 c 0.0086,0.768506 0.01676,0.896752 0.06307,0.981397 0.07199,0.131588 0.218005,0.177042 0.484404,0.150775 l 0.207404,-0.02045 0.01951,0.09754 c 0.04713,0.235645 0.02707,0.326647 -0.07658,0.347375 -0.223492,0.04472 -0.683971,0.01967 -0.826382,-0.0449 z m 2.043342,0.04243 -0.06941,-0.01341 0.0079,-2.050328 0.0079,-2.050332 0.269055,-0.0089 0.269055,-0.0089 v 0.834912 0.83492 l 0.146058,-0.153759 c 0.416778,-0.438753 1.184923,-0.444412 1.499418,-0.01105 0.193117,0.26611 0.206868,0.361695 0.222267,1.544776 l 0.01385,1.064094 -0.09904,0.01976 c -0.121926,0.02433 -0.299766,0.02496 -0.388278,8.29e-4 -0.06577,-0.01764 -0.06643,-0.02576 -0.08011,-0.991234 -0.01507,-1.063032 -0.02635,-1.141841 -0.189008,-1.319326 -0.183187,-0.199888 -0.623657,-0.171 -0.85044,0.05578 -0.226832,0.226832 -0.252539,0.35694 -0.267903,1.355919 -0.01337,0.869126 -0.01447,0.881572 -0.07937,0.898983 -0.07257,0.01949 -0.303391,0.01764 -0.411963,-0.0035 z m 3.70423,8.38e-4 c 0,0 -0.107131,-0.06681 -0.107151,-0.322709 -2.6e-5,-0.344536 -0.01193,-0.333063 0.326445,-0.333063 0.287516,0 0.289822,5.98e-4 0.32217,0.08455 0.0346,0.0898 0.02615,0.511162 -0.011,0.548314 -0.02777,0.02778 -0.530464,0.02291 -0.530464,0.02291 z m 2.557352,-2.6e-5 -0.09994,-0.01385 v -2.009904 -2.009904 l 0.176808,-0.02527 c 0.342101,-0.04889 1.142358,-0.03001 1.34396,0.03167 0.407142,0.124646 0.653958,0.317161 0.807514,0.62986 0.128619,0.261905 0.126531,0.735769 -0.0044,1.004375 -0.104678,0.214703 -0.369078,0.488179 -0.579657,0.599559 -0.07989,0.04223 -0.145245,0.08703 -0.145245,0.09952 0,0.01247 0.25565,0.393028 0.568112,0.845652 l 0.568112,0.822949 -0.129938,0.02161 c -0.07146,0.01191 -0.21658,0.01367 -0.322479,0.0044 l -0.192542,-0.01755 -0.628361,-0.911158 c -0.3456,-0.501139 -0.629966,-0.924128 -0.631932,-0.939973 -0.002,-0.01588 0.08682,-0.05927 0.197292,-0.09647 0.556161,-0.187311 0.814736,-0.50321 0.77912,-0.951844 -0.03782,-0.476483 -0.328014,-0.690962 -0.934875,-0.690962 h -0.28723 v 1.798827 c 0,1.733335 -0.0021,1.798818 -0.05721,1.798818 -0.03146,0 -0.117945,0.0053 -0.192182,0.012 -0.07423,0.0071 -0.179945,0.0062 -0.23491,-0.0018 z m 17.589613,-8.29e-4 -0.0695,-0.01341 0.008,-1.435339 0.008,-1.435344 0.22317,-0.0091 c 0.25182,-0.01022 0.28419,0.0202 0.28419,0.267284 0,0.165032 0.0109,0.164126 0.19725,-0.01629 0.19047,-0.184476 0.40602,-0.267266 0.65453,-0.25138 l 0.14756,0.0095 0.009,0.183212 c 0.0151,0.293046 0.006,0.308118 -0.19402,0.312815 -0.23199,0.0058 -0.41992,0.08289 -0.54969,0.22654 -0.18378,0.203431 -0.20356,0.329059 -0.20356,1.29324 v 0.851542 l -0.0961,0.01923 c -0.1028,0.02057 -0.30559,0.0194 -0.41925,-0.0026 z m 5.82452,8e-6 -0.0694,-0.01341 0.008,-2.050327 0.008,-2.05034 0.26906,-0.0089 0.26905,-0.0089 v 0.834911 0.834921 l 0.14607,-0.15376 c 0.41679,-0.438731 1.18491,-0.444411 1.49941,-0.01105 0.19312,0.266111 0.20687,0.361696 0.22226,1.544777 l 0.0139,1.064092 -0.099,0.01976 c -0.12193,0.02434 -0.29977,0.02496 -0.38828,8.29e-4 -0.0658,-0.01764 -0.0664,-0.02576 -0.0802,-0.991232 -0.015,-1.063033 -0.0264,-1.141841 -0.18901,-1.319326 -0.18318,-0.199889 -0.62366,-0.171 -0.85044,0.05578 -0.22683,0.226831 -0.25253,0.35694 -0.26789,1.355919 -0.0134,0.869125 -0.0145,0.88157 -0.0794,0.898982 -0.0726,0.01949 -0.3034,0.01764 -0.41196,-0.0035 z m 3.70423,8.3e-4 c -0.0962,-0.01058 -0.10663,-0.06651 -0.10715,-0.322709 -6.8e-4,-0.344543 -0.0119,-0.333071 0.32645,-0.333071 0.28751,0 0.28981,5.98e-4 0.32217,0.08455 0.0346,0.0898 0.0261,0.511159 -0.0109,0.548311 -0.0278,0.02778 -0.44541,0.03229 -0.53047,0.02293 z"
           id="path1033" />
        <path
           style="fill:#2450a3;fill-opacity:1;stroke-width:1.20362"
           d="m 68.058934,86.782439 c -3.633509,-0.912379 -5.239216,-5.578754 -3.291227,-9.564693 1.041959,-2.132035 3.661519,-3.205006 6.418566,-2.629042 1.31826,0.275392 1.319392,0.275836 1.318759,0.517382 -0.0027,1.024718 -0.346833,1.385936 -1.127688,1.183596 -2.981002,-0.772455 -5.034469,0.618767 -5.305704,3.594611 -0.38357,4.208323 1.881051,6.248984 5.655149,5.095883 0.524096,-0.160128 1.181786,0.728631 0.962354,1.30046 -0.168362,0.438742 -3.460466,0.795526 -4.630209,0.501803 z m 38.485886,0.0025 c -0.89465,-0.193529 -1.22354,-0.398019 -1.15194,-0.716207 0.29001,-1.288756 0.33664,-1.358348 0.79757,-1.190202 2.68321,0.978825 4.78738,0.280213 4.78738,-1.589475 0,-1.16168 -0.25864,-1.400488 -2.50418,-2.31215 -5.18061,-2.10327 -2.9675,-7.418608 2.6625,-6.394659 1.24106,0.225716 1.40652,0.315444 1.33571,0.724346 -0.20969,1.210779 -0.18377,1.191707 -1.2453,0.91602 -2.58109,-0.67033 -4.53512,0.690959 -3.24262,2.258992 0.32599,0.395477 0.5449,0.51514 2.25505,1.232684 5.65085,2.370969 2.49583,8.409672 -3.69417,7.070651 z m 13.93232,0.04202 c 0,0 -0.4875,-0.130154 -0.82534,-0.230572 l -0.61423,-0.182578 0.0672,-0.452616 c 0.0806,-0.543132 0.33479,-1.183377 0.46978,-1.183377 0.0535,0 0.23097,0.05257 0.39439,0.116822 2.43626,0.957861 4.78339,0.164079 4.78275,-1.617489 -4.3e-4,-1.029187 -0.464,-1.442847 -2.58576,-2.307094 -2.21751,-0.903244 -2.74493,-1.530768 -2.74331,-3.263947 0.002,-1.711729 0.95454,-2.797041 2.77489,-3.160353 1.43818,-0.287038 4.03201,0.102671 4.03201,0.605789 0,0.165123 -0.29548,1.170174 -0.37248,1.266971 -0.0139,0.01747 -0.40678,-0.06565 -0.87307,-0.184709 -2.10422,-0.537256 -3.48135,-0.07344 -3.58764,1.208318 -0.0848,1.022381 0.29702,1.362253 2.56391,2.282289 1.89796,0.770303 2.561,1.464456 2.80322,2.934755 0.27608,1.675871 -0.65766,3.22462 -2.40637,3.991304 -0.38713,0.169728 -1.50531,0.291678 -2.26823,0.311839 -0.53894,0.01424 -1.61172,-0.135352 -1.61172,-0.135352 z M 74.796414,86.716766 c -0.04086,-0.04086 -0.07429,-2.775522 -0.07429,-6.077034 v -6.002747 l 0.923544,0.0305 0.923544,0.0305 v 6.01623 6.016229 l -0.849257,0.03031 c -0.467093,0.01667 -0.882688,-0.0031 -0.923544,-0.04398 z m 8.184294,-1.560242 C 82.444031,84.261846 82.004932,83.478153 81.899384,83.310773 81.793836,83.143393 81.295122,82.259367 80.685583,81.234499 80.076044,80.20963 79.57733,79.354383 79.57733,79.33395 c 0,-0.02043 -0.213734,-0.389202 -0.474965,-0.819485 l -0.474966,-0.782332 v -1.367552 c 0,-0.752153 0.02839,-1.395943 0.06309,-1.430644 0.08181,-0.08181 0.359099,0.02437 0.359099,0.137517 0,0.04786 0.356224,0.688796 0.791609,1.424299 0.435385,0.735503 0.791609,1.351688 0.791609,1.369301 0,0.01761 0.432242,0.76087 0.960536,1.651684 0.528296,0.890813 1.105934,1.880891 1.283642,2.200174 0.177707,0.319282 0.457011,0.794247 0.620676,1.055479 l 0.297572,0.474965 0.002,-4.134122 c 0.0024,-4.90182 -0.09004,-4.468031 0.951937,-4.468031 1.049192,0 0.949931,-0.630283 0.949931,6.031801 0,6.574002 0.07512,6.106206 -0.980573,6.106206 h -0.76205 z m 7.542342,1.560242 c -0.04086,-0.04086 -0.07429,-2.393701 -0.07429,-5.228542 V 76.33397 h -1.519152 c -1.718716,0 -1.648386,0.03758 -1.645669,-0.879403 0.0026,-0.872527 -0.3025,-0.815211 4.174551,-0.784265 l 4.003795,0.02768 0.03166,0.66889 c 0.04579,0.967246 0.04604,0.967103 -1.679584,0.967103 h -1.463752 l -0.02738,5.198233 -0.02738,5.198233 -0.849257,0.03031 c -0.467093,0.01667 -0.882688,-0.0031 -0.923544,-0.04398 z m 6.642134,-0.169594 c -0.08371,-0.312401 -0.08642,-11.517208 -0.0028,-11.735014 0.05653,-0.147316 0.452367,-0.166955 3.365226,-0.166955 h 3.30116 l 0.0636,0.237483 c 0.36625,1.366675 0.21916,1.451284 -2.52311,1.451284 h -2.37112 v 1.583218 1.583218 h 1.78569 c 2.2503,0 2.11959,-0.05602 2.11959,0.90845 v 0.780316 h -1.95264 -1.95264 v 1.950726 1.950725 l 2.50677,0.0283 2.50676,0.0283 v 0.791609 0.791609 l -3.39123,0.02783 -3.391237,0.02783 z m 17.987736,0.03605 c -0.12054,-0.225222 -0.16198,-11.263832 -0.0439,-11.704454 0.0619,-0.23099 0.10391,-0.240091 0.97488,-0.211095 l 0.91021,0.0303 v 6.01623 6.016229 l -0.86482,0.03056 c -0.77053,0.02723 -0.87698,0.0078 -0.97632,-0.17777 z"
           id="path181" />
      </g>
      <text
         xml:space="preserve"
         style="font-style:normal;font-variant:normal;font-weight:normal;font-stretch:normal;font-size:10.5833px;line-height:1.25;font-family:Arial;-inkscape-font-specification:'Arial, Normal';font-variant-ligatures:normal;font-variant-caps:normal;font-variant-numeric:normal;font-feature-settings:normal;text-align:start;letter-spacing:0px;word-spacing:0px;writing-mode:lr-tb;text-anchor:start;fill:#2450a3;fill-opacity:1;stroke:none;stroke-width:0.340206"
         x="71.366837"
         y="99.468651"
         id="text949"><tspan
           id="tspan947"
           style="font-style:normal;font-variant:normal;font-weight:normal;font-stretch:normal;font-size:7.76111px;font-family:Aller;-inkscape-font-specification:'Aller, Normal';font-variant-ligatures:normal;font-variant-caps:normal;font-variant-numeric:normal;font-variant-east-asian:normal;fill:#2450a3;fill-opacity:1;stroke-width:0.340206"
           x="71.366837"
           y="99.468651" /></text>
      <text
         xml:space="preserve"
         transform="scale(0.26458333)"
         id="text1001"
         style="font-style:normal;font-variant:normal;font-weight:normal;font-stretch:normal;font-size:40px;line-height:1.25;font-family:Arial;-inkscape-font-specification:'Arial, Normal';font-variant-ligatures:normal;font-variant-caps:normal;font-variant-numeric:normal;font-feature-settings:normal;text-align:start;letter-spacing:0px;word-spacing:0px;writing-mode:lr-tb;white-space:pre;shape-inside:url(#rect1003);display:inline;fill:#2450a3;fill-opacity:1;stroke:none;stroke-width:1.28582" />
      <text
         xml:space="preserve"
         style="font-style:normal;font-variant:normal;font-weight:normal;font-stretch:normal;font-size:10.5833px;line-height:1.25;font-family:Arial;-inkscape-font-specification:'Arial, Normal';font-variant-ligatures:normal;font-variant-caps:normal;font-variant-numeric:normal;font-feature-settings:normal;text-align:start;letter-spacing:0px;word-spacing:0px;writing-mode:lr-tb;text-anchor:start;fill:#2450a3;fill-opacity:1;stroke:none;stroke-width:0.340206"
         x="102.6026"
         y="105.92556"
         id="text1009"><tspan
           id="tspan1007"
           style="fill:#2450a3;fill-opacity:1;stroke-width:0.340206"
           x="102.6026"
           y="105.92556" /></text>
      <text
         xml:space="preserve"
         style="font-size:10.5833px;line-height:1.25;font-family:Aller;-inkscape-font-specification:'Aller, Normal';letter-spacing:0px;word-spacing:0px;writing-mode:lr-tb;fill:#2450a3;fill-opacity:1;stroke-width:0.340206"
         x="67.430412"
         y="103.31831"
         id="text1013"><tspan
           id="tspan1011"
           style="fill:#2450a3;fill-opacity:1;stroke-width:0.340206"
           x="67.430412"
           y="103.31831" /></text>
    </g>
    <g
       id="layer1-67"
       style="display:inline;stroke-width:2.4956"
       transform="matrix(0.4007056,0,0,0.4007056,118.34802,46.03358)">
      <path
         style="display:inline;fill:none;stroke:#e1d5bd;stroke-width:1.16045;stroke-linecap:butt;stroke-linejoin:round;stroke-dasharray:none;stroke-opacity:1"
         d="M 73.209854,119.65989 V 88.575161 l 44.292666,-0.01017 V 69.080696 h 0.92034 l 0.0399,42.899844 39.51601,0.0148"
         id="path3089" />
      <path
         style="fill:none;stroke:#e1d5bd;stroke-width:1.16045;stroke-linecap:butt;stroke-linejoin:round;stroke-dasharray:none;stroke-opacity:1"
         d="m 74.104274,119.65989 0.0011,-30.182133 43.394606,0.01412 0.0493,23.400183 40.42955,0.003"
         id="path3138" />
      <g
         id="g225"
         transform="matrix(0.98736751,0,0,0.98736751,-0.1123828,20.417621)"
         style="display:inline;stroke-width:3.03302;stroke-dasharray:none">
        <path
           style="display:inline;fill:#7c87b7;stroke-width:3.03302;stroke-dasharray:none"
           d="m 88.63865,83.109617 -1.872006,0.01021 -0.02661,-0.02661 -0.02661,-0.02661 v -0.07167 -0.07167 l 0.290328,-0.777623 0.290333,-0.777623 0.695523,-1.869103 0.695518,-1.869102 0.03796,-0.09197 0.03796,-0.09197 0.358042,-0.970462 0.358037,-0.970463 0.247257,-0.668942 0.24726,-0.668942 0.114059,-0.295121 0.114054,-0.295122 h 3.50016 3.50016 c 0.0069,1.068995 0.01371,2.137991 0.02056,3.206986 h -2.215059 -2.215064 l -0.04968,0.127886 -0.04968,0.127886 -0.44764,1.27886 -0.447641,1.278859 -0.43757,1.23951 -0.437571,1.23951 -0.117647,0.334471 -0.117647,0.334471 -0.08739,0.177073 -0.08739,0.177073 z m 31.28259,-0.226636 h -0.0362 V 81.268416 79.65385 l 0.0492,-0.01493 0.0492,-0.01493 0.51178,-0.159056 0.51179,-0.159055 0.4326,-0.212529 0.4326,-0.212528 0.25578,-0.16536 0.25577,-0.165359 0.39072,-0.322418 0.39071,-0.322418 0.25242,-0.295121 0.25242,-0.295122 0.236,-0.352288 0.23601,-0.352288 0.1685,-0.336329 0.16851,-0.336328 0.1396,-0.37382 0.13961,-0.373821 0.11737,-0.452519 0.11737,-0.45252 0.0815,-0.491869 0.0815,-0.491869 0.0399,-0.472194 0.0399,-0.472194 3.9e-4,-0.344309 4e-4,-0.344308 h 1.96747 1.96748 l -4e-4,0.22626 -3.9e-4,0.226259 -0.0388,0.550894 -0.0388,0.550893 -0.0627,0.511544 -0.0627,0.511544 -0.13772,0.629592 -0.13772,0.629592 -0.19428,0.583771 -0.19427,0.58377 -0.2,0.439318 -0.20001,0.439317 -0.15954,0.295121 -0.15954,0.295121 -0.24248,0.373821 -0.24248,0.37382 -0.25279,0.313612 -0.25278,0.313612 -0.41435,0.414354 -0.41436,0.414355 -0.31031,0.249313 -0.31031,0.249314 -0.33777,0.225997 -0.33777,0.225997 -0.3935,0.218763 -0.3935,0.218763 -0.49743,0.21915 -0.49744,0.21915 -0.46663,0.155928 -0.46662,0.155929 -0.3935,0.09955 -0.39349,0.09955 -0.50489,0.100322 -0.50488,0.100322 h -0.0362 z M 73.000114,79.921972 h -1.869102 v -3.610413 -3.580807 h 1.869102 1.869103 v 3.580807 3.610413 z M 51.967793,75.957413 H 50.118365 V 71.27482 66.592226 h 1.849428 1.849428 v 1.554307 1.554306 h 2.656093 2.656093 v 1.593655 1.593656 h -2.656093 -2.656093 v 1.534632 1.534631 z m 21.03256,-6.374623 h -1.869341 v -3.108997 -3.150868 l 1.859265,0.01022 1.859265,0.01022 0.01008,3.140645 0.01007,3.098775 z m 60.346237,-1.692029 h -2.04168 l -0.0629,-0.26561 -0.0629,-0.265609 -0.0407,-0.255772 -0.0407,-0.255772 -0.0238,-0.531218 -0.0237,-0.531219 0.0466,-0.432845 0.0466,-0.432844 0.0583,-0.284888 0.0583,-0.284888 0.0986,-0.305355 0.0986,-0.305355 0.19142,-0.393495 0.19142,-0.393496 0.16079,-0.236097 0.16079,-0.236097 0.22635,-0.266908 0.22636,-0.266909 0.31494,-0.267762 0.31494,-0.267761 0.32368,-0.217573 0.32368,-0.217573 0.44363,-0.21903 0.44364,-0.219031 0.47219,-0.157186 0.4722,-0.157185 0.27544,-0.06417 0.27545,-0.06417 0.19538,-0.03763 0.19539,-0.03763 0.49323,-0.05808 0.49323,-0.05808 0.0689,-3.55e-4 0.0689,-3.54e-4 v 1.613331 1.61333 l -0.14756,3.54e-4 -0.14756,3.55e-4 -0.42982,0.09749 -0.42982,0.0975 -0.25795,0.120706 -0.25794,0.120706 -0.20238,0.134334 -0.20238,0.134333 -0.27323,0.292573 -0.27323,0.292573 -0.12362,0.251096 -0.12361,0.251095 -0.0644,0.234738 -0.0644,0.234739 -0.0197,0.491869 -0.0197,0.491869 0.0591,0.275447 0.0591,0.275447 0.0865,0.229881 0.0866,0.229881 0.17262,0.252151 0.17263,0.25215 h -2.04167 z"
           id="path229" />
        <path
           style="display:inline;fill:#394752;stroke-width:3.03302;stroke-dasharray:none"
           d="m 34.240832,100.55087 h -0.01967 v -0.0197 -0.0197 h 0.01967 0.01967 v 0.0197 0.0197 z m 125.957828,0 h -0.0197 v -0.0197 -0.0197 h 0.0197 0.0197 v 0.0197 0.0197 z m -22.77745,-17.140972 -0.83229,0.01423 -0.29512,-0.01387 -0.29513,-0.01387 -0.57056,-0.04258 -0.57057,-0.04258 -0.54432,-0.07801 -0.54432,-0.07801 -0.38039,-0.0776 -0.3804,-0.0776 -0.49187,-0.136311 -0.49187,-0.136311 -0.47219,-0.179396 -0.4722,-0.179396 -0.14756,-0.09756 -0.14756,-0.09756 v -1.711146 -1.711146 h 0.0579 0.0579 l 0.20775,0.0949 0.20775,0.09489 0.3935,0.155089 0.39349,0.155088 0.29512,0.101296 0.29512,0.101297 0.3935,0.117681 0.39349,0.117681 0.29513,0.07898 0.29512,0.07898 0.68861,0.138179 0.68862,0.138178 0.5547,0.06152 0.55471,0.06152 0.82253,-7.67e-4 0.82253,-7.68e-4 0.41403,-0.05513 0.41404,-0.05513 0.32733,-0.08357 0.32733,-0.08357 0.28172,-0.124093 0.28172,-0.124093 0.23933,-0.148964 0.23934,-0.148964 0.21983,-0.23047 0.21983,-0.230469 0.16101,-0.24912 0.16102,-0.24912 0.10412,-0.317881 0.10413,-0.317882 0.0177,-0.554606 0.0177,-0.554605 -0.0855,-0.329994 -0.0855,-0.329995 -0.13745,-0.261559 -0.13745,-0.26156 -0.20846,-0.252731 -0.20846,-0.25273 -0.25401,-0.202118 -0.254,-0.202119 -0.39972,-0.253439 -0.39973,-0.25344 -0.67993,-0.334954 -0.67993,-0.334954 -0.51155,-0.216155 -0.51154,-0.216155 -0.62959,-0.265397 -0.62959,-0.265397 -0.65305,-0.330557 -0.65305,-0.330558 -0.42907,-0.27904 -0.42906,-0.27904 -0.31479,-0.246335 -0.3148,-0.246334 -0.41358,-0.427741 -0.41357,-0.427741 -0.22049,-0.334471 -0.22049,-0.334471 -0.12323,-0.244451 -0.12323,-0.244451 -0.11522,-0.290041 -0.11522,-0.29004 -0.0271,-0.144288 -0.0271,-0.144287 h 2.03127 2.03127 l 0.29339,0.272042 0.2934,0.272042 0.35756,0.239166 0.35756,0.239166 0.69637,0.346823 0.69638,0.346823 1.23951,0.527502 1.23951,0.527503 0.74764,0.377464 0.74764,0.377463 0.37225,0.231652 0.37226,0.231651 0.37971,0.286033 0.37971,0.286033 0.37203,0.391266 0.37202,0.391265 0.22893,0.344032 0.22892,0.344031 0.1475,0.31927 0.14751,0.31927 0.10561,0.334094 0.10562,0.334095 0.0565,0.268309 0.0565,0.268309 0.0462,0.567868 0.0462,0.567868 -0.0462,0.560731 -0.0462,0.560731 -0.0948,0.41317 -0.0948,0.41317 -0.10686,0.295121 -0.10686,0.295122 -0.15667,0.314796 -0.15667,0.314796 -0.21714,0.328332 -0.21715,0.328332 -0.35705,0.373485 -0.35706,0.373486 -0.37579,0.282948 -0.37579,0.282948 -0.43284,0.240334 -0.43285,0.240333 -0.46682,0.183951 -0.46684,0.18395 -0.4819,0.132076 -0.48191,0.132076 -0.48752,0.08003 -0.48752,0.08003 -0.38754,0.04196 -0.38754,0.04197 -0.8323,0.01423 z m -85.441042,-0.221637 -1.852879,0.01023 -0.0033,-7.241098 h 1.846802 1.846803 l -0.01004,3.610319 -0.01004,3.610318 z m 14.322258,10e-7 -1.818322,0.01023 -0.04124,-0.07705 -0.04124,-0.07706 0.01013,-5.078126 0.01013,-5.078127 -2.646256,2e-6 -2.646255,10e-7 v -1.589066 l 3.4e-5,-1.598227 c 0,0 3.399101,0.01431 5.27281,0.01392 v -4.66934 -4.616048 l 0.04919,-0.06703 0.04919,-0.06703 1.810078,0.01032 1.810078,0.01032 V 71.747014 83.17805 Z m 39.503374,-0.06925 h -1.92271 l -0.0457,-0.08854 -0.0457,-0.08854 -0.0626,-0.177073 -0.0626,-0.177072 -0.17732,-0.491869 -0.17733,-0.491869 -0.11075,-0.314797 -0.11075,-0.314796 -0.42024,-1.160811 -0.42024,-1.160811 -0.29365,-0.82634 -0.29365,-0.82634 -0.0471,-0.108211 -0.0471,-0.108211 h -2.173428 l -2.174297,7.8e-5 c -0.0061,-1.069 -0.01337,-2.137993 -0.02056,-3.206986 l 1.682224,-0.01977 1.682201,1.3e-5 v -0.03304 -0.03304 l -0.31344,-0.921186 -0.313446,-0.921187 -0.260379,-0.747641 -0.260376,-0.747641 -0.446125,-1.298534 -0.44613,-1.298534 -0.215253,-0.629593 -0.215258,-0.629592 -0.08742,-0.275447 -0.08742,-0.275446 -0.309161,-1.016221 -0.309161,-1.01622 -0.02536,-0.135188 -0.02536,-0.135188 -0.02803,-0.01732 -0.02803,-0.01732 -0.09018,0.381741 -0.09019,0.381741 -0.210252,0.752743 -0.210248,0.752743 -0.196,0.604815 -0.196004,0.604816 -0.399571,1.160811 -0.399575,1.160811 -0.170726,0.491869 -0.170726,0.491869 -0.242483,0.688616 -0.242484,0.688617 -0.306855,0.885364 c -0.126632,0.369157 -0.396023,1.121676 -0.396023,1.121676 0,0 -2.448719,-7.35e-4 -3.673079,-1.41e-4 0,0 0.262001,-0.723216 0.371783,-1.024643 l 0.350282,-0.942914 0.116104,-0.314797 0.116105,-0.314796 0.319133,-0.865689 0.319132,-0.86569 0.174795,-0.452519 0.174794,-0.45252 0.49645,-1.337884 0.496449,-1.337883 0.189535,-0.511544 0.189535,-0.511544 0.597884,-1.593656 0.597885,-1.593655 0.213459,-0.588404 0.213455,-0.588403 0.06398,-0.0707 0.06399,-0.0707 h 1.976232 1.976235 l 0.03926,0.04919 0.03925,0.04919 0.419521,1.141137 0.419517,1.141136 0.0549,0.137723 0.0549,0.137723 0.35414,0.944389 0.35414,0.944389 0.0777,0.216422 0.0777,0.216422 0.22256,0.590243 0.22257,0.590243 0.0915,0.255772 0.0915,0.255772 0.36302,0.964063 0.363,0.964063 0.17665,0.472195 0.17666,0.472194 0.13626,0.37382 0.13625,0.373821 0.13189,0.354146 0.13188,0.354145 0.67626,1.810078 0.67627,1.810078 0.43104,1.160811 0.43104,1.160811 0.68352,1.829753 0.68352,1.829753 0.41836,1.136359 0.41837,1.136359 -0.0207,0.05396 -0.0207,0.05396 z m -28.230598,-0.03935 h -6.425101 l -0.01891,-0.04928 -0.01891,-0.04928 0.01031,-1.534538 0.01031,-1.534537 6.431737,0.01505 6.413973,0.01505 0.04919,0.03895 0.04919,0.03895 v 1.482594 1.482594 l -0.04722,0.04722 -0.04722,0.04722 z m 36.711558,0 h -3.67509 l -0.0262,-0.02623 -0.0262,-0.02623 V 71.644404 60.261598 l 0.0492,-0.03184 0.0492,-0.03183 3.36438,-0.01234 3.36439,-0.01234 0.96406,0.04249 0.96407,0.04249 0.46391,0.05755 0.4639,0.05755 0.57886,0.116873 0.57885,0.116872 0.49187,0.141037 0.49187,0.141037 0.43284,0.162471 0.43285,0.16247 0.53673,0.268701 0.53672,0.2687 0.42734,0.281248 0.42733,0.281247 0.3935,0.324009 0.3935,0.324009 0.375,0.388697 0.37501,0.388698 0.22094,0.275447 0.22094,0.275446 0.24706,0.373821 0.24706,0.37382 0.22667,0.432845 0.22666,0.432845 0.17782,0.435779 0.17782,0.435779 0.1026,0.311862 0.10261,0.311862 0.11393,0.452519 0.11393,0.45252 0.0619,0.354145 0.0619,0.354146 0.0603,0.491869 0.0603,0.491869 0.023,0.836178 0.0231,0.836177 h -1.97326 -1.97326 l -3.9e-4,-0.462357 -4e-4,-0.462357 -0.0399,-0.472194 -0.0399,-0.472194 -0.0806,-0.49187 -0.0806,-0.491869 -0.0963,-0.384144 -0.0963,-0.384145 -0.15754,-0.442195 -0.15754,-0.442196 -0.16513,-0.33447 -0.16514,-0.334471 -0.22361,-0.334471 -0.22361,-0.334471 -0.2761,-0.31862 -0.27611,-0.318619 -0.30883,-0.257584 -0.30883,-0.257584 -0.24669,-0.163857 -0.24669,-0.163858 -0.38217,-0.188579 -0.38217,-0.18858 -0.27545,-0.102736 -0.27545,-0.102735 -0.45706,-0.118338 -0.45706,-0.118338 -0.507,-0.08601 -0.507,-0.08601 -2.25277,-0.01671 -2.25276,-0.01671 v 8.33045 8.330451 l 1.85927,-0.0222 1.85926,-0.0222 0.49187,-0.06053 0.49187,-0.06053 0.41317,-0.07325 0.41317,-0.07325 0.0295,0.01564 0.0295,0.01564 v 1.588207 1.588207 l -0.10821,0.02065 -0.10822,0.02065 -0.27544,0.04064 -0.27545,0.04064 -0.57794,0.04021 -0.57794,0.04021 h -3.67509 z M 77.268574,72.730752 h -6.085096 -0.05247 l 6e-6,-0.05246 v -1.54787 -1.547871 l 6.168038,0.01 6.168038,0.01 0.01038,1.514957 0.01038,1.514956 -0.06709,0.04919 -0.06709,0.04919 z M 51.972941,66.592226 h -1.844279 l -0.02439,-0.14756 -0.02439,-0.147561 0.0042,-2.872515 0.0042,-2.872515 0.02524,-0.118049 0.02524,-0.118049 1.785504,-0.01024 1.785504,-0.01024 0.05371,0.04457 0.05371,0.04457 v 3.103794 3.103794 z m 91.856319,-2.28453 -0.0394,-0.0011 -0.33447,-0.135876 -0.33447,-0.135877 -0.71514,-0.236643 -0.71513,-0.236644 -0.56373,-0.135787 -0.56372,-0.135787 -0.49187,-0.08289 -0.49187,-0.08289 -0.89564,-0.02242 -0.89466,0.02769 v -1.61333 -1.613331 l 0.29506,-0.01505 0.27545,-0.03467 0.84601,0.04527 0.84602,0.04528 0.55089,0.07517 0.55089,0.07517 0.4722,0.102078 0.47219,0.102079 0.43285,0.115177 0.43284,0.115177 0.53122,0.17518 0.53122,0.17518 0.41317,0.164065 0.41317,0.164066 0.0885,0.05708 0.0885,0.05708 v 0.09667 0.09667 l -0.15568,0.384456 -0.15568,0.384456 -0.37869,0.983364 -0.37869,0.983364 -0.046,0.02928 -0.046,0.02928 -0.0393,-0.0011 z m -66.230453,-0.969587 -6.419173,0.02361 -0.02431,-0.02431 -0.02431,-0.02431 v -1.505181 -1.50518 l 0.02388,-0.06224 0.02389,-0.06224 h 6.425228 6.425226 l 0.02389,0.06224 0.02389,0.06224 -5.91e-4,1.462552 -5.9e-4,1.462551 -0.02891,0.04333 -0.02891,0.04333 -6.419175,0.02361 z M 34.240832,49.081689 h -0.01967 v -0.01967 -0.01967 h 0.01967 0.01967 v 0.01967 0.01967 z m 125.957828,0 h -0.0197 v -0.01967 -0.01967 h 0.0197 0.0197 v 0.01967 0.01967 z"
           id="path227" />
      </g>
      <g
         aria-label="PhD PROGRAMME IN HEALTH DATA SCIENCE"
         id="text7502"
         style="font-size:2.54024px;line-height:1.25;font-family:'Open Sans';-inkscape-font-specification:'Open Sans, Normal';font-variant-ligatures:none;letter-spacing:0px;word-spacing:0px;display:inline;fill:#394752;stroke-width:0.66029">
        <path
           d="m 66.949243,105.74384 q 0.394897,0 0.576299,0.15489 0.182796,0.1535 0.182796,0.44095 0,0.12977 -0.04326,0.24698 -0.04186,0.11582 -0.136749,0.20513 -0.09489,0.0879 -0.249775,0.13954 -0.153494,0.0502 -0.376757,0.0502 h -0.248381 v 0.80235 h -0.237217 v -2.04007 z m -0.02233,0.20234 h -0.273498 v 0.83165 h 0.221868 q 0.195356,0 0.325127,-0.0419 0.131168,-0.0419 0.196751,-0.13535 0.06558,-0.0949 0.06558,-0.25117 0,-0.20373 -0.129772,-0.3028 -0.129772,-0.10047 -0.40606,-0.10047 z"
           style="font-size:2.85777px;stroke-width:0.66029"
           id="path821" />
        <path
           d="m 68.33208,105.61268 v 0.64886 q 0,0.0558 -0.0028,0.11302 -0.0028,0.0558 -0.0098,0.10326 h 0.01535 q 0.04744,-0.0809 0.120004,-0.13535 0.07396,-0.0558 0.167448,-0.0837 0.09349,-0.0293 0.198146,-0.0293 0.184192,0 0.306987,0.0586 0.12419,0.0586 0.185587,0.1814 0.06279,0.12279 0.06279,0.31815 v 0.99631 h -0.228845 v -0.98096 q 0,-0.19117 -0.08791,-0.28606 -0.08651,-0.0949 -0.26652,-0.0949 -0.170238,0 -0.272102,0.0656 -0.100469,0.0642 -0.145121,0.18977 -0.04326,0.12559 -0.04326,0.30699 v 0.79956 h -0.231635 v -2.17123 z"
           style="font-size:2.85777px;stroke-width:0.66029"
           id="path823" />
        <path
           d="m 71.508,106.74434 q 0,0.34467 -0.125585,0.5763 -0.125586,0.23024 -0.364198,0.34745 -0.237218,0.11582 -0.576299,0.11582 h -0.553972 v -2.04007 h 0.61537 q 0.311173,0 0.535832,0.11443 0.224658,0.11302 0.346058,0.33629 0.122794,0.22187 0.122794,0.54978 z m -0.249775,0.008 q 0,-0.2749 -0.0921,-0.45351 -0.0907,-0.17861 -0.267916,-0.26512 -0.17582,-0.0879 -0.431178,-0.0879 H 70.12516 v 1.634 h 0.288846 q 0.42141,0 0.632115,-0.20791 0.2121,-0.20791 0.2121,-0.61955 z"
           style="font-size:2.85777px;stroke-width:0.66029"
           id="path825" />
        <path
           d="m 73.236895,105.74384 q 0.394897,0 0.576299,0.15489 0.182796,0.1535 0.182796,0.44095 0,0.12977 -0.04326,0.24698 -0.04186,0.11582 -0.136749,0.20513 -0.09489,0.0879 -0.249775,0.13954 -0.153494,0.0502 -0.376757,0.0502 h -0.248381 v 0.80235 h -0.237217 v -2.04007 z m -0.02233,0.20234 h -0.273498 v 0.83165 h 0.221868 q 0.195356,0 0.325127,-0.0419 0.131168,-0.0419 0.196751,-0.13535 0.06558,-0.0949 0.06558,-0.25117 0,-0.20373 -0.129772,-0.3028 -0.129772,-0.10047 -0.40606,-0.10047 z"
           style="font-size:2.85777px;stroke-width:0.66029"
           id="path827" />
        <path
           d="m 74.974163,105.74384 q 0.251171,0 0.414433,0.0628 0.164656,0.0614 0.245589,0.18838 0.08093,0.12698 0.08093,0.32373 0,0.16186 -0.05861,0.2707 -0.05861,0.10745 -0.153493,0.17443 -0.09489,0.067 -0.202332,0.10326 l 0.559553,0.91677 h -0.276288 l -0.499552,-0.85119 h -0.4242 v 0.85119 h -0.237217 v -2.04007 z m -0.01395,0.20513 h -0.30001 v 0.78281 h 0.323732 q 0.249776,0 0.366989,-0.10186 0.118608,-0.10186 0.118608,-0.30001 0,-0.20791 -0.125585,-0.29443 -0.12419,-0.0865 -0.383734,-0.0865 z"
           style="font-size:2.85777px;stroke-width:0.66029"
           id="path829" />
        <path
           d="m 77.956123,106.76109 q 0,0.23582 -0.06,0.42978 -0.06,0.19256 -0.178611,0.3321 -0.117213,0.13815 -0.291637,0.2135 -0.174425,0.0754 -0.404665,0.0754 -0.237217,0 -0.414432,-0.0754 -0.17582,-0.0754 -0.293033,-0.21489 -0.115818,-0.13954 -0.174425,-0.3335 -0.05721,-0.19396 -0.05721,-0.42978 0,-0.31257 0.103259,-0.54839 0.103259,-0.23583 0.312569,-0.36699 0.210704,-0.13117 0.527459,-0.13117 0.302801,0 0.50932,0.12977 0.207913,0.12977 0.313964,0.3656 0.107445,0.23442 0.107445,0.55397 z m -1.62424,0 q 0,0.25954 0.07396,0.44932 0.07396,0.18977 0.226054,0.29303 0.153493,0.10326 0.389315,0.10326 0.237217,0 0.38792,-0.10326 0.152098,-0.10326 0.224659,-0.29303 0.07256,-0.18978 0.07256,-0.44932 0,-0.3949 -0.166052,-0.61677 -0.164657,-0.22326 -0.514901,-0.22326 -0.237217,0 -0.390711,0.10186 -0.153493,0.10187 -0.228844,0.29025 -0.07396,0.18698 -0.07396,0.44792 z"
           style="font-size:2.85777px;stroke-width:0.66029"
           id="path831" />
        <path
           d="m 79.281749,106.71504 h 0.713047 v 0.98934 q -0.160471,0.0544 -0.330709,0.0809 -0.168843,0.0265 -0.378152,0.0265 -0.31815,0 -0.537227,-0.12698 -0.217682,-0.12698 -0.330709,-0.36141 -0.113027,-0.23582 -0.113027,-0.55955 0,-0.31676 0.12419,-0.55258 0.125586,-0.23582 0.361408,-0.36559 0.237217,-0.13117 0.569321,-0.13117 0.170238,0 0.322336,0.0321 0.153494,0.0307 0.284661,0.0879 l -0.0907,0.20651 q -0.113027,-0.0488 -0.249776,-0.0837 -0.135353,-0.0349 -0.280474,-0.0349 -0.249776,0 -0.428386,0.10325 -0.177216,0.10326 -0.272103,0.29164 -0.09349,0.18838 -0.09349,0.44653 0,0.25536 0.08233,0.44513 0.08233,0.18838 0.256753,0.29303 0.174425,0.10466 0.449317,0.10466 0.138145,0 0.237218,-0.0153 0.09907,-0.0168 0.180006,-0.0391 v -0.62514 h -0.47583 z"
           style="font-size:2.85777px;stroke-width:0.66029"
           id="path833" />
        <path
           d="m 81.038551,105.74384 q 0.251172,0 0.414433,0.0628 0.164656,0.0614 0.245589,0.18838 0.08093,0.12698 0.08093,0.32373 0,0.16186 -0.05861,0.2707 -0.05861,0.10745 -0.153494,0.17443 -0.09489,0.067 -0.202332,0.10326 l 0.559554,0.91677 h -0.276289 l -0.499551,-0.85119 H 80.72458 v 0.85119 h -0.23721 v -2.04007 z m -0.01395,0.20513 h -0.30001 v 0.78281 h 0.323732 q 0.249776,0 0.366989,-0.10186 0.118609,-0.10186 0.118609,-0.30001 0,-0.20791 -0.125586,-0.29443 -0.12419,-0.0865 -0.383734,-0.0865 z"
           style="font-size:2.85777px;stroke-width:0.66029"
           id="path835" />
        <path
           d="m 83.530727,107.78391 -0.251171,-0.64746 h -0.817701 l -0.249776,0.64746 h -0.240008 l 0.798166,-2.04844 h 0.213495 l 0.792585,2.04844 z m -0.322336,-0.85817 -0.238613,-0.64327 q -0.0084,-0.0251 -0.02791,-0.0823 -0.01814,-0.0572 -0.03768,-0.11861 -0.01954,-0.0614 -0.03209,-0.0991 -0.01395,0.0572 -0.0307,0.11442 -0.01535,0.0558 -0.0307,0.10465 -0.01535,0.0474 -0.02651,0.0809 l -0.242799,0.64327 z"
           style="font-size:2.85777px;stroke-width:0.66029"
           id="path837" />
        <path
           d="m 84.955426,107.78391 -0.685139,-1.80564 h -0.01116 q 0.0056,0.0572 0.0098,0.13954 0.0042,0.0823 0.007,0.18001 0.0028,0.0963 0.0028,0.19675 v 1.28934 h -0.220473 v -2.04007 h 0.35164 l 0.646068,1.69681 h 0.0098 l 0.655836,-1.69681 h 0.348848 v 2.04007 H 85.83602 v -1.30609 q 0,-0.0907 0.0028,-0.1814 0.0028,-0.0921 0.007,-0.17303 0.0042,-0.0823 0.0084,-0.14233 h -0.01116 l -0.693512,1.80285 z"
           style="font-size:2.85777px;stroke-width:0.66029"
           id="path839" />
        <path
           d="m 87.525745,107.78391 -0.68514,-1.80564 h -0.01116 q 0.0056,0.0572 0.0098,0.13954 0.0042,0.0823 0.007,0.18001 0.0028,0.0963 0.0028,0.19675 v 1.28934 h -0.220473 v -2.04007 h 0.35164 l 0.646068,1.69681 h 0.0098 l 0.655836,-1.69681 h 0.348849 v 2.04007 h -0.234427 v -1.30609 q 0,-0.0907 0.0028,-0.1814 0.0028,-0.0921 0.007,-0.17303 0.0042,-0.0823 0.0084,-0.14233 h -0.01116 l -0.693511,1.80285 z"
           style="font-size:2.85777px;stroke-width:0.66029"
           id="path841" />
        <path
           d="m 90.334676,107.78391 h -1.135852 v -2.04007 h 1.135852 v 0.20931 h -0.898635 v 0.66003 h 0.847005 v 0.20651 h -0.847005 v 0.75491 h 0.898635 z"
           style="font-size:2.85777px;stroke-width:0.66029"
           id="path843" />
        <path
           d="m 91.529134,107.78391 v -2.04007 h 0.237218 v 2.04007 z"
           style="font-size:2.85777px;stroke-width:0.66029"
           id="path845" />
        <path
           d="M 93.922238,107.78391 H 93.64874 l -1.11213,-1.71354 h -0.01116 q 0.0042,0.0684 0.0098,0.15628 0.0056,0.0865 0.0084,0.18559 0.0042,0.0977 0.0042,0.19954 v 1.17213 h -0.220472 v -2.04007 h 0.272102 l 1.107944,1.70797 h 0.0098 q -0.0028,-0.0488 -0.007,-0.13815 -0.0042,-0.0907 -0.0084,-0.19396 -0.0028,-0.10465 -0.0028,-0.19396 v -1.1819 h 0.223264 z"
           style="font-size:2.85777px;stroke-width:0.66029"
           id="path847" />
        <path
           d="m 96.767449,107.78391 h -0.237217 v -0.96142 h -1.071663 v 0.96142 h -0.237218 v -2.04007 h 0.237218 v 0.86934 h 1.071663 v -0.86934 h 0.237217 z"
           style="font-size:2.85777px;stroke-width:0.66029"
           id="path849" />
        <path
           d="m 98.464249,107.78391 h -1.135852 v -2.04007 h 1.135852 v 0.20931 h -0.898634 v 0.66003 h 0.847005 v 0.20651 h -0.847005 v 0.75491 h 0.898634 z"
           style="font-size:2.85777px;stroke-width:0.66029"
           id="path851" />
        <path
           d="m 100.19594,107.78391 -0.251175,-0.64746 h -0.817702 l -0.249775,0.64746 H 98.63728 l 0.798166,-2.04844 h 0.213495 l 0.792589,2.04844 z m -0.32234,-0.85817 -0.238613,-0.64327 q -0.0084,-0.0251 -0.02791,-0.0823 -0.01814,-0.0572 -0.03767,-0.11861 -0.01954,-0.0614 -0.03209,-0.0991 -0.01395,0.0572 -0.0307,0.11442 -0.01535,0.0558 -0.0307,0.10465 -0.01535,0.0474 -0.02651,0.0809 l -0.242799,0.64327 z"
           style="font-size:2.85777px;stroke-width:0.66029"
           id="path853" />
        <path
           d="m 100.7234,107.78391 v -2.04007 h 0.23721 v 1.82797 h 0.90561 v 0.2121 z"
           style="font-size:2.85777px;stroke-width:0.66029"
           id="path855" />
        <path
           d="m 102.8416,107.78391 h -0.23861 v -1.83076 h -0.64188 v -0.20931 h 1.51959 v 0.20931 h -0.6391 z"
           style="font-size:2.85777px;stroke-width:0.66029"
           id="path857" />
        <path
           d="m 105.33518,107.78391 h -0.23722 v -0.96142 h -1.07166 v 0.96142 h -0.23722 v -2.04007 h 0.23722 v 0.86934 h 1.07166 v -0.86934 h 0.23722 z"
           style="font-size:2.85777px;stroke-width:0.66029"
           id="path859" />
        <path
           d="m 108.25853,106.74434 q 0,0.34467 -0.12558,0.5763 -0.12559,0.23024 -0.3642,0.34745 -0.23722,0.11582 -0.5763,0.11582 h -0.55397 v -2.04007 h 0.61537 q 0.31117,0 0.53583,0.11443 0.22466,0.11302 0.34606,0.33629 0.12279,0.22187 0.12279,0.54978 z m -0.24977,0.008 q 0,-0.2749 -0.0921,-0.45351 -0.0907,-0.17861 -0.26792,-0.26512 -0.17582,-0.0879 -0.43117,-0.0879 h -0.34188 v 1.634 h 0.28885 q 0.42141,0 0.63212,-0.20791 0.2121,-0.20791 0.2121,-0.61955 z"
           style="font-size:2.85777px;stroke-width:0.66029"
           id="path861" />
        <path
           d="m 109.99161,107.78391 -0.25117,-0.64746 h -0.8177 l -0.24978,0.64746 h -0.24 l 0.79816,-2.04844 h 0.2135 l 0.79258,2.04844 z m -0.32233,-0.85817 -0.23862,-0.64327 q -0.008,-0.0251 -0.0279,-0.0823 -0.0181,-0.0572 -0.0377,-0.11861 -0.0195,-0.0614 -0.0321,-0.0991 -0.014,0.0572 -0.0307,0.11442 -0.0153,0.0558 -0.0307,0.10465 -0.0153,0.0474 -0.0265,0.0809 l -0.2428,0.64327 z"
           style="font-size:2.85777px;stroke-width:0.66029"
           id="path863" />
        <path
           d="m 111.14561,107.78391 h -0.23862 v -1.83076 h -0.64188 v -0.20931 h 1.51959 v 0.20931 h -0.63909 z"
           style="font-size:2.85777px;stroke-width:0.66029"
           id="path865" />
        <path
           d="m 113.37266,107.78391 -0.25118,-0.64746 h -0.8177 l -0.24977,0.64746 H 111.814 l 0.79817,-2.04844 h 0.21349 l 0.79259,2.04844 z m -0.32234,-0.85817 -0.23861,-0.64327 q -0.008,-0.0251 -0.0279,-0.0823 -0.0181,-0.0572 -0.0377,-0.11861 -0.0195,-0.0614 -0.0321,-0.0991 -0.0139,0.0572 -0.0307,0.11442 -0.0153,0.0558 -0.0307,0.10465 -0.0153,0.0474 -0.0265,0.0809 l -0.2428,0.64327 z"
           style="font-size:2.85777px;stroke-width:0.66029"
           id="path867" />
        <path
           d="m 115.79366,107.2411 q 0,0.18141 -0.0907,0.30978 -0.0893,0.12698 -0.25117,0.19396 -0.16186,0.067 -0.38094,0.067 -0.11582,0 -0.21908,-0.0112 -0.10326,-0.0112 -0.18977,-0.0321 -0.0865,-0.0209 -0.1521,-0.0516 v -0.22745 q 0.10466,0.0433 0.25536,0.0809 0.1507,0.0363 0.31536,0.0363 0.15349,0 0.25954,-0.0405 0.10605,-0.0419 0.16047,-0.11861 0.0558,-0.0781 0.0558,-0.18698 0,-0.10466 -0.046,-0.17443 -0.0461,-0.0712 -0.15349,-0.12837 -0.10605,-0.0586 -0.29025,-0.12419 -0.12977,-0.0461 -0.22884,-0.10047 -0.0991,-0.0558 -0.16605,-0.12559 -0.067,-0.0698 -0.10187,-0.16186 -0.0335,-0.0921 -0.0335,-0.21071 0,-0.16326 0.0823,-0.27908 0.0837,-0.11721 0.23024,-0.17861 0.14791,-0.0628 0.33908,-0.0628 0.16326,0 0.30141,0.0307 0.13954,0.0307 0.25536,0.0823 l -0.074,0.20373 q -0.11024,-0.0461 -0.23443,-0.0768 -0.12279,-0.0307 -0.25396,-0.0307 -0.13117,0 -0.22187,0.0391 -0.0893,0.0377 -0.13675,0.10745 -0.0474,0.0698 -0.0474,0.16605 0,0.10744 0.0447,0.17861 0.046,0.0712 0.14513,0.12698 0.10046,0.0544 0.26512,0.11442 0.18001,0.0656 0.30559,0.13954 0.12559,0.0726 0.19117,0.17861 0.0656,0.10466 0.0656,0.26652 z"
           style="font-size:2.85777px;stroke-width:0.66029"
           id="path869" />
        <path
           d="m 117.08162,105.92385 q -0.16885,0 -0.3042,0.0586 -0.13396,0.0572 -0.22884,0.16744 -0.0935,0.10885 -0.14373,0.26373 -0.0502,0.15489 -0.0502,0.34885 0,0.25676 0.0795,0.44653 0.0809,0.18838 0.24001,0.29164 0.16047,0.10326 0.40048,0.10326 0.13675,0 0.25675,-0.0223 0.1214,-0.0237 0.23583,-0.0586 v 0.20652 q -0.11164,0.0419 -0.23443,0.0614 -0.1228,0.0209 -0.29164,0.0209 -0.31117,0 -0.52048,-0.12838 -0.20792,-0.12977 -0.31257,-0.36559 -0.10326,-0.23582 -0.10326,-0.55676 0,-0.23164 0.0642,-0.42281 0.0656,-0.19256 0.18977,-0.3321 0.12559,-0.13954 0.30699,-0.21489 0.1828,-0.0768 0.41862,-0.0768 0.15489,0 0.29861,0.0307 0.14373,0.0307 0.25955,0.0879 l -0.0949,0.20094 q -0.0977,-0.0447 -0.21489,-0.0768 -0.11582,-0.0335 -0.25117,-0.0335 z"
           style="font-size:2.85777px;stroke-width:0.66029"
           id="path871" />
        <path
           d="m 118.00956,107.78391 v -2.04007 h 0.23721 v 2.04007 z"
           style="font-size:2.85777px;stroke-width:0.66029"
           id="path873" />
        <path
           d="m 119.94357,107.78391 h -1.13585 v -2.04007 h 1.13585 v 0.20931 h -0.89863 v 0.66003 h 0.847 v 0.20651 h -0.847 v 0.75491 h 0.89863 z"
           style="font-size:2.85777px;stroke-width:0.66029"
           id="path875" />
        <path
           d="m 121.99062,107.78391 h -0.2735 l -1.11213,-1.71354 h -0.0112 q 0.004,0.0684 0.01,0.15628 0.006,0.0865 0.008,0.18559 0.004,0.0977 0.004,0.19954 v 1.17213 h -0.22047 v -2.04007 h 0.2721 l 1.10795,1.70797 h 0.01 q -0.003,-0.0488 -0.007,-0.13815 -0.004,-0.0907 -0.008,-0.19396 -0.003,-0.10465 -0.003,-0.19396 v -1.1819 h 0.22327 z"
           style="font-size:2.85777px;stroke-width:0.66029"
           id="path877" />
        <path
           d="m 123.4195,105.92385 q -0.16884,0 -0.30419,0.0586 -0.13396,0.0572 -0.22885,0.16744 -0.0935,0.10885 -0.14372,0.26373 -0.0502,0.15489 -0.0502,0.34885 0,0.25676 0.0795,0.44653 0.0809,0.18838 0.24001,0.29164 0.16047,0.10326 0.40048,0.10326 0.13675,0 0.25675,-0.0223 0.1214,-0.0237 0.23582,-0.0586 v 0.20652 q -0.11163,0.0419 -0.23442,0.0614 -0.1228,0.0209 -0.29164,0.0209 -0.31118,0 -0.52048,-0.12838 -0.20792,-0.12977 -0.31257,-0.36559 -0.10326,-0.23582 -0.10326,-0.55676 0,-0.23164 0.0642,-0.42281 0.0656,-0.19256 0.18977,-0.3321 0.12558,-0.13954 0.30699,-0.21489 0.18279,-0.0768 0.41861,-0.0768 0.15489,0 0.29862,0.0307 0.14373,0.0307 0.25954,0.0879 l -0.0949,0.20094 q -0.0977,-0.0447 -0.21489,-0.0768 -0.11582,-0.0335 -0.25118,-0.0335 z"
           style="font-size:2.85777px;stroke-width:0.66029"
           id="path879" />
        <path
           d="m 125.48329,107.78391 h -1.13585 v -2.04007 h 1.13585 v 0.20931 h -0.89863 v 0.66003 h 0.847 v 0.20651 h -0.847 v 0.75491 h 0.89863 z"
           style="font-size:2.85777px;stroke-width:0.66029"
           id="path881" />
      </g>
    </g>
  </g>
</svg>
