<svg width="70mm" height="25mm" viewBox="0 0 70 25" xmlns="http://www.w3.org/2000/svg"><path d="M15.207 23.094c-.695-.187-1.054-.706-1.053-1.525 0-1.086.678-1.746 1.652-1.608.69.098 1.073.61 1.073 1.435v.305H14.77l.022.172c.052.405.271.659.649.75.206.049.73.022.96-.05.178-.057.19-.052.243.11.058.172.047.291-.03.332-.227.122-1.07.17-1.407.079zm1.08-1.95a.723.723 0 00-.73-.724c-.385.002-.666.256-.745.674l-.027.147h1.503zm2.488 1.956c-.49-.122-.737-.42-.739-.893-.002-.713.522-1.094 1.453-1.057l.353.014v-.101c0-.28-.14-.509-.358-.584-.162-.056-.634-.046-.878.019a3.7 3.7 0 01-.217.053c-.026 0-.096-.244-.101-.36-.007-.137.1-.178.595-.23.72-.073 1.203.097 1.403.492.123.242.147.498.147 1.552v.978l-.075.029c-.304.116-1.257.168-1.583.088zm.96-.468l.107-.019v-.973l-.217-.023c-.422-.045-.8.05-.92.231-.137.211-.079.601.11.724.156.103.541.128.92.06zm19.058.462c-.696-.187-1.055-.706-1.054-1.525 0-1.086.678-1.746 1.652-1.608.69.098 1.073.61 1.073 1.435v.305h-2.108l.022.172c.05.405.27.659.648.75.206.049.73.022.96-.05.179-.057.19-.052.244.11.057.172.047.291-.03.332-.228.122-1.072.17-1.407.079zm1.08-1.95a.723.723 0 00-.73-.724c-.386.002-.667.256-.745.674l-.028.147h1.502zm2.175 1.98a3.312 3.312 0 01-.255-.063c-.213-.06-.214-.064-.06-.494.01-.027.08-.02.238.024.625.174 1.194 0 1.194-.363 0-.282-.082-.348-.728-.594-.574-.218-.78-.463-.742-.88.041-.462.335-.723.892-.794.417-.053 1.123.07 1.092.19l-.056.213c-.051.199-.041.195-.312.118-.445-.127-.92-.046-.996.169-.09.261.049.41.558.59.724.259.889.43.889.928 0 .47-.279.791-.811.933-.152.04-.71.054-.903.022zm3.92-.03c-.696-.187-1.055-.706-1.054-1.525 0-1.086.678-1.746 1.652-1.608.69.098 1.073.61 1.073 1.435v.305H45.53l.022.172c.052.405.271.659.649.75.206.049.73.022.96-.05.178-.057.19-.052.244.11.057.172.047.291-.03.332-.228.122-1.072.17-1.408.08zm1.08-1.95a.723.723 0 00-.73-.724c-.386.002-.667.256-.745.674l-.028.147h1.503zm2.52 1.956c-.49-.122-.737-.42-.739-.892-.002-.714.521-1.095 1.453-1.058l.353.014v-.101c0-.28-.14-.509-.359-.584-.161-.056-.633-.046-.878.019a3.73 3.73 0 01-.216.053c-.027 0-.096-.244-.102-.36-.007-.137.1-.178.596-.229.719-.074 1.203.096 1.403.491.123.242.147.498.147 1.552v.978l-.075.03c-.304.115-1.257.167-1.583.087zm.96-.468l.107-.019v-.973l-.217-.023c-.422-.045-.8.05-.92.231-.137.211-.079.601.109.725.157.102.542.127.921.06zm5.819.47c-.681-.174-1.065-.733-1.065-1.55 0-1.079.701-1.704 1.786-1.593.525.055.571.097.477.44-.034.12-.041.125-.14.106-.259-.05-.748-.06-.9-.018-.537.15-.785 1.119-.445 1.746.212.392.77.525 1.397.335.065-.02.13.105.169.32.021.119.02.12-.135.176-.208.074-.912.098-1.144.038zM9.785 23.09l-.074-.014v-4.29l.158-.021c.086-.012.227-.012.312 0l.154.021v1.765h1.807v-1.765l.154-.021c.085-.012.225-.012.312 0l.158.02v4.287l-.103.02c-.056.012-.15.021-.21.021-.058 0-.152-.01-.209-.02l-.102-.02v-1.996h-1.807v1.995l-.103.02a1.48 1.48 0 01-.447-.002zm12.472-.057c-.193-.09-.314-.246-.37-.478-.025-.1-.033-.746-.027-2.004l.01-1.856.287-.01.287-.009v1.8c0 1.098.013 1.846.033 1.918.053.19.137.243.38.24.235-.002.222-.018.252.321.014.148-.01.157-.402.158-.227 0-.312-.015-.45-.08zm2.8.012a.702.702 0 01-.373-.342c-.068-.126-.072-.18-.081-1.173l-.01-1.042-.236-.01c-.164-.006-.237-.022-.237-.05 0-.056.975-1.153 1.027-1.156.03-.002.04.094.04.376v.377h.789v.46h-.793l.01.945c.01.82.019.958.068 1.048.077.14.233.19.518.161l.221-.022.021.105c.05.251.029.349-.082.37-.239.048-.73.022-.883-.047zm2.182.045l-.074-.014.009-2.19.008-2.19.287-.01.288-.01v1.784l.156-.164c.445-.469 1.266-.475 1.602-.012.206.284.22.386.237 1.65l.015 1.137-.106.021c-.13.026-.32.027-.415.001-.07-.019-.07-.028-.085-1.059-.016-1.136-.028-1.22-.202-1.41-.196-.213-.666-.182-.909.06-.242.243-.27.382-.286 1.449-.014.928-.015.942-.085.96a1.5 1.5 0 01-.44-.004zm3.957.001s-.114-.071-.114-.345c0-.368-.013-.355.349-.355.307 0 .31 0 .344.09.037.096.028.546-.012.586-.03.03-.567.024-.567.024zm2.732 0l-.106-.015v-4.294l.189-.027c.365-.052 1.22-.032 1.435.034.435.133.699.339.863.673.137.28.135.786-.005 1.073a1.705 1.705 0 01-.619.64c-.085.045-.155.093-.155.106 0 .014.273.42.607.904l.607.879-.14.023a1.705 1.705 0 01-.344.005l-.205-.019-.672-.973a27.005 27.005 0 01-.675-1.005c-.002-.017.093-.063.211-.103.594-.2.87-.537.832-1.016-.04-.51-.35-.739-.998-.739h-.307v1.922c0 1.852-.002 1.922-.061 1.922-.034 0-.126.005-.206.013a1.371 1.371 0 01-.25-.002zm18.791 0l-.074-.015.009-1.534.008-1.533.239-.01c.269-.01.303.022.303.286 0 .176.012.175.211-.017a.884.884 0 01.7-.269l.157.01.01.196c.016.313.006.329-.208.334-.248.006-.448.089-.587.242-.196.217-.218.352-.218 1.382v.91l-.102.02a1.48 1.48 0 01-.448-.003zm6.223 0l-.074-.015.008-2.19.009-2.19.287-.01.287-.01v1.784l.157-.164c.445-.469 1.265-.475 1.601-.012.207.284.221.386.238 1.65l.015 1.137-.106.021c-.13.026-.32.027-.415.001-.07-.019-.07-.028-.086-1.059-.016-1.136-.028-1.22-.202-1.41-.195-.213-.666-.182-.908.06-.242.243-.27.382-.286 1.449-.015.928-.016.941-.085.96a1.5 1.5 0 01-.44-.004zm3.957 0c-.103-.011-.114-.071-.115-.345 0-.368-.012-.356.35-.356.306 0 .309.001.343.09.037.097.028.547-.011.587-.03.03-.476.034-.567.024zM5.78 15.22C1.9 14.247.185 9.26 2.266 5.004 3.379 2.726 6.177 1.58 9.123 2.195c1.408.294 1.41.295 1.409.553-.003 1.095-.37 1.48-1.205 1.264-3.185-.825-5.378.661-5.668 3.84-.41 4.496 2.01 6.676 6.041 5.444.56-.17 1.263.779 1.028 1.39-.18.468-3.697.85-4.946.536zm41.115.003c-.956-.206-1.307-.425-1.23-.765.31-1.377.36-1.451.852-1.271 2.866 1.045 5.114.299 5.114-1.698 0-1.241-.276-1.496-2.675-2.47-5.535-2.247-3.17-7.926 2.844-6.832 1.326.241 1.503.337 1.427.774-.224 1.293-.196 1.273-1.33.979-2.758-.717-4.845.738-3.464 2.413.348.422.582.55 2.409 1.317 6.036 2.533 2.666 8.984-3.947 7.553zm14.884.045s-.52-.139-.882-.246l-.656-.195.072-.484c.086-.58.357-1.264.502-1.264.057 0 .246.056.421.125 2.603 1.023 5.11.175 5.11-1.728-.001-1.1-.496-1.541-2.763-2.465-2.369-.965-2.932-1.635-2.93-3.487.002-1.828 1.02-2.988 2.964-3.376 1.536-.306 4.307.11 4.307.647 0 .177-.315 1.25-.398 1.354-.015.019-.434-.07-.932-.197-2.248-.574-3.72-.079-3.833 1.29-.09 1.093.317 1.456 2.739 2.439 2.027.822 2.736 1.564 2.995 3.135.295 1.79-.703 3.445-2.571 4.264-.414.18-1.608.311-2.423.333-.576.015-1.722-.145-1.722-.145zm-48.8-.118c-.044-.043-.08-2.965-.08-6.492V2.246l.987.032.986.033v12.854l-.907.032c-.499.018-.943-.003-.987-.047zm8.743-1.666c-.574-.956-1.043-1.793-1.155-1.972-.113-.179-.646-1.123-1.297-2.218-.651-1.095-1.184-2.009-1.184-2.03 0-.022-.228-.416-.508-.876l-.507-.836v-1.46c0-.804.03-1.492.067-1.53.088-.086.384.027.384.148 0 .051.38.736.846 1.521.465.786.845 1.444.845 1.463 0 .019.462.813 1.027 1.765a141.56 141.56 0 011.37 2.35c.19.341.49.849.664 1.128l.318.507.002-4.416c.003-5.237-.096-4.774 1.017-4.774 1.12 0 1.015-.673 1.015 6.444 0 7.023.08 6.523-1.048 6.523h-.814zm8.057 1.666c-.044-.043-.08-2.557-.08-5.585V4.059h-1.622c-1.836 0-1.761.04-1.758-.94.003-.932-.323-.87 4.46-.838l4.277.03.034.714c.048 1.034.049 1.034-1.795 1.034h-1.563l-.03 5.553-.029 5.553-.907.032c-.5.018-.943-.003-.987-.047zm7.096-.18c-.09-.334-.092-12.304-.003-12.537.06-.158.483-.179 3.595-.179h3.527l.068.254c.39 1.46.234 1.55-2.696 1.55h-2.533v3.383h1.908c2.404 0 2.264-.06 2.264.97v.834h-4.172v4.168l2.678.03 2.678.03v1.692l-3.623.03-3.623.03zm19.216.038c-.129-.24-.173-12.033-.047-12.504.066-.247.111-.257 1.042-.226l.972.033v12.854l-.924.033c-.823.029-.937.008-1.043-.19z" stroke-width=".936" fill="#2450a3"/></svg>