<?xml version="1.0" encoding="UTF-8" standalone="no"?>
<!-- Created with Inkscape (http://www.inkscape.org/) -->

<svg
   width="124.40554mm"
   height="50.857841mm"
   viewBox="0 0 124.40554 50.857841"
   version="1.1"
   id="svg5"
   xml:space="preserve"
   xmlns="http://www.w3.org/2000/svg"
   xmlns:svg="http://www.w3.org/2000/svg"><defs
     id="defs2" /><g
     id="layer1"
     style="display:inline"
     transform="translate(-33.676481,-68.840443)"><path
       style="display:inline;fill:none;stroke:#e1d5bd;stroke-width:0.465;stroke-linecap:butt;stroke-linejoin:round;stroke-dasharray:none;stroke-opacity:1"
       d="M 73.209854,119.65989 V 88.575161 l 44.292666,-0.01017 V 69.080696 h 0.92034 l 0.0399,42.899844 39.51601,0.0148"
       id="path3089" /><path
       style="fill:none;stroke:#e1d5bd;stroke-width:0.465;stroke-linecap:butt;stroke-linejoin:round;stroke-dasharray:none;stroke-opacity:1"
       d="m 74.104274,119.65989 0.0011,-30.182133 43.394606,0.01412 0.0493,23.400183 40.42955,0.003"
       id="path3138" /><g
       id="g225"
       transform="matrix(0.98736751,0,0,0.98736751,-0.1123828,20.417621)"
       style="display:inline;stroke-width:1.21535;stroke-dasharray:none"><path
         style="display:inline;fill:#7c87b7;stroke-width:1.21535;stroke-dasharray:none"
         d="m 88.63865,83.109617 -1.872006,0.01021 -0.02661,-0.02661 -0.02661,-0.02661 v -0.07167 -0.07167 l 0.290328,-0.777623 0.290333,-0.777623 0.695523,-1.869103 0.695518,-1.869102 0.03796,-0.09197 0.03796,-0.09197 0.358042,-0.970462 0.358037,-0.970463 0.247257,-0.668942 0.24726,-0.668942 0.114059,-0.295121 0.114054,-0.295122 h 3.50016 3.50016 c 0.0069,1.068995 0.01371,2.137991 0.02056,3.206986 h -2.215059 -2.215064 l -0.04968,0.127886 -0.04968,0.127886 -0.44764,1.27886 -0.447641,1.278859 -0.43757,1.23951 -0.437571,1.23951 -0.117647,0.334471 -0.117647,0.334471 -0.08739,0.177073 -0.08739,0.177073 z m 31.28259,-0.226636 h -0.0362 V 81.268416 79.65385 l 0.0492,-0.01493 0.0492,-0.01493 0.51178,-0.159056 0.51179,-0.159055 0.4326,-0.212529 0.4326,-0.212528 0.25578,-0.16536 0.25577,-0.165359 0.39072,-0.322418 0.39071,-0.322418 0.25242,-0.295121 0.25242,-0.295122 0.236,-0.352288 0.23601,-0.352288 0.1685,-0.336329 0.16851,-0.336328 0.1396,-0.37382 0.13961,-0.373821 0.11737,-0.452519 0.11737,-0.45252 0.0815,-0.491869 0.0815,-0.491869 0.0399,-0.472194 0.0399,-0.472194 3.9e-4,-0.344309 4e-4,-0.344308 h 1.96747 1.96748 l -4e-4,0.22626 -3.9e-4,0.226259 -0.0388,0.550894 -0.0388,0.550893 -0.0627,0.511544 -0.0627,0.511544 -0.13772,0.629592 -0.13772,0.629592 -0.19428,0.583771 -0.19427,0.58377 -0.2,0.439318 -0.20001,0.439317 -0.15954,0.295121 -0.15954,0.295121 -0.24248,0.373821 -0.24248,0.37382 -0.25279,0.313612 -0.25278,0.313612 -0.41435,0.414354 -0.41436,0.414355 -0.31031,0.249313 -0.31031,0.249314 -0.33777,0.225997 -0.33777,0.225997 -0.3935,0.218763 -0.3935,0.218763 -0.49743,0.21915 -0.49744,0.21915 -0.46663,0.155928 -0.46662,0.155929 -0.3935,0.09955 -0.39349,0.09955 -0.50489,0.100322 -0.50488,0.100322 h -0.0362 z M 73.000114,79.921972 h -1.869102 v -3.610413 -3.580807 h 1.869102 1.869103 v 3.580807 3.610413 z M 51.967793,75.957413 H 50.118365 V 71.27482 66.592226 h 1.849428 1.849428 v 1.554307 1.554306 h 2.656093 2.656093 v 1.593655 1.593656 h -2.656093 -2.656093 v 1.534632 1.534631 z m 21.03256,-6.374623 h -1.869341 v -3.108997 -3.150868 l 1.859265,0.01022 1.859265,0.01022 0.01008,3.140645 0.01007,3.098775 z m 60.346237,-1.692029 h -2.04168 l -0.0629,-0.26561 -0.0629,-0.265609 -0.0407,-0.255772 -0.0407,-0.255772 -0.0238,-0.531218 -0.0237,-0.531219 0.0466,-0.432845 0.0466,-0.432844 0.0583,-0.284888 0.0583,-0.284888 0.0986,-0.305355 0.0986,-0.305355 0.19142,-0.393495 0.19142,-0.393496 0.16079,-0.236097 0.16079,-0.236097 0.22635,-0.266908 0.22636,-0.266909 0.31494,-0.267762 0.31494,-0.267761 0.32368,-0.217573 0.32368,-0.217573 0.44363,-0.21903 0.44364,-0.219031 0.47219,-0.157186 0.4722,-0.157185 0.27544,-0.06417 0.27545,-0.06417 0.19538,-0.03763 0.19539,-0.03763 0.49323,-0.05808 0.49323,-0.05808 0.0689,-3.55e-4 0.0689,-3.54e-4 v 1.613331 1.61333 l -0.14756,3.54e-4 -0.14756,3.55e-4 -0.42982,0.09749 -0.42982,0.0975 -0.25795,0.120706 -0.25794,0.120706 -0.20238,0.134334 -0.20238,0.134333 -0.27323,0.292573 -0.27323,0.292573 -0.12362,0.251096 -0.12361,0.251095 -0.0644,0.234738 -0.0644,0.234739 -0.0197,0.491869 -0.0197,0.491869 0.0591,0.275447 0.0591,0.275447 0.0865,0.229881 0.0866,0.229881 0.17262,0.252151 0.17263,0.25215 h -2.04167 z"
         id="path229" /><path
         style="display:inline;fill:#394752;stroke-width:1.21535;stroke-dasharray:none"
         d="m 34.240832,100.55087 h -0.01967 v -0.0197 -0.0197 h 0.01967 0.01967 v 0.0197 0.0197 z m 125.957828,0 h -0.0197 v -0.0197 -0.0197 h 0.0197 0.0197 v 0.0197 0.0197 z m -22.77745,-17.140972 -0.83229,0.01423 -0.29512,-0.01387 -0.29513,-0.01387 -0.57056,-0.04258 -0.57057,-0.04258 -0.54432,-0.07801 -0.54432,-0.07801 -0.38039,-0.0776 -0.3804,-0.0776 -0.49187,-0.136311 -0.49187,-0.136311 -0.47219,-0.179396 -0.4722,-0.179396 -0.14756,-0.09756 -0.14756,-0.09756 v -1.711146 -1.711146 h 0.0579 0.0579 l 0.20775,0.0949 0.20775,0.09489 0.3935,0.155089 0.39349,0.155088 0.29512,0.101296 0.29512,0.101297 0.3935,0.117681 0.39349,0.117681 0.29513,0.07898 0.29512,0.07898 0.68861,0.138179 0.68862,0.138178 0.5547,0.06152 0.55471,0.06152 0.82253,-7.67e-4 0.82253,-7.68e-4 0.41403,-0.05513 0.41404,-0.05513 0.32733,-0.08357 0.32733,-0.08357 0.28172,-0.124093 0.28172,-0.124093 0.23933,-0.148964 0.23934,-0.148964 0.21983,-0.23047 0.21983,-0.230469 0.16101,-0.24912 0.16102,-0.24912 0.10412,-0.317881 0.10413,-0.317882 0.0177,-0.554606 0.0177,-0.554605 -0.0855,-0.329994 -0.0855,-0.329995 -0.13745,-0.261559 -0.13745,-0.26156 -0.20846,-0.252731 -0.20846,-0.25273 -0.25401,-0.202118 -0.254,-0.202119 -0.39972,-0.253439 -0.39973,-0.25344 -0.67993,-0.334954 -0.67993,-0.334954 -0.51155,-0.216155 -0.51154,-0.216155 -0.62959,-0.265397 -0.62959,-0.265397 -0.65305,-0.330557 -0.65305,-0.330558 -0.42907,-0.27904 -0.42906,-0.27904 -0.31479,-0.246335 -0.3148,-0.246334 -0.41358,-0.427741 -0.41357,-0.427741 -0.22049,-0.334471 -0.22049,-0.334471 -0.12323,-0.244451 -0.12323,-0.244451 -0.11522,-0.290041 -0.11522,-0.29004 -0.0271,-0.144288 -0.0271,-0.144287 h 2.03127 2.03127 l 0.29339,0.272042 0.2934,0.272042 0.35756,0.239166 0.35756,0.239166 0.69637,0.346823 0.69638,0.346823 1.23951,0.527502 1.23951,0.527503 0.74764,0.377464 0.74764,0.377463 0.37225,0.231652 0.37226,0.231651 0.37971,0.286033 0.37971,0.286033 0.37203,0.391266 0.37202,0.391265 0.22893,0.344032 0.22892,0.344031 0.1475,0.31927 0.14751,0.31927 0.10561,0.334094 0.10562,0.334095 0.0565,0.268309 0.0565,0.268309 0.0462,0.567868 0.0462,0.567868 -0.0462,0.560731 -0.0462,0.560731 -0.0948,0.41317 -0.0948,0.41317 -0.10686,0.295121 -0.10686,0.295122 -0.15667,0.314796 -0.15667,0.314796 -0.21714,0.328332 -0.21715,0.328332 -0.35705,0.373485 -0.35706,0.373486 -0.37579,0.282948 -0.37579,0.282948 -0.43284,0.240334 -0.43285,0.240333 -0.46682,0.183951 -0.46684,0.18395 -0.4819,0.132076 -0.48191,0.132076 -0.48752,0.08003 -0.48752,0.08003 -0.38754,0.04196 -0.38754,0.04197 -0.8323,0.01423 z m -85.441042,-0.221637 -1.852879,0.01023 -0.0033,-7.241098 h 1.846802 1.846803 l -0.01004,3.610319 -0.01004,3.610318 z m 14.322258,10e-7 -1.818322,0.01023 -0.04124,-0.07705 -0.04124,-0.07706 0.01013,-5.078126 0.01013,-5.078127 -2.646256,2e-6 -2.646255,10e-7 v -1.589066 l 3.4e-5,-1.598227 c 0,0 3.399101,0.01431 5.27281,0.01392 v -4.66934 -4.616048 l 0.04919,-0.06703 0.04919,-0.06703 1.810078,0.01032 1.810078,0.01032 V 71.747014 83.17805 Z m 39.503374,-0.06925 h -1.92271 l -0.0457,-0.08854 -0.0457,-0.08854 -0.0626,-0.177073 -0.0626,-0.177072 -0.17732,-0.491869 -0.17733,-0.491869 -0.11075,-0.314797 -0.11075,-0.314796 -0.42024,-1.160811 -0.42024,-1.160811 -0.29365,-0.82634 -0.29365,-0.82634 -0.0471,-0.108211 -0.0471,-0.108211 h -2.173428 l -2.174297,7.8e-5 c -0.0061,-1.069 -0.01337,-2.137993 -0.02056,-3.206986 l 1.682224,-0.01977 1.682201,1.3e-5 v -0.03304 -0.03304 l -0.31344,-0.921186 -0.313446,-0.921187 -0.260379,-0.747641 -0.260376,-0.747641 -0.446125,-1.298534 -0.44613,-1.298534 -0.215253,-0.629593 -0.215258,-0.629592 -0.08742,-0.275447 -0.08742,-0.275446 -0.309161,-1.016221 -0.309161,-1.01622 -0.02536,-0.135188 -0.02536,-0.135188 -0.02803,-0.01732 -0.02803,-0.01732 -0.09018,0.381741 -0.09019,0.381741 -0.210252,0.752743 -0.210248,0.752743 -0.196,0.604815 -0.196004,0.604816 -0.399571,1.160811 -0.399575,1.160811 -0.170726,0.491869 -0.170726,0.491869 -0.242483,0.688616 -0.242484,0.688617 -0.306855,0.885364 c -0.126632,0.369157 -0.396023,1.121676 -0.396023,1.121676 0,0 -2.448719,-7.35e-4 -3.673079,-1.41e-4 0,0 0.262001,-0.723216 0.371783,-1.024643 l 0.350282,-0.942914 0.116104,-0.314797 0.116105,-0.314796 0.319133,-0.865689 0.319132,-0.86569 0.174795,-0.452519 0.174794,-0.45252 0.49645,-1.337884 0.496449,-1.337883 0.189535,-0.511544 0.189535,-0.511544 0.597884,-1.593656 0.597885,-1.593655 0.213459,-0.588404 0.213455,-0.588403 0.06398,-0.0707 0.06399,-0.0707 h 1.976232 1.976235 l 0.03926,0.04919 0.03925,0.04919 0.419521,1.141137 0.419517,1.141136 0.0549,0.137723 0.0549,0.137723 0.35414,0.944389 0.35414,0.944389 0.0777,0.216422 0.0777,0.216422 0.22256,0.590243 0.22257,0.590243 0.0915,0.255772 0.0915,0.255772 0.36302,0.964063 0.363,0.964063 0.17665,0.472195 0.17666,0.472194 0.13626,0.37382 0.13625,0.373821 0.13189,0.354146 0.13188,0.354145 0.67626,1.810078 0.67627,1.810078 0.43104,1.160811 0.43104,1.160811 0.68352,1.829753 0.68352,1.829753 0.41836,1.136359 0.41837,1.136359 -0.0207,0.05396 -0.0207,0.05396 z m -28.230598,-0.03935 h -6.425101 l -0.01891,-0.04928 -0.01891,-0.04928 0.01031,-1.534538 0.01031,-1.534537 6.431737,0.01505 6.413973,0.01505 0.04919,0.03895 0.04919,0.03895 v 1.482594 1.482594 l -0.04722,0.04722 -0.04722,0.04722 z m 36.711558,0 h -3.67509 l -0.0262,-0.02623 -0.0262,-0.02623 V 71.644404 60.261598 l 0.0492,-0.03184 0.0492,-0.03183 3.36438,-0.01234 3.36439,-0.01234 0.96406,0.04249 0.96407,0.04249 0.46391,0.05755 0.4639,0.05755 0.57886,0.116873 0.57885,0.116872 0.49187,0.141037 0.49187,0.141037 0.43284,0.162471 0.43285,0.16247 0.53673,0.268701 0.53672,0.2687 0.42734,0.281248 0.42733,0.281247 0.3935,0.324009 0.3935,0.324009 0.375,0.388697 0.37501,0.388698 0.22094,0.275447 0.22094,0.275446 0.24706,0.373821 0.24706,0.37382 0.22667,0.432845 0.22666,0.432845 0.17782,0.435779 0.17782,0.435779 0.1026,0.311862 0.10261,0.311862 0.11393,0.452519 0.11393,0.45252 0.0619,0.354145 0.0619,0.354146 0.0603,0.491869 0.0603,0.491869 0.023,0.836178 0.0231,0.836177 h -1.97326 -1.97326 l -3.9e-4,-0.462357 -4e-4,-0.462357 -0.0399,-0.472194 -0.0399,-0.472194 -0.0806,-0.49187 -0.0806,-0.491869 -0.0963,-0.384144 -0.0963,-0.384145 -0.15754,-0.442195 -0.15754,-0.442196 -0.16513,-0.33447 -0.16514,-0.334471 -0.22361,-0.334471 -0.22361,-0.334471 -0.2761,-0.31862 -0.27611,-0.318619 -0.30883,-0.257584 -0.30883,-0.257584 -0.24669,-0.163857 -0.24669,-0.163858 -0.38217,-0.188579 -0.38217,-0.18858 -0.27545,-0.102736 -0.27545,-0.102735 -0.45706,-0.118338 -0.45706,-0.118338 -0.507,-0.08601 -0.507,-0.08601 -2.25277,-0.01671 -2.25276,-0.01671 v 8.33045 8.330451 l 1.85927,-0.0222 1.85926,-0.0222 0.49187,-0.06053 0.49187,-0.06053 0.41317,-0.07325 0.41317,-0.07325 0.0295,0.01564 0.0295,0.01564 v 1.588207 1.588207 l -0.10821,0.02065 -0.10822,0.02065 -0.27544,0.04064 -0.27545,0.04064 -0.57794,0.04021 -0.57794,0.04021 h -3.67509 z M 77.268574,72.730752 h -6.085096 -0.05247 l 6e-6,-0.05246 v -1.54787 -1.547871 l 6.168038,0.01 6.168038,0.01 0.01038,1.514957 0.01038,1.514956 -0.06709,0.04919 -0.06709,0.04919 z M 51.972941,66.592226 h -1.844279 l -0.02439,-0.14756 -0.02439,-0.147561 0.0042,-2.872515 0.0042,-2.872515 0.02524,-0.118049 0.02524,-0.118049 1.785504,-0.01024 1.785504,-0.01024 0.05371,0.04457 0.05371,0.04457 v 3.103794 3.103794 z m 91.856319,-2.28453 -0.0394,-0.0011 -0.33447,-0.135876 -0.33447,-0.135877 -0.71514,-0.236643 -0.71513,-0.236644 -0.56373,-0.135787 -0.56372,-0.135787 -0.49187,-0.08289 -0.49187,-0.08289 -0.89564,-0.02242 -0.89466,0.02769 v -1.61333 -1.613331 l 0.29506,-0.01505 0.27545,-0.03467 0.84601,0.04527 0.84602,0.04528 0.55089,0.07517 0.55089,0.07517 0.4722,0.102078 0.47219,0.102079 0.43285,0.115177 0.43284,0.115177 0.53122,0.17518 0.53122,0.17518 0.41317,0.164065 0.41317,0.164066 0.0885,0.05708 0.0885,0.05708 v 0.09667 0.09667 l -0.15568,0.384456 -0.15568,0.384456 -0.37869,0.983364 -0.37869,0.983364 -0.046,0.02928 -0.046,0.02928 -0.0393,-0.0011 z m -66.230453,-0.969587 -6.419173,0.02361 -0.02431,-0.02431 -0.02431,-0.02431 v -1.505181 -1.50518 l 0.02388,-0.06224 0.02389,-0.06224 h 6.425228 6.425226 l 0.02389,0.06224 0.02389,0.06224 -5.91e-4,1.462552 -5.9e-4,1.462551 -0.02891,0.04333 -0.02891,0.04333 -6.419175,0.02361 z M 34.240832,49.081689 h -0.01967 v -0.01967 -0.01967 h 0.01967 0.01967 v 0.01967 0.01967 z m 125.957828,0 h -0.0197 v -0.01967 -0.01967 h 0.0197 0.0197 v 0.01967 0.01967 z"
         id="path227" /></g><g
       aria-label="PhD PROGRAMME IN HEALTH DATA SCIENCE"
       id="text7502"
       style="font-size:2.54024px;line-height:1.25;font-family:'Open Sans';-inkscape-font-specification:'Open Sans, Normal';font-variant-ligatures:none;letter-spacing:0px;word-spacing:0px;display:inline;fill:#394752;stroke-width:0.264582"><path
         d="m 66.949243,105.74384 q 0.394897,0 0.576299,0.15489 0.182796,0.1535 0.182796,0.44095 0,0.12977 -0.04326,0.24698 -0.04186,0.11582 -0.136749,0.20513 -0.09489,0.0879 -0.249775,0.13954 -0.153494,0.0502 -0.376757,0.0502 h -0.248381 v 0.80235 h -0.237217 v -2.04007 z m -0.02233,0.20234 h -0.273498 v 0.83165 h 0.221868 q 0.195356,0 0.325127,-0.0419 0.131168,-0.0419 0.196751,-0.13535 0.06558,-0.0949 0.06558,-0.25117 0,-0.20373 -0.129772,-0.3028 -0.129772,-0.10047 -0.40606,-0.10047 z"
         style="font-size:2.85777px"
         id="path821" /><path
         d="m 68.33208,105.61268 v 0.64886 q 0,0.0558 -0.0028,0.11302 -0.0028,0.0558 -0.0098,0.10326 h 0.01535 q 0.04744,-0.0809 0.120004,-0.13535 0.07396,-0.0558 0.167448,-0.0837 0.09349,-0.0293 0.198146,-0.0293 0.184192,0 0.306987,0.0586 0.12419,0.0586 0.185587,0.1814 0.06279,0.12279 0.06279,0.31815 v 0.99631 h -0.228845 v -0.98096 q 0,-0.19117 -0.08791,-0.28606 -0.08651,-0.0949 -0.26652,-0.0949 -0.170238,0 -0.272102,0.0656 -0.100469,0.0642 -0.145121,0.18977 -0.04326,0.12559 -0.04326,0.30699 v 0.79956 h -0.231635 v -2.17123 z"
         style="font-size:2.85777px"
         id="path823" /><path
         d="m 71.508,106.74434 q 0,0.34467 -0.125585,0.5763 -0.125586,0.23024 -0.364198,0.34745 -0.237218,0.11582 -0.576299,0.11582 h -0.553972 v -2.04007 h 0.61537 q 0.311173,0 0.535832,0.11443 0.224658,0.11302 0.346058,0.33629 0.122794,0.22187 0.122794,0.54978 z m -0.249775,0.008 q 0,-0.2749 -0.0921,-0.45351 -0.0907,-0.17861 -0.267916,-0.26512 -0.17582,-0.0879 -0.431178,-0.0879 h -0.341871 v 1.634 h 0.288846 q 0.42141,0 0.632115,-0.20791 0.2121,-0.20791 0.2121,-0.61955 z"
         style="font-size:2.85777px"
         id="path825" /><path
         d="m 73.236895,105.74384 q 0.394897,0 0.576299,0.15489 0.182796,0.1535 0.182796,0.44095 0,0.12977 -0.04326,0.24698 -0.04186,0.11582 -0.136749,0.20513 -0.09489,0.0879 -0.249775,0.13954 -0.153494,0.0502 -0.376757,0.0502 h -0.248381 v 0.80235 h -0.237217 v -2.04007 z m -0.02233,0.20234 h -0.273498 v 0.83165 h 0.221868 q 0.195356,0 0.325127,-0.0419 0.131168,-0.0419 0.196751,-0.13535 0.06558,-0.0949 0.06558,-0.25117 0,-0.20373 -0.129772,-0.3028 -0.129772,-0.10047 -0.40606,-0.10047 z"
         style="font-size:2.85777px"
         id="path827" /><path
         d="m 74.974163,105.74384 q 0.251171,0 0.414433,0.0628 0.164656,0.0614 0.245589,0.18838 0.08093,0.12698 0.08093,0.32373 0,0.16186 -0.05861,0.2707 -0.05861,0.10745 -0.153493,0.17443 -0.09489,0.067 -0.202332,0.10326 l 0.559553,0.91677 h -0.276288 l -0.499552,-0.85119 h -0.4242 v 0.85119 h -0.237217 v -2.04007 z m -0.01395,0.20513 h -0.30001 v 0.78281 h 0.323732 q 0.249776,0 0.366989,-0.10186 0.118608,-0.10186 0.118608,-0.30001 0,-0.20791 -0.125585,-0.29443 -0.12419,-0.0865 -0.383734,-0.0865 z"
         style="font-size:2.85777px"
         id="path829" /><path
         d="m 77.956123,106.76109 q 0,0.23582 -0.06,0.42978 -0.06,0.19256 -0.178611,0.3321 -0.117213,0.13815 -0.291637,0.2135 -0.174425,0.0754 -0.404665,0.0754 -0.237217,0 -0.414432,-0.0754 -0.17582,-0.0754 -0.293033,-0.21489 -0.115818,-0.13954 -0.174425,-0.3335 -0.05721,-0.19396 -0.05721,-0.42978 0,-0.31257 0.103259,-0.54839 0.103259,-0.23583 0.312569,-0.36699 0.210704,-0.13117 0.527459,-0.13117 0.302801,0 0.50932,0.12977 0.207913,0.12977 0.313964,0.3656 0.107445,0.23442 0.107445,0.55397 z m -1.62424,0 q 0,0.25954 0.07396,0.44932 0.07396,0.18977 0.226054,0.29303 0.153493,0.10326 0.389315,0.10326 0.237217,0 0.38792,-0.10326 0.152098,-0.10326 0.224659,-0.29303 0.07256,-0.18978 0.07256,-0.44932 0,-0.3949 -0.166052,-0.61677 -0.164657,-0.22326 -0.514901,-0.22326 -0.237217,0 -0.390711,0.10186 -0.153493,0.10187 -0.228844,0.29025 -0.07396,0.18698 -0.07396,0.44792 z"
         style="font-size:2.85777px"
         id="path831" /><path
         d="m 79.281749,106.71504 h 0.713047 v 0.98934 q -0.160471,0.0544 -0.330709,0.0809 -0.168843,0.0265 -0.378152,0.0265 -0.31815,0 -0.537227,-0.12698 -0.217682,-0.12698 -0.330709,-0.36141 -0.113027,-0.23582 -0.113027,-0.55955 0,-0.31676 0.12419,-0.55258 0.125586,-0.23582 0.361408,-0.36559 0.237217,-0.13117 0.569321,-0.13117 0.170238,0 0.322336,0.0321 0.153494,0.0307 0.284661,0.0879 l -0.0907,0.20651 q -0.113027,-0.0488 -0.249776,-0.0837 -0.135353,-0.0349 -0.280474,-0.0349 -0.249776,0 -0.428386,0.10325 -0.177216,0.10326 -0.272103,0.29164 -0.09349,0.18838 -0.09349,0.44653 0,0.25536 0.08233,0.44513 0.08233,0.18838 0.256753,0.29303 0.174425,0.10466 0.449317,0.10466 0.138145,0 0.237218,-0.0153 0.09907,-0.0168 0.180006,-0.0391 v -0.62514 h -0.47583 z"
         style="font-size:2.85777px"
         id="path833" /><path
         d="m 81.038551,105.74384 q 0.251172,0 0.414433,0.0628 0.164656,0.0614 0.245589,0.18838 0.08093,0.12698 0.08093,0.32373 0,0.16186 -0.05861,0.2707 -0.05861,0.10745 -0.153494,0.17443 -0.09489,0.067 -0.202332,0.10326 l 0.559554,0.91677 h -0.276289 l -0.499551,-0.85119 h -0.424201 v 0.85119 H 80.48737 v -2.04007 z m -0.01395,0.20513 h -0.30001 v 0.78281 h 0.323732 q 0.249776,0 0.366989,-0.10186 0.118609,-0.10186 0.118609,-0.30001 0,-0.20791 -0.125586,-0.29443 -0.12419,-0.0865 -0.383734,-0.0865 z"
         style="font-size:2.85777px"
         id="path835" /><path
         d="m 83.530727,107.78391 -0.251171,-0.64746 h -0.817701 l -0.249776,0.64746 h -0.240008 l 0.798166,-2.04844 h 0.213495 l 0.792585,2.04844 z m -0.322336,-0.85817 -0.238613,-0.64327 q -0.0084,-0.0251 -0.02791,-0.0823 -0.01814,-0.0572 -0.03768,-0.11861 -0.01954,-0.0614 -0.03209,-0.0991 -0.01395,0.0572 -0.0307,0.11442 -0.01535,0.0558 -0.0307,0.10465 -0.01535,0.0474 -0.02651,0.0809 l -0.242799,0.64327 z"
         style="font-size:2.85777px"
         id="path837" /><path
         d="m 84.955426,107.78391 -0.685139,-1.80564 h -0.01116 q 0.0056,0.0572 0.0098,0.13954 0.0042,0.0823 0.007,0.18001 0.0028,0.0963 0.0028,0.19675 v 1.28934 h -0.220473 v -2.04007 h 0.35164 l 0.646068,1.69681 h 0.0098 l 0.655836,-1.69681 h 0.348848 v 2.04007 h -0.234426 v -1.30609 q 0,-0.0907 0.0028,-0.1814 0.0028,-0.0921 0.007,-0.17303 0.0042,-0.0823 0.0084,-0.14233 h -0.01116 l -0.693512,1.80285 z"
         style="font-size:2.85777px"
         id="path839" /><path
         d="m 87.525745,107.78391 -0.68514,-1.80564 h -0.01116 q 0.0056,0.0572 0.0098,0.13954 0.0042,0.0823 0.007,0.18001 0.0028,0.0963 0.0028,0.19675 v 1.28934 h -0.220473 v -2.04007 h 0.35164 l 0.646068,1.69681 h 0.0098 l 0.655836,-1.69681 h 0.348849 v 2.04007 h -0.234427 v -1.30609 q 0,-0.0907 0.0028,-0.1814 0.0028,-0.0921 0.007,-0.17303 0.0042,-0.0823 0.0084,-0.14233 h -0.01116 l -0.693511,1.80285 z"
         style="font-size:2.85777px"
         id="path841" /><path
         d="m 90.334676,107.78391 h -1.135852 v -2.04007 h 1.135852 v 0.20931 h -0.898635 v 0.66003 h 0.847005 v 0.20651 h -0.847005 v 0.75491 h 0.898635 z"
         style="font-size:2.85777px"
         id="path843" /><path
         d="m 91.529134,107.78391 v -2.04007 h 0.237218 v 2.04007 z"
         style="font-size:2.85777px"
         id="path845" /><path
         d="M 93.922238,107.78391 H 93.64874 l -1.11213,-1.71354 h -0.01116 q 0.0042,0.0684 0.0098,0.15628 0.0056,0.0865 0.0084,0.18559 0.0042,0.0977 0.0042,0.19954 v 1.17213 h -0.220472 v -2.04007 h 0.272102 l 1.107944,1.70797 h 0.0098 q -0.0028,-0.0488 -0.007,-0.13815 -0.0042,-0.0907 -0.0084,-0.19396 -0.0028,-0.10465 -0.0028,-0.19396 v -1.1819 h 0.223264 z"
         style="font-size:2.85777px"
         id="path847" /><path
         d="m 96.767449,107.78391 h -0.237217 v -0.96142 h -1.071663 v 0.96142 h -0.237218 v -2.04007 h 0.237218 v 0.86934 h 1.071663 v -0.86934 h 0.237217 z"
         style="font-size:2.85777px"
         id="path849" /><path
         d="m 98.464249,107.78391 h -1.135852 v -2.04007 h 1.135852 v 0.20931 h -0.898634 v 0.66003 h 0.847005 v 0.20651 h -0.847005 v 0.75491 h 0.898634 z"
         style="font-size:2.85777px"
         id="path851" /><path
         d="m 100.19594,107.78391 -0.251175,-0.64746 h -0.817702 l -0.249775,0.64746 H 98.63728 l 0.798166,-2.04844 h 0.213495 l 0.792589,2.04844 z m -0.32234,-0.85817 -0.238613,-0.64327 q -0.0084,-0.0251 -0.02791,-0.0823 -0.01814,-0.0572 -0.03767,-0.11861 -0.01954,-0.0614 -0.03209,-0.0991 -0.01395,0.0572 -0.0307,0.11442 -0.01535,0.0558 -0.0307,0.10465 -0.01535,0.0474 -0.02651,0.0809 l -0.242799,0.64327 z"
         style="font-size:2.85777px"
         id="path853" /><path
         d="m 100.7234,107.78391 v -2.04007 h 0.23721 v 1.82797 h 0.90561 v 0.2121 z"
         style="font-size:2.85777px"
         id="path855" /><path
         d="m 102.8416,107.78391 h -0.23861 v -1.83076 h -0.64188 v -0.20931 h 1.51959 v 0.20931 h -0.6391 z"
         style="font-size:2.85777px"
         id="path857" /><path
         d="m 105.33518,107.78391 h -0.23722 v -0.96142 h -1.07166 v 0.96142 h -0.23722 v -2.04007 h 0.23722 v 0.86934 h 1.07166 v -0.86934 h 0.23722 z"
         style="font-size:2.85777px"
         id="path859" /><path
         d="m 108.25853,106.74434 q 0,0.34467 -0.12558,0.5763 -0.12559,0.23024 -0.3642,0.34745 -0.23722,0.11582 -0.5763,0.11582 h -0.55397 v -2.04007 h 0.61537 q 0.31117,0 0.53583,0.11443 0.22466,0.11302 0.34606,0.33629 0.12279,0.22187 0.12279,0.54978 z m -0.24977,0.008 q 0,-0.2749 -0.0921,-0.45351 -0.0907,-0.17861 -0.26792,-0.26512 -0.17582,-0.0879 -0.43117,-0.0879 h -0.34188 v 1.634 h 0.28885 q 0.42141,0 0.63212,-0.20791 0.2121,-0.20791 0.2121,-0.61955 z"
         style="font-size:2.85777px"
         id="path861" /><path
         d="m 109.99161,107.78391 -0.25117,-0.64746 h -0.8177 l -0.24978,0.64746 h -0.24 l 0.79816,-2.04844 h 0.2135 l 0.79258,2.04844 z m -0.32233,-0.85817 -0.23862,-0.64327 q -0.008,-0.0251 -0.0279,-0.0823 -0.0181,-0.0572 -0.0377,-0.11861 -0.0195,-0.0614 -0.0321,-0.0991 -0.014,0.0572 -0.0307,0.11442 -0.0153,0.0558 -0.0307,0.10465 -0.0153,0.0474 -0.0265,0.0809 l -0.2428,0.64327 z"
         style="font-size:2.85777px"
         id="path863" /><path
         d="m 111.14561,107.78391 h -0.23862 v -1.83076 h -0.64188 v -0.20931 h 1.51959 v 0.20931 h -0.63909 z"
         style="font-size:2.85777px"
         id="path865" /><path
         d="m 113.37266,107.78391 -0.25118,-0.64746 h -0.8177 l -0.24977,0.64746 H 111.814 l 0.79817,-2.04844 h 0.21349 l 0.79259,2.04844 z m -0.32234,-0.85817 -0.23861,-0.64327 q -0.008,-0.0251 -0.0279,-0.0823 -0.0181,-0.0572 -0.0377,-0.11861 -0.0195,-0.0614 -0.0321,-0.0991 -0.0139,0.0572 -0.0307,0.11442 -0.0153,0.0558 -0.0307,0.10465 -0.0153,0.0474 -0.0265,0.0809 l -0.2428,0.64327 z"
         style="font-size:2.85777px"
         id="path867" /><path
         d="m 115.79366,107.2411 q 0,0.18141 -0.0907,0.30978 -0.0893,0.12698 -0.25117,0.19396 -0.16186,0.067 -0.38094,0.067 -0.11582,0 -0.21908,-0.0112 -0.10326,-0.0112 -0.18977,-0.0321 -0.0865,-0.0209 -0.1521,-0.0516 v -0.22745 q 0.10466,0.0433 0.25536,0.0809 0.1507,0.0363 0.31536,0.0363 0.15349,0 0.25954,-0.0405 0.10605,-0.0419 0.16047,-0.11861 0.0558,-0.0781 0.0558,-0.18698 0,-0.10466 -0.046,-0.17443 -0.0461,-0.0712 -0.15349,-0.12837 -0.10605,-0.0586 -0.29025,-0.12419 -0.12977,-0.0461 -0.22884,-0.10047 -0.0991,-0.0558 -0.16605,-0.12559 -0.067,-0.0698 -0.10187,-0.16186 -0.0335,-0.0921 -0.0335,-0.21071 0,-0.16326 0.0823,-0.27908 0.0837,-0.11721 0.23024,-0.17861 0.14791,-0.0628 0.33908,-0.0628 0.16326,0 0.30141,0.0307 0.13954,0.0307 0.25536,0.0823 l -0.074,0.20373 q -0.11024,-0.0461 -0.23443,-0.0768 -0.12279,-0.0307 -0.25396,-0.0307 -0.13117,0 -0.22187,0.0391 -0.0893,0.0377 -0.13675,0.10745 -0.0474,0.0698 -0.0474,0.16605 0,0.10744 0.0447,0.17861 0.046,0.0712 0.14513,0.12698 0.10046,0.0544 0.26512,0.11442 0.18001,0.0656 0.30559,0.13954 0.12559,0.0726 0.19117,0.17861 0.0656,0.10466 0.0656,0.26652 z"
         style="font-size:2.85777px"
         id="path869" /><path
         d="m 117.08162,105.92385 q -0.16885,0 -0.3042,0.0586 -0.13396,0.0572 -0.22884,0.16744 -0.0935,0.10885 -0.14373,0.26373 -0.0502,0.15489 -0.0502,0.34885 0,0.25676 0.0795,0.44653 0.0809,0.18838 0.24001,0.29164 0.16047,0.10326 0.40048,0.10326 0.13675,0 0.25675,-0.0223 0.1214,-0.0237 0.23583,-0.0586 v 0.20652 q -0.11164,0.0419 -0.23443,0.0614 -0.1228,0.0209 -0.29164,0.0209 -0.31117,0 -0.52048,-0.12838 -0.20792,-0.12977 -0.31257,-0.36559 -0.10326,-0.23582 -0.10326,-0.55676 0,-0.23164 0.0642,-0.42281 0.0656,-0.19256 0.18977,-0.3321 0.12559,-0.13954 0.30699,-0.21489 0.1828,-0.0768 0.41862,-0.0768 0.15489,0 0.29861,0.0307 0.14373,0.0307 0.25955,0.0879 l -0.0949,0.20094 q -0.0977,-0.0447 -0.21489,-0.0768 -0.11582,-0.0335 -0.25117,-0.0335 z"
         style="font-size:2.85777px"
         id="path871" /><path
         d="m 118.00956,107.78391 v -2.04007 h 0.23721 v 2.04007 z"
         style="font-size:2.85777px"
         id="path873" /><path
         d="m 119.94357,107.78391 h -1.13585 v -2.04007 h 1.13585 v 0.20931 h -0.89863 v 0.66003 h 0.847 v 0.20651 h -0.847 v 0.75491 h 0.89863 z"
         style="font-size:2.85777px"
         id="path875" /><path
         d="m 121.99062,107.78391 h -0.2735 l -1.11213,-1.71354 h -0.0112 q 0.004,0.0684 0.01,0.15628 0.006,0.0865 0.008,0.18559 0.004,0.0977 0.004,0.19954 v 1.17213 h -0.22047 v -2.04007 h 0.2721 l 1.10795,1.70797 h 0.01 q -0.003,-0.0488 -0.007,-0.13815 -0.004,-0.0907 -0.008,-0.19396 -0.003,-0.10465 -0.003,-0.19396 v -1.1819 h 0.22327 z"
         style="font-size:2.85777px"
         id="path877" /><path
         d="m 123.4195,105.92385 q -0.16884,0 -0.30419,0.0586 -0.13396,0.0572 -0.22885,0.16744 -0.0935,0.10885 -0.14372,0.26373 -0.0502,0.15489 -0.0502,0.34885 0,0.25676 0.0795,0.44653 0.0809,0.18838 0.24001,0.29164 0.16047,0.10326 0.40048,0.10326 0.13675,0 0.25675,-0.0223 0.1214,-0.0237 0.23582,-0.0586 v 0.20652 q -0.11163,0.0419 -0.23442,0.0614 -0.1228,0.0209 -0.29164,0.0209 -0.31118,0 -0.52048,-0.12838 -0.20792,-0.12977 -0.31257,-0.36559 -0.10326,-0.23582 -0.10326,-0.55676 0,-0.23164 0.0642,-0.42281 0.0656,-0.19256 0.18977,-0.3321 0.12558,-0.13954 0.30699,-0.21489 0.18279,-0.0768 0.41861,-0.0768 0.15489,0 0.29862,0.0307 0.14373,0.0307 0.25954,0.0879 l -0.0949,0.20094 q -0.0977,-0.0447 -0.21489,-0.0768 -0.11582,-0.0335 -0.25118,-0.0335 z"
         style="font-size:2.85777px"
         id="path879" /><path
         d="m 125.48329,107.78391 h -1.13585 v -2.04007 h 1.13585 v 0.20931 h -0.89863 v 0.66003 h 0.847 v 0.20651 h -0.847 v 0.75491 h 0.89863 z"
         style="font-size:2.85777px"
         id="path881" /></g></g></svg>
