<?xml version="1.0" encoding="UTF-8" standalone="no"?>
<!-- Created with Inkscape (http://www.inkscape.org/) -->

<svg
   width="99.231384mm"
   height="51.367764mm"
   viewBox="0 0 99.231384 51.367764"
   version="1.1"
   id="svg5"
   xml:space="preserve"
   xmlns="http://www.w3.org/2000/svg"
   xmlns:svg="http://www.w3.org/2000/svg"><defs
     id="defs2" /><g
     id="layer1"
     transform="translate(-50.363454,-63.056721)"><g
       id="g179"
       transform="translate(-19.183789,-0.27978424)"><path
         style="fill:#9fc419;stroke-width:1"
         d="m 103.6507,114.56147 c -0.60467,-0.0746 -1.41744,-0.19215 -1.80616,-0.26116 l -0.70676,-0.12547 v -1.18718 c 0,-0.69554 0.0443,-1.21456 0.10701,-1.25331 0.0589,-0.0364 0.84703,0.0134 1.7515,0.1106 2.75875,0.29648 3.80124,0.12223 3.87917,-0.6484 0.0577,-0.57057 -0.10559,-0.63798 -3.13167,-1.29303 -1.33799,-0.28963 -2.00213,-0.68878 -2.4392,-1.46595 -0.30816,-0.54796 -0.32374,-0.63172 -0.32118,-1.72763 0.002,-1.00463 0.0352,-1.21807 0.25734,-1.67086 0.523,-1.06609 1.52532,-1.7297 2.94702,-1.95114 0.90626,-0.14116 2.08677,-0.0727 4.02393,0.23342 l 1.3675,0.21609 -0.0449,1.21978 c -0.0247,0.67087 -0.0575,1.23401 -0.0729,1.2514 -0.0154,0.0174 -0.691,-0.0415 -1.50134,-0.13088 -1.7857,-0.19696 -3.21909,-0.20779 -3.57649,-0.027 -0.36581,0.18503 -0.56812,0.63259 -0.41514,0.91842 0.16554,0.30932 0.57867,0.45583 2.17466,0.77119 2.72386,0.53823 3.44343,1.07764 3.68206,2.7602 0.28045,1.97744 -0.4306,3.42903 -1.95998,4.00125 -1.12181,0.41972 -2.31972,0.49353 -4.21453,0.25968 z m 10.15638,0.059 c -0.54709,-0.0458 -1.38342,-0.11779 -1.85851,-0.15993 l -0.86382,-0.0766 v -6.84727 -6.84728 h 1.51822 l 1.41354,0.004 0.028,1.42722 c 0.0258,1.31364 -0.0177,1.49593 0.25992,1.34795 1.67389,-0.64294 3.58696,-0.61285 4.75333,0.0748 1.39107,0.82006 1.90547,2.2287 1.90197,5.20847 -0.002,1.96814 -0.1539,2.8721 -0.64293,3.83399 -0.51586,1.01465 -1.38604,1.65109 -2.61355,1.91153 -0.76397,0.1621 -2.70114,0.2234 -3.89617,0.1233 z m 2.64666,-2.73396 c 0.61207,-0.16998 1.09854,-0.66105 1.27537,-1.28746 0.53313,-1.88848 0.15063,-4.18974 -0.77925,-4.68825 -0.42484,-0.22776 -1.32804,-0.25864 -2.23533,-0.0764 l -0.59334,0.11916 v 2.96196 c 0,2.73287 0.0142,2.96566 0.18324,3.00984 0.36068,0.0943 1.76119,0.069 2.14931,-0.0388 z m 9.27996,2.72848 c -2.23935,-0.35535 -3.48446,-1.70643 -3.87491,-4.20471 -0.1587,-1.01543 -0.0623,-3.30888 0.17085,-4.06684 0.71168,-2.31309 2.21825,-3.35056 4.86555,-3.35056 3.43777,0 5.11495,1.88419 5.1261,5.75877 0.009,3.13186 -1.02468,5.01029 -3.11189,5.65496 -0.77379,0.239 -2.33654,0.34155 -3.1757,0.20838 z m 2.02867,-2.65634 c 0.77697,-0.33106 1.11162,-1.06679 1.19715,-2.63191 0.0673,-1.23108 -0.0925,-2.3425 -0.42078,-2.92781 -0.33382,-0.59511 -0.80182,-0.83205 -1.63778,-0.82919 -1.05721,0.004 -1.55843,0.35927 -1.90198,1.34958 -0.19029,0.54853 -0.19854,3.17594 -0.0119,3.79079 0.16377,0.5395 0.58659,1.05912 1.01293,1.24482 0.41894,0.18248 1.33827,0.18442 1.76236,0.004 z m 7.28451,2.61646 c -1.0212,-0.21967 -1.77374,-0.8692 -2.14554,-1.85186 -0.12258,-0.32398 -0.17835,-0.81152 -0.18481,-1.61574 -0.008,-0.99163 0.0241,-1.22435 0.23097,-1.67397 0.30846,-0.67057 0.57867,-0.95439 1.21875,-1.28015 0.61323,-0.31209 1.67035,-0.50861 3.25179,-0.6045 1.59566,-0.0968 1.51822,-0.056 1.51822,-0.79844 0,-0.51923 -0.0424,-0.66832 -0.24861,-0.87455 -0.35296,-0.35296 -0.87653,-0.39839 -3.14705,-0.27305 -1.09017,0.0602 -2.00896,0.0827 -2.04174,0.05 -0.0328,-0.0327 -0.0758,-0.50018 -0.0957,-1.03888 l -0.0361,-0.97946 0.40253,-0.10732 c 1.62798,-0.43406 4.35945,-0.65104 5.49605,-0.43658 1.27341,0.24028 2.20626,0.99035 2.5209,2.02696 0.0984,0.32416 0.13373,1.48793 0.13373,4.40362 v 3.96303 l -0.52352,0.19986 c -0.84165,0.32132 -2.95835,0.81565 -3.97879,0.92919 -1.17215,0.13043 -1.62109,0.1232 -2.37116,-0.0382 z m 3.49674,-2.57553 0.39264,-0.11662 v -1.20118 c 0,-1.19026 -0.002,-1.20074 -0.23558,-1.15262 -0.12958,0.0267 -0.63601,0.079 -1.12542,0.11616 -1.08009,0.0821 -1.50488,0.24584 -1.72084,0.66346 -0.29206,0.56479 -0.12061,1.51178 0.32353,1.78694 0.22936,0.14209 1.77503,0.0793 2.36567,-0.0961 z M 91.400222,106.6052 v -7.800515 h 1.518222 1.518221 v 7.800515 7.80052 h -1.518221 -1.518222 z m 5.025837,2.25116 V 103.307 h 1.465869 1.465869 v 5.54936 5.54936 h -1.465869 -1.465869 z m 0.624239,-7.04141 c -0.932895,-0.47043 -1.212104,-1.70903 -0.573878,-2.545789 0.953268,-1.249799 3.029211,-0.676071 3.165779,0.874929 0.08831,1.00293 -0.741193,1.90645 -1.750271,1.90645 -0.205946,0 -0.58468,-0.10602 -0.84163,-0.23559 z"
         id="path183" /><path
         style="fill:#00587c;stroke-width:1"
         d="m 125.37697,100.9087 c -1.79259,-0.29056 -2.68901,-0.982249 -3.26954,-2.522829 -0.4784,-1.269546 -0.57141,-4.006193 -0.18669,-5.49306 0.38819,-1.500269 1.23956,-2.619147 2.39571,-3.148449 1.17133,-0.536251 3.22626,-0.557707 4.58881,-0.04791 1.11139,0.415825 1.96723,1.473614 2.28962,2.829896 0.15397,0.64772 0.19167,2.621322 0.0645,3.375251 l -0.0836,0.495865 -3.26584,0.02766 -3.26583,0.02766 0.0327,0.366467 c 0.0557,0.624757 0.44401,1.274103 0.9002,1.505514 0.71635,0.363381 1.30231,0.335868 3.15059,-0.147932 2.60226,-0.681155 3.57544,-0.679537 5.80227,0.0097 0.54222,0.167812 1.26018,0.354859 1.59548,0.41566 1.03495,0.187672 1.86864,-0.176944 1.86864,-0.817252 0,-0.713267 -0.57715,-1.048503 -2.46346,-1.430903 -2.85267,-0.578305 -3.63466,-1.417428 -3.47656,-3.730544 0.11324,-1.656841 1.06653,-2.7276 2.79,-3.133801 0.7281,-0.171604 3.21046,-0.07261 4.66824,0.186161 l 1.04705,0.185864 0.0295,1.227634 c 0.0162,0.675199 0.0162,1.227547 0,1.227441 -0.0162,-1.04e-4 -0.68914,-0.07028 -1.49537,-0.155937 -2.7668,-0.293962 -3.94326,-0.178098 -4.08904,0.402711 -0.17057,0.679599 0.15795,0.886848 2.00071,1.262153 1.76896,0.360277 2.3793,0.612088 3.03794,1.253384 0.71183,0.693093 0.9348,1.378603 0.85652,2.633344 -0.12423,1.991326 -1.12797,2.956202 -3.33113,3.202182 -1.20379,0.1344 -1.95902,0.0231 -3.73236,-0.54985 -1.69918,-0.549023 -2.52986,-0.578674 -3.95667,-0.14123 -1.9017,0.58304 -2.28003,0.67028 -3.12093,0.71967 -0.47182,0.0277 -1.09345,0.0122 -1.38139,-0.0345 z m 3.12039,-7.073544 c -0.0888,-1.343718 -0.4215,-1.850984 -1.33892,-2.041439 -0.9463,-0.196451 -1.78751,0.06042 -2.15003,0.65653 -0.23035,0.378794 -0.46344,1.373896 -0.3755,1.60308 0.0491,0.127999 0.37177,0.148367 1.97197,0.124491 l 1.91324,-0.02855 z m 16.83111,7.062844 c -0.85544,-0.11636 -1.89052,-0.62103 -2.30856,-1.125566 -0.40294,-0.486318 -0.79577,-1.304669 -0.9459,-1.970566 -0.36306,-1.610226 -0.30572,-4.455504 0.1154,-5.726836 0.44127,-1.332171 1.29044,-2.177242 2.55798,-2.545644 0.80913,-0.23517 2.46554,-0.234912 3.87408,6.28e-4 1.59665,0.266972 1.45139,0.121184 1.38655,1.391568 -0.0307,0.601846 -0.0775,1.115954 -0.10404,1.142462 -0.0265,0.02651 -0.63218,0.0051 -1.34594,-0.04748 -2.18983,-0.161437 -3.00226,0.07577 -3.46293,1.011093 -0.22036,0.447377 -0.24302,0.634921 -0.24302,2.011598 0,1.010942 0.0479,1.658161 0.1433,1.937042 0.19445,0.568295 0.70346,1.079319 1.21419,1.218983 0.45668,0.124882 2.01856,0.140692 3.05676,0.03094 l 0.64488,-0.06817 0.07,0.665583 c 0.0385,0.36607 0.0546,0.901169 0.0357,1.189115 l -0.0343,0.52352 -1.0994,0.17299 c -1.48007,0.2329 -2.73885,0.29973 -3.55476,0.18874 z m 16.71783,0.001 c -1.69177,-0.26352 -2.66392,-1.264472 -3.08086,-3.172147 -0.25771,-1.179147 -0.22739,-4.074546 0.0536,-5.113513 0.54277,-2.007268 1.53227,-2.933702 3.45145,-3.231474 0.71734,-0.111298 1.56293,-0.06176 2.98235,0.174718 l 0.39264,0.06542 v -2.264856 -2.264856 h 1.46658 1.46657 l -0.0269,7.35037 -0.0269,7.350369 -1.05464,0.339669 c -2.05373,0.66146 -4.31706,0.96985 -5.62388,0.7663 z m 2.54267,-2.665586 c 0.25915,-0.03385 0.64786,-0.108566 0.86382,-0.16604 l 0.39264,-0.104495 v -2.922958 -2.922957 l -0.39264,-0.08203 c -0.21596,-0.04512 -0.87287,-0.08259 -1.45982,-0.08327 l -1.06717,-0.0012 -0.36827,0.356715 c -0.52405,0.507592 -0.70692,1.11046 -0.76803,2.531939 -0.0733,1.704335 0.20084,2.828975 0.78239,3.210021 0.29228,0.191507 0.90082,0.322818 1.28415,0.277091 0.14397,-0.01717 0.47379,-0.05892 0.73293,-0.09277 z m -58.00653,-3.089497 v -5.549361 h 1.46587 1.46587 v 5.549361 5.549363 h -1.46587 -1.46587 z m 4.50231,0.478695 v -5.070666 l 0.60205,-0.228091 c 1.0228,-0.387495 2.89687,-0.820976 4.08896,-0.945794 2.42803,-0.254229 3.82264,0.333716 4.48732,1.891774 0.38099,0.893067 0.45452,1.809339 0.45452,5.663277 v 3.760168 h -1.45982 -1.45983 l -0.0322,-3.743203 c -0.0307,-3.564651 -0.0427,-3.763179 -0.25184,-4.162021 -0.40649,-0.775186 -1.23837,-0.992139 -2.58923,-0.675271 -1.00134,0.234882 -0.90817,-0.221452 -0.90817,4.448332 v 4.132163 h -1.46587 -1.46587 z m 43.66196,-0.478695 v -5.549361 h 1.46587 1.46587 v 5.549361 5.549363 h -1.46587 -1.46587 z m -59.78652,0.821551 c -2.579356,-0.2321 -5.212138,-1.580546 -7.572781,-3.878595 l -0.852443,-0.829839 -1.187888,0.163314 c -2.181181,0.299872 -4.614123,0.405628 -6.401777,0.278274 -2.800834,-0.199534 -4.354684,-0.553153 -6.051691,-1.377221 -4.170645,-2.02527 -4.493958,-6.181725 -0.6822,-8.77024 l 0.627727,-0.426282 -0.191836,-0.555412 c -0.105509,-0.305477 -0.193374,-0.706225 -0.195254,-0.89055 -0.0054,-0.525419 0.209364,-1.399818 0.471669,-1.920741 0.886793,-1.761118 3.61672,-3.356612 7.328788,-4.283277 l 0.422176,-0.105391 0.125485,-1.284744 c 0.483214,-4.947257 3.05427,-8.022645 7.251435,-8.673857 3.160737,-0.490405 6.152895,1.467114 7.908939,5.174159 0.513942,1.084944 0.854982,2.234043 0.746749,2.516094 -0.04315,0.112452 -0.155073,0.171605 -0.286078,0.1512 -0.168573,-0.02626 -0.281649,-0.23177 -0.52193,-0.948588 -1.141096,-3.404178 -3.333163,-5.549865 -6.055198,-5.92708 -3.609368,-0.500181 -6.699235,2.852063 -7.092137,7.694365 -0.08191,1.009499 -0.156674,0.957557 1.109522,0.770846 1.577855,-0.232667 4.484994,-0.329962 6.43479,-0.215358 1.062863,0.06247 2.005208,0.141495 2.094099,0.175606 0.08889,0.03411 0.16162,0.174563 0.16162,0.312117 v 0.250097 l -2.486742,-0.0669 c -2.461367,-0.06621 -4.528371,0.034 -6.465529,0.313451 l -0.83764,0.120839 -0.03429,0.523525 c -0.03384,0.516664 0.13986,2.921594 0.259297,3.589943 l 0.06149,0.344092 0.589687,-0.05725 c 0.324328,-0.03149 1.084419,-0.06854 1.68909,-0.08233 1.042265,-0.02378 1.101015,-0.01379 1.130456,0.192159 0.02972,0.207916 -0.03908,0.22204 -1.603031,0.329122 -0.898748,0.06154 -1.659662,0.137459 -1.690921,0.168719 -0.07579,0.07579 0.425274,2.433093 0.727108,3.420766 0.237716,0.777865 0.243609,0.785591 0.623475,0.817468 0.480032,0.04028 2.629888,-0.234847 3.981639,-0.509551 1.420227,-0.288621 3.334587,-0.877352 4.247904,-1.306376 0.811227,-0.381067 1.169175,-0.367728 1.169175,0.04357 0,0.285682 -0.267332,0.476561 -1.476191,1.054021 -1.907259,0.911077 -4.831583,1.742921 -6.879784,1.957 -0.345873,0.03615 -0.685667,0.100837 -0.755097,0.143747 -0.250102,0.154573 1.38883,3.397473 2.361633,4.672884 0.280176,0.36733 0.301669,0.375492 0.822415,0.312325 0.294096,-0.03567 1.053009,-0.182413 1.686474,-0.326085 3.502236,-0.794322 6.104025,-1.795649 8.196859,-3.154652 0.930678,-0.604344 2.744807,-2.273881 2.744807,-2.526037 0,-0.242868 -0.727895,-1.563046 -1.277339,-2.316703 -0.544043,-0.746247 -0.611178,-0.95571 -0.306313,-0.95571 0.225672,0 1.057602,1.149961 1.571762,2.172627 0.18096,0.359923 0.35122,0.654406 0.37835,0.654406 0.11125,0 0.67699,-1.264713 0.83016,-1.855823 0.55558,-2.144046 -0.49107,-4.436886 -2.594179,-5.682932 -0.77864,-0.461327 -0.984942,-0.744745 -0.638794,-0.877574 0.215201,-0.08258 1.198993,0.421851 2.006283,1.028705 2.24506,1.687638 2.94573,4.409021 1.79346,6.965724 -0.16793,0.372626 -0.44831,0.90031 -0.62306,1.172633 l -0.31773,0.495131 0.26449,1.048816 c 0.97401,3.86249 0.36685,7.514021 -1.54626,9.299267 -1.314134,1.226317 -2.918819,1.68289 -5.194897,1.478081 z m 2.674153,-1.087801 c 0.970748,-0.251292 1.513122,-0.55805 2.202492,-1.245696 0.730255,-0.728435 1.190075,-1.583964 1.522805,-2.833309 0.29944,-1.124364 0.32603,-3.537852 0.0543,-4.926308 -0.10201,-0.521138 -0.22257,-1.007567 -0.26793,-1.080955 -0.0585,-0.09468 -0.31078,0.08975 -0.86862,0.635061 -2.251313,2.200754 -5.856323,3.990964 -10.18595,5.05824 -0.633464,0.156152 -1.21926,0.304279 -1.301767,0.32917 -0.201022,0.06064 0.950055,1.227054 1.987137,2.013607 2.360868,1.79055 4.913022,2.553563 6.857563,2.05019 z M 83.392082,89.905695 c 0.92042,-0.05925 1.732314,-0.12842 1.804207,-0.153708 0.08585,-0.0302 -0.07003,-0.353946 -0.454178,-0.943285 -0.614855,-0.94327 -1.493342,-2.597898 -1.950366,-3.673509 l -0.27095,-0.637681 -1.397586,-0.06846 c -3.150225,-0.154316 -5.629388,-0.861925 -7.17602,-2.048202 l -0.543186,-0.416627 -0.675846,0.716432 c -0.825399,0.874968 -1.147914,1.611369 -1.147914,2.621049 0,2.729348 2.729753,4.27556 8.197731,4.643437 1.081006,0.07273 2.033001,0.06234 3.614108,-0.03945 z m -1.670178,-7.888558 c -0.144374,-0.498206 -0.342868,-1.341169 -0.441095,-1.873251 -0.09823,-0.532081 -0.213245,-1.008023 -0.255594,-1.057647 -0.171593,-0.201071 -3.767197,0.833279 -5.369786,1.544731 -0.53832,0.238982 -0.59777,0.293667 -0.477194,0.438953 0.508075,0.612191 2.025232,1.281884 3.657395,1.614419 1.123943,0.228989 3.064828,0.417189 3.118784,0.302415 0.01649,-0.03508 -0.08813,-0.471413 -0.23251,-0.96962 z m -6.264932,-2.155251 c 1.273646,-0.519018 4.507963,-1.359469 5.250492,-1.364363 0.238485,-0.0016 0.246219,-0.02466 0.184693,-0.551341 -0.03532,-0.302336 -0.09553,-1.268239 -0.1338,-2.146452 -0.05003,-1.148115 -0.105456,-1.59675 -0.197252,-1.59675 -0.405829,0 -2.473893,0.721622 -3.505412,1.223164 -1.01335,0.492709 -1.320996,0.703403 -1.94235,1.330239 -0.794831,0.801843 -0.989435,1.212871 -0.989435,2.089819 0,0.537338 0.271428,1.325156 0.456365,1.3246 0.06573,-2.09e-4 0.460246,-0.139209 0.876699,-0.308916 z m 31.647928,8.135969 c -0.80423,-0.547351 -1.03074,-1.354819 -0.60775,-2.166498 0.33663,-0.645967 0.68958,-0.874779 1.41887,-0.919845 0.48408,-0.02991 0.68516,0.01018 1.01644,0.202685 1.08175,0.628577 1.11564,2.174079 0.0632,2.883302 -0.48893,0.32949 -1.40693,0.329663 -1.89078,3.15e-4 z m 48.19055,0.02674 c -0.50698,-0.309112 -0.7573,-0.789445 -0.75776,-1.454076 -7.3e-4,-1.078863 0.75315,-1.755275 1.85456,-1.663937 0.98189,0.08143 1.54796,0.685386 1.54796,1.651579 0,0.686838 -0.18968,1.035047 -0.78422,1.439692 -0.4593,0.312592 -1.37024,0.325684 -1.86054,0.02674 z"
         id="path181" /></g></g></svg>
