<?xml version="1.0" encoding="UTF-8" standalone="no"?>
<!-- Created with Inkscape (http://www.inkscape.org/) -->

<svg
   width="190.869mm"
   height="68.462997mm"
   viewBox="0 0 190.869 68.462996"
   version="1.1"
   id="svg928"
   xml:space="preserve"
   xmlns="http://www.w3.org/2000/svg"
   xmlns:svg="http://www.w3.org/2000/svg"><defs
     id="defs925" /><g
     id="layer1"
     transform="translate(-8.8335693,-39.666313)"><g
       id="g15883"
       transform="translate(2.6458334,1.5875)"><path
         id="path1189"
         style="fill:#000000;stroke-width:1"
         d="m 8.8335693,39.666313 v 17.506425 17.505908 c 13.3902877,-9e-6 27.4295917,0 40.4704017,0 V 57.172738 39.666313 c 0,0 -29.243854,0 -40.4704017,0 z M 84.80826,44.873747 c -1.671385,-0.0021 -2.883129,0.268342 -4.228166,0.944128 -2.485446,1.248766 -4.79867,4.028613 -5.744869,6.904488 -0.520205,1.581114 -0.625135,2.326685 -0.626835,4.450375 -0.0017,2.128185 0.103095,2.867057 0.629936,4.449857 0.74917,2.250747 2.393877,4.553794 4.264339,5.970695 1.274432,0.965399 3.046955,1.712727 4.450891,1.876888 2.575012,0.301095 5.000983,-0.357941 6.975802,-1.894975 3.696701,-2.877186 5.449312,-7.561862 4.70824,-12.585795 -0.393579,-2.668121 -1.578176,-5.059766 -3.477824,-7.021276 -2.049446,-2.116187 -4.239451,-3.090885 -6.951514,-3.094385 z m 68.73792,0.01188 c -0.87494,0.0217 -1.49489,0.139848 -2.3244,0.410828 -3.70079,1.208953 -6.73341,5.00287 -7.51324,9.399426 -0.11875,0.669179 -0.15441,1.275952 -0.15141,2.51871 0.006,1.903804 0.13485,2.792611 0.62322,4.284493 1.39792,4.27044 4.97303,7.52708 8.74313,7.964371 1.98587,0.230342 3.62919,-0.03997 5.32216,-0.875398 1.14001,-0.562557 1.87629,-1.102449 2.8546,-2.092896 1.741,-1.762555 2.8622,-3.873777 3.41272,-6.425964 0.26088,-1.209229 0.2831,-4.20365 0.0408,-5.499406 -0.6604,-3.532094 -2.87943,-6.796246 -5.76244,-8.476485 -1.45027,-0.845226 -2.50322,-1.141102 -4.26796,-1.19941 -0.36552,-0.01208 -0.68555,-0.01547 -0.9772,-0.0083 z m -139.255063,0.364319 5.310787,0.01757 5.310787,0.01757 v 0.315226 0.315227 l -1.343587,0.0031 -1.34307,0.0031 v 8.228438 c 0,7.62689 0.01136,8.292147 0.155029,9.105904 0.537,3.041339 1.75471,4.525553 4.046781,4.931482 0.632848,0.11207 0.9067,0.118374 1.731161,0.03876 1.757291,-0.169701 2.747644,-0.612554 3.822505,-1.707906 0.853845,-0.87012 1.375886,-1.933525 1.616956,-3.294889 0.05729,-0.323549 0.08837,-3.137065 0.08837,-8.025867 0,-8.135531 0.0097,-7.948889 -0.448552,-8.641333 -0.287498,-0.43444 -0.642153,-0.577673 -1.598869,-0.644921 l -0.81597,-0.05736 0.02532,-0.280087 0.02532,-0.280086 3.337264,-0.0217 3.337781,-0.02222 -5.17e-4,0.335897 v 0.335897 l -0.690913,0.02635 c -1.040644,0.0396 -1.382254,0.262036 -1.722376,1.122412 -0.129954,0.32872 -0.14832,1.076205 -0.19482,8.044987 -0.04476,6.709259 -0.06844,7.762257 -0.189653,8.30957 -0.343339,1.550309 -0.895858,2.658891 -1.809708,3.632337 -1.053484,1.122182 -2.195979,1.753687 -3.927409,2.170927 -0.624469,0.150487 -1.049397,0.182875 -2.673739,0.203605 -2.07173,0.02644 -2.082169,0.02567 -3.129524,-0.217041 C 20.30704,68.54207 18.095918,66.607189 17.316772,64.057589 16.907806,62.71931 16.895104,62.417578 16.894576,53.86958 l -5.17e-4,-8.005196 -1.301212,0.02842 -1.30173,0.02894 v -0.335897 z m 83.543221,0.02687 v 0.301274 0.301273 h 1.678968 1.679484 v 11.335226 11.334708 h -1.679484 -1.678968 v 0.252698 0.252698 l 5.100462,-0.0217 5.10098,-0.0217 0.0264,-0.230994 0.0269,-0.230994 h -1.72703 -1.72651 v -5.709212 -5.709729 l 1.53221,0.0031 c 2.7743,0.0053 3.81238,0.36538 4.54339,1.576131 0.44235,0.732652 0.61754,1.447915 0.89607,3.654557 0.41181,3.262404 0.82581,4.906521 1.44332,5.734534 0.32922,0.441452 1.21068,0.91581 1.91203,1.028877 h 5.2e-4 c 1.13076,0.181922 3.31231,0.05712 4.0504,-0.23151 0.20535,-0.08028 0.22019,-0.111762 0.13849,-0.290938 l -0.0915,-0.200505 -0.50333,0.15658 c -1.22514,0.381309 -2.13538,-0.03333 -2.45773,-1.118795 -0.0698,-0.235063 -0.20344,-1.11178 -0.29714,-1.948201 -0.45997,-4.10477 -0.59416,-4.819965 -1.10484,-5.889047 -0.14802,-0.309872 -0.45016,-0.761607 -0.67128,-1.003556 -0.70038,-0.766339 -2.30177,-1.424065 -4.02611,-1.653646 -0.41223,-0.05488 -0.72073,-0.125339 -0.68523,-0.156579 0.0354,-0.03124 0.3361,-0.09977 0.66818,-0.152446 0.9727,-0.15431 2.516,-0.6588 3.51038,-1.147217 1.40321,-0.689215 1.99847,-1.293409 2.47944,-2.517159 0.17652,-0.449124 0.19747,-0.640389 0.19947,-1.7632 0.001,-0.930354 -0.0365,-1.401906 -0.14366,-1.805057 -0.49648,-1.86808 -1.66124,-2.938499 -3.87884,-3.564124 -1.65628,-0.467274 -1.95338,-0.48568 -8.3752,-0.5271 z m 22.586222,0.01499 v 3.484542 3.484542 h 0.24184 0.24185 l 0.0558,-0.818555 c 0.21193,-3.100659 0.82171,-4.393551 2.34094,-4.961971 1.0268,-0.384173 2.61949,-0.598973 4.44521,-0.599963 l 1.23816,-10e-4 v 11.335226 11.335225 h -1.72082 -1.72134 v 0.251664 0.251664 h 5.16351 5.16402 v -0.250114 -0.250113 l -1.70015,-0.02274 -1.70067,-0.02274 -0.0212,-11.314038 -0.0212,-11.314038 1.36478,0.0016 c 2.69484,0.003 4.65738,0.471385 5.46581,1.303797 0.70096,0.721755 1.11473,2.085496 1.20303,3.963582 l 0.0527,1.112594 h 0.23926 0.23926 v -3.484542 -3.484542 h -10.28567 z m -66.339107,0.01499 c -0.933103,0.0078 -1.409871,0.02598 -1.438671,0.05478 -0.04724,0.04724 -0.06134,0.182961 -0.03152,0.301791 l 0.05426,0.216007 h 1.635559 1.635559 v 11.333675 11.333159 l -1.65778,0.02274 c -1.770379,0.0243 -1.676694,0.0011 -1.626774,0.400493 0.0069,0.05493 1.766605,0.08371 5.090129,0.08371 h 5.079793 v -0.251664 -0.251664 h -1.721342 -1.721342 v -5.290116 c 0,-3.580199 0.02816,-5.2896 0.08682,-5.2896 0.04766,0 0.227251,0.05879 0.398942,0.130741 0.831836,0.348584 2.816868,0.461177 4.406449,0.249598 2.900761,-0.386105 5.274942,-1.755979 6.192387,-3.573426 1.01317,-2.007076 0.748683,-5.21919 -0.559656,-6.798551 -1.027748,-1.240645 -2.724425,-2.060836 -5.067391,-2.450497 -0.967765,-0.160948 -1.480439,-0.177713 -6.578926,-0.213423 -1.853939,-0.01298 -3.243385,-0.01554 -4.17649,-0.0078 z m 100.552517,0.07441 c 0.27414,0.0089 0.52739,0.03213 0.73846,0.07183 1.88911,0.355311 3.15384,1.443735 4.2199,3.631819 0.88165,1.809643 1.28495,4.105543 1.33945,7.625891 0.0557,3.598494 -0.42467,6.577439 -1.37718,8.541081 -0.97202,2.003898 -2.22094,3.175847 -3.82767,3.592546 -0.63106,0.163655 -1.94066,0.224993 -2.59984,0.121439 -2.28589,-0.359097 -3.88847,-1.924564 -4.89531,-4.782137 -0.96144,-2.728698 -1.16107,-8.268138 -0.43615,-12.109338 0.62239,-3.297926 2.2881,-5.731203 4.39095,-6.414596 0.6153,-0.199965 1.62498,-0.305322 2.44739,-0.278536 z m -69.854649,0.0021 c 0.524402,1.38e-4 1.050325,0.03968 1.42627,0.118339 2.602993,0.544631 4.419894,3.101857 5.041553,7.095175 0.624314,4.010459 0.328449,9.058307 -0.691431,11.796696 -0.904376,2.42826 -2.365532,3.973941 -4.202844,4.445723 -1.093518,0.280791 -2.529473,0.230946 -3.597714,-0.12454 -1.159671,-0.385914 -1.930878,-1.017308 -2.764172,-2.263945 -1.063864,-1.591573 -1.524341,-3.061526 -1.840714,-5.877677 -0.481402,-4.285117 -0.02985,-8.700671 1.163236,-11.373983 0.34917,-0.782376 1.261108,-2.088325 1.782837,-2.553332 0.582729,-0.51938 1.499173,-0.982278 2.265495,-1.144633 0.370345,-0.07847 0.893084,-0.117961 1.417484,-0.117823 z m -25.4,0.478007 1.868103,0.04134 c 1.3976,0.03094 1.995067,0.07723 2.371949,0.183451 2.602041,0.73334 3.81132,2.62902 3.83129,6.006868 0.0082,1.392298 -0.167248,2.335675 -0.589111,3.171383 -0.640851,1.269521 -2.015732,2.220067 -3.721737,2.572453 -1.180159,0.24377 -2.145365,0.136145 -3.324345,-0.371037 L 59.379321,57.277669 V 51.56949 Z m 45.256149,0.0186 1.74202,10e-4 c 2.62994,0.0017 3.86756,0.326725 4.80332,1.262456 0.47145,0.47145 1.01362,1.497591 1.23972,2.346626 0.20462,0.769045 0.20342,2.84824 -0.002,3.610633 -0.53716,1.992062 -1.876,3.016777 -4.43539,3.394625 -0.4944,0.07299 -1.43962,0.131775 -2.11976,0.131775 h -1.22784 V 51.253202 Z M 41.288953,64.528878 c 0.64556,0.0069 1.117104,0.218451 1.603003,0.70435 0.481987,0.481986 0.702282,1.022171 0.702282,1.721341 0,0.876749 -0.578451,1.778223 -1.381828,2.152324 -0.474718,0.22106 -1.395069,0.263893 -1.854667,0.08682 -1.023333,-0.394286 -1.549926,-1.181228 -1.548226,-2.313037 0.0019,-1.284289 0.90531,-2.250154 2.191598,-2.342492 0.09988,-0.0072 0.195615,-0.01029 0.287838,-0.0093 z" /><g
         aria-label="FACULDADE DE MEDICINA"
         id="text1193"
         style="font-size:10.9118px;line-height:1.25;font-family:'Open Sans';-inkscape-font-specification:'Open Sans, Normal';font-variant-ligatures:none;letter-spacing:0px;word-spacing:0px;stroke-width:0.264583"><path
           d="m 57.717771,90.824821 h -1.625048 v -7.789576 h 4.464887 v 1.353319 h -2.839839 v 2.008667 h 2.642702 v 1.347991 h -2.642702 z"
           style="font-weight:bold;-inkscape-font-specification:'Open Sans Bold'"
           id="path15694" /><path
           d="m 66.85001,90.824821 -0.564771,-1.854153 h -2.839838 l -0.564771,1.854153 h -1.779562 l 2.749263,-7.821544 h 2.019322 l 2.759918,7.821544 z m -0.959045,-3.23944 -0.564771,-1.81153 q -0.05328,-0.181153 -0.143856,-0.463538 -0.08525,-0.287714 -0.175825,-0.580755 -0.08525,-0.29837 -0.138529,-0.516819 -0.05328,0.218449 -0.149185,0.543459 -0.09058,0.319682 -0.175825,0.607395 -0.08525,0.287714 -0.122544,0.410258 l -0.559443,1.81153 z"
           style="font-weight:bold;-inkscape-font-specification:'Open Sans Bold'"
           id="path15696" /><path
           d="m 72.918634,84.297988 q -0.474194,0 -0.841828,0.186481 -0.362306,0.181153 -0.612723,0.527474 -0.24509,0.346322 -0.372962,0.836501 -0.127873,0.490178 -0.127873,1.102901 0,0.825845 0.202465,1.411928 0.207793,0.580755 0.639363,0.88978 0.431571,0.303698 1.113558,0.303698 0.474195,0 0.948389,-0.106561 0.479522,-0.10656 1.038965,-0.303697 v 1.385287 q -0.516818,0.213121 -1.017653,0.303698 -0.500834,0.0959 -1.124214,0.0959 -1.204134,0 -1.982026,-0.495507 -0.772564,-0.500834 -1.145526,-1.395943 -0.372962,-0.900436 -0.372962,-2.099243 0,-0.884452 0.239761,-1.61972 0.239762,-0.735268 0.7033,-1.273399 0.463538,-0.53813 1.145526,-0.831172 0.681988,-0.293041 1.56644,-0.293041 0.580755,0 1.16151,0.149184 0.586083,0.143857 1.118886,0.399602 l -0.532803,1.342663 q -0.436898,-0.207793 -0.879124,-0.362305 -0.442227,-0.154513 -0.868469,-0.154513 z"
           style="font-weight:bold;-inkscape-font-specification:'Open Sans Bold'"
           id="path15698" /><path
           d="m 82.903357,83.035245 v 5.040314 q 0,0.804532 -0.356978,1.454552 -0.35165,0.644691 -1.070933,1.022981 -0.713956,0.37829 -1.800874,0.37829 -1.545128,0 -2.354988,-0.788548 -0.80986,-0.788548 -0.80986,-2.088587 v -5.019002 h 1.646361 v 4.768585 q 0,0.964373 0.394274,1.353319 0.394274,0.388946 1.166838,0.388946 0.543458,0 0.879124,-0.186481 0.340994,-0.186481 0.500835,-0.575427 0.159841,-0.388946 0.159841,-0.991013 v -4.757929 z"
           style="font-weight:bold;-inkscape-font-specification:'Open Sans Bold'"
           id="path15700" /><path
           d="m 84.81079,90.824821 v -7.789576 h 1.651688 v 6.425601 h 3.159521 v 1.363975 z"
           style="font-weight:bold;-inkscape-font-specification:'Open Sans Bold'"
           id="path15702" /><path
           d="m 97.438215,86.855441 q 0,1.316023 -0.506162,2.200475 -0.500835,0.879125 -1.454552,1.326679 -0.953717,0.442226 -2.29638,0.442226 h -2.205803 v -7.789576 h 2.445564 q 1.225447,0 2.125883,0.436898 0.900437,0.431571 1.395944,1.284055 0.495506,0.847156 0.495506,2.099243 z m -1.715625,0.04262 q 0,-0.86314 -0.255745,-1.417255 -0.250417,-0.559443 -0.745924,-0.825844 -0.490178,-0.266402 -1.21479,-0.266402 h -0.879125 v 5.072282 h 0.708628 q 1.209462,0 1.795545,-0.644691 0.591411,-0.644691 0.591411,-1.91809 z"
           style="font-weight:bold;-inkscape-font-specification:'Open Sans Bold'"
           id="path15704" /><path
           d="m 103.82119,90.824821 -0.56477,-1.854153 h -2.83984 l -0.564768,1.854153 H 98.07225 l 2.74926,-7.821544 h 2.01933 l 2.75991,7.821544 z m -0.95904,-3.23944 -0.56477,-1.81153 q -0.0533,-0.181153 -0.14386,-0.463538 -0.0853,-0.287714 -0.17583,-0.580755 -0.0852,-0.29837 -0.13852,-0.516819 -0.0533,0.218449 -0.14919,0.543459 -0.0906,0.319682 -0.17582,0.607395 -0.0853,0.287714 -0.12255,0.410258 l -0.55944,1.81153 z"
           style="font-weight:bold;-inkscape-font-specification:'Open Sans Bold'"
           id="path15706" /><path
           d="m 113.04401,86.855441 q 0,1.316023 -0.50616,2.200475 -0.50084,0.879125 -1.45456,1.326679 -0.95371,0.442226 -2.29638,0.442226 h -2.2058 v -7.789576 h 2.44557 q 1.22544,0 2.12588,0.436898 0.90044,0.431571 1.39594,1.284055 0.49551,0.847156 0.49551,2.099243 z m -1.71563,0.04262 q 0,-0.86314 -0.25574,-1.417255 -0.25042,-0.559443 -0.74593,-0.825844 -0.49017,-0.266402 -1.21479,-0.266402 h -0.87912 v 5.072282 h 0.70863 q 1.20946,0 1.79554,-0.644691 0.59141,-0.644691 0.59141,-1.91809 z"
           style="font-weight:bold;-inkscape-font-specification:'Open Sans Bold'"
           id="path15708" /><path
           d="m 119.1446,90.824821 h -4.4862 v -7.789576 h 4.4862 v 1.353319 h -2.83451 v 1.710297 h 2.63737 v 1.353319 h -2.63737 v 2.008666 h 2.83451 z"
           style="font-weight:bold;-inkscape-font-specification:'Open Sans Bold'"
           id="path15710" /><path
           d="m 130.06706,86.855441 q 0,1.316023 -0.50617,2.200475 -0.50083,0.879125 -1.45455,1.326679 -0.95371,0.442226 -2.29638,0.442226 h -2.2058 v -7.789576 h 2.44556 q 1.22545,0 2.12589,0.436898 0.90043,0.431571 1.39594,1.284055 0.49551,0.847156 0.49551,2.099243 z m -1.71563,0.04262 q 0,-0.86314 -0.25574,-1.417255 -0.25042,-0.559443 -0.74593,-0.825844 -0.49018,-0.266402 -1.21479,-0.266402 h -0.87912 v 5.072282 h 0.70863 q 1.20946,0 1.79554,-0.644691 0.59141,-0.644691 0.59141,-1.91809 z"
           style="font-weight:bold;-inkscape-font-specification:'Open Sans Bold'"
           id="path15712" /><path
           d="m 136.16764,90.824821 h -4.48619 v -7.789576 h 4.48619 v 1.353319 h -2.83451 v 1.710297 h 2.63738 v 1.353319 h -2.63738 v 2.008666 h 2.83451 z"
           style="font-weight:bold;-inkscape-font-specification:'Open Sans Bold'"
           id="path15714" /><path
           d="m 143.92526,90.824821 -1.87547,-6.111247 h -0.048 q 0.0107,0.218449 0.032,0.660675 0.0266,0.436899 0.048,0.932405 0.0213,0.495507 0.0213,0.895109 v 3.623058 h -1.47586 v -7.789576 h 2.24843 l 1.84349,5.956735 h 0.032 l 1.95539,-5.956735 h 2.24842 v 7.789576 h -1.5398 v -3.686995 q 0,-0.367633 0.0107,-0.847156 0.016,-0.479522 0.0373,-0.911093 0.0213,-0.436898 0.032,-0.655347 h -0.048 l -2.00866,6.100591 z"
           style="font-weight:bold;-inkscape-font-specification:'Open Sans Bold'"
           id="path15716" /><path
           d="m 155.40183,90.824821 h -4.4862 v -7.789576 h 4.4862 v 1.353319 h -2.83451 v 1.710297 h 2.63737 v 1.353319 h -2.63737 v 2.008666 h 2.83451 z"
           style="font-weight:bold;-inkscape-font-specification:'Open Sans Bold'"
           id="path15718" /><path
           d="m 163.48977,86.855441 q 0,1.316023 -0.50616,2.200475 -0.50084,0.879125 -1.45455,1.326679 -0.95372,0.442226 -2.29638,0.442226 h -2.20581 v -7.789576 h 2.44557 q 1.22544,0 2.12588,0.436898 0.90044,0.431571 1.39594,1.284055 0.49551,0.847156 0.49551,2.099243 z m -1.71562,0.04262 q 0,-0.86314 -0.25575,-1.417255 -0.25042,-0.559443 -0.74592,-0.825844 -0.49018,-0.266402 -1.21479,-0.266402 h -0.87913 v 5.072282 h 0.70863 q 1.20946,0 1.79554,-0.644691 0.59142,-0.644691 0.59142,-1.91809 z"
           style="font-weight:bold;-inkscape-font-specification:'Open Sans Bold'"
           id="path15720" /><path
           d="m 165.10417,90.824821 v -7.789576 h 1.65169 v 7.789576 z"
           style="font-weight:bold;-inkscape-font-specification:'Open Sans Bold'"
           id="path15722" /><path
           d="m 172.02528,84.297988 q -0.4742,0 -0.84183,0.186481 -0.36231,0.181153 -0.61273,0.527474 -0.24508,0.346322 -0.37296,0.836501 -0.12787,0.490178 -0.12787,1.102901 0,0.825845 0.20246,1.411928 0.2078,0.580755 0.63937,0.88978 0.43157,0.303698 1.11356,0.303698 0.47419,0 0.94838,-0.106561 0.47953,-0.10656 1.03897,-0.303697 v 1.385287 q -0.51682,0.213121 -1.01765,0.303698 -0.50084,0.0959 -1.12422,0.0959 -1.20413,0 -1.98202,-0.495507 -0.77257,-0.500834 -1.14553,-1.395943 -0.37296,-0.900436 -0.37296,-2.099243 0,-0.884452 0.23976,-1.61972 0.23976,-0.735268 0.7033,-1.273399 0.46354,-0.53813 1.14553,-0.831172 0.68198,-0.293041 1.56644,-0.293041 0.58075,0 1.16151,0.149184 0.58608,0.143857 1.11888,0.399602 l -0.5328,1.342663 q -0.4369,-0.207793 -0.87913,-0.362305 -0.44222,-0.154513 -0.86846,-0.154513 z"
           style="font-weight:bold;-inkscape-font-specification:'Open Sans Bold'"
           id="path15724" /><path
           d="m 175.66964,90.824821 v -7.789576 h 1.65169 v 7.789576 z"
           style="font-weight:bold;-inkscape-font-specification:'Open Sans Bold'"
           id="path15726" /><path
           d="m 186.1925,90.824821 h -2.09924 l -3.38863,-5.892798 h -0.048 q 0.0213,0.367634 0.0373,0.740596 0.016,0.372962 0.032,0.745924 0.016,0.367634 0.032,0.740596 v 3.665682 h -1.47586 v -7.789576 h 2.08325 l 3.3833,5.83419 h 0.0373 q -0.0107,-0.362306 -0.0266,-0.719283 -0.016,-0.356978 -0.032,-0.713956 -0.0107,-0.356978 -0.0213,-0.713956 v -3.686995 h 1.48652 z"
           style="font-weight:bold;-inkscape-font-specification:'Open Sans Bold'"
           id="path15728" /><path
           d="m 192.92179,90.824821 -0.56477,-1.854153 h -2.83984 l -0.56477,1.854153 h -1.77956 l 2.74926,-7.821544 h 2.01933 l 2.75991,7.821544 z m -0.95904,-3.23944 -0.56477,-1.81153 q -0.0533,-0.181153 -0.14386,-0.463538 -0.0853,-0.287714 -0.17582,-0.580755 -0.0853,-0.29837 -0.13853,-0.516819 -0.0533,0.218449 -0.14919,0.543459 -0.0906,0.319682 -0.17582,0.607395 -0.0853,0.287714 -0.12255,0.410258 l -0.55944,1.81153 z"
           style="font-weight:bold;-inkscape-font-specification:'Open Sans Bold'"
           id="path15730" /></g><g
         aria-label="UNIVERSIDADE DO PORTO"
         id="text1224"
         style="font-size:11.3671px;line-height:1.25;font-family:'Open Sans';-inkscape-font-specification:'Open Sans, Normal';font-variant-ligatures:none;letter-spacing:0px;word-spacing:0px;stroke-width:0.264583"><path
           d="m 62.314657,96.029878 v 5.250622 q 0,0.8603 -0.349672,1.5319 -0.344121,0.67159 -1.043464,1.06011 -0.699343,0.38297 -1.753908,0.38297 -1.504143,0 -2.292291,-0.8159 -0.782598,-0.8159 -0.782598,-2.18128 v -5.228422 h 0.949108 v 5.256172 q 0,1.03237 0.543933,1.59295 0.549484,0.56058 1.637351,0.56058 0.743746,0 1.215525,-0.26641 0.477329,-0.27197 0.704893,-0.75485 0.233115,-0.48843 0.233115,-1.12672 v -5.261722 z"
           id="path15733" /><path
           d="M 70.806679,104.14448 H 69.718812 L 65.29519,97.328658 h -0.0444 q 0.01665,0.271967 0.03885,0.621639 0.0222,0.344121 0.0333,0.738195 0.01665,0.388524 0.01665,0.793699 v 4.662289 h -0.876954 v -8.114602 h 1.082316 l 4.406972,6.793622 h 0.03885 q -0.0111,-0.19427 -0.02775,-0.54949 -0.01665,-0.36077 -0.0333,-0.77149 -0.0111,-0.41628 -0.0111,-0.7715 v -4.701142 h 0.888054 z"
           id="path15735" /><path
           d="m 73.021266,104.14448 v -8.114602 h 0.943558 v 8.114602 z"
           id="path15737" /><path
           d="m 81.86296,96.029878 -2.913929,8.114602 h -0.949109 l -2.913929,-8.114602 h 0.987961 l 1.898216,5.344982 q 0.116558,0.32192 0.205363,0.61609 0.09436,0.29416 0.16651,0.56613 0.07215,0.27197 0.127658,0.52728 0.0555,-0.25531 0.127658,-0.52728 0.07215,-0.27752 0.16651,-0.57169 0.09436,-0.29971 0.210913,-0.62718 l 1.887117,-5.328332 z"
           id="path15739" /><path
           d="m 87.491007,104.14448 h -4.517978 v -8.114602 h 4.517978 v 0.832552 h -3.57442 v 2.625311 h 3.369058 v 0.821449 h -3.369058 v 3.00274 h 3.57442 z"
           id="path15741" /><path
           d="m 91.481702,96.029878 q 0.999062,0 1.648452,0.249766 0.65494,0.244215 0.97686,0.749296 0.32192,0.505081 0.32192,1.287679 0,0.64384 -0.233115,1.076766 -0.233114,0.427377 -0.610537,0.693795 -0.377424,0.26641 -0.8048,0.41072 l 2.225687,3.64658 h -1.098968 l -1.987022,-3.38571 h -1.687304 v 3.38571 h -0.943558 v -8.114602 z m -0.0555,0.815901 h -1.193324 v 3.113741 h 1.28768 q 0.993511,0 1.459739,-0.405175 0.471779,-0.405175 0.471779,-1.193323 0,-0.827001 -0.49953,-1.171122 -0.493981,-0.344121 -1.526344,-0.344121 z"
           id="path15743" /><path
           d="m 100.88398,101.98539 q 0,0.72155 -0.36077,1.23218 -0.35522,0.50508 -0.999062,0.7715 -0.64384,0.26641 -1.515243,0.26641 -0.460679,0 -0.871404,-0.0444 -0.410725,-0.0444 -0.754846,-0.12766 -0.344122,-0.0833 -0.604988,-0.20536 v -0.9047 q 0.416276,0.17206 1.015713,0.32192 0.599437,0.1443 1.254377,0.1443 0.610538,0 1.032364,-0.16096 0.421826,-0.16651 0.638289,-0.47177 0.222014,-0.31082 0.222014,-0.74375 0,-0.41628 -0.183162,-0.69379 -0.183161,-0.28307 -0.610537,-0.51063 -0.421826,-0.23312 -1.154471,-0.49398 -0.516182,-0.18317 -0.910256,-0.399629 -0.394075,-0.222014 -0.660491,-0.499531 -0.266416,-0.277517 -0.405175,-0.64384 -0.133208,-0.366322 -0.133208,-0.838101 0,-0.64939 0.32747,-1.110069 0.33302,-0.466228 0.915806,-0.710443 0.588337,-0.249766 1.348733,-0.249766 0.64939,0 1.198874,0.122108 0.555033,0.122107 1.015713,0.32747 l -0.29417,0.81035 q -0.438475,-0.183162 -0.932456,-0.305269 -0.48843,-0.122108 -1.010162,-0.122108 -0.521732,0 -0.882504,0.15541 -0.355222,0.149859 -0.543934,0.427376 -0.188711,0.277517 -0.188711,0.660491 0,0.427376 0.177611,0.710444 0.183161,0.283067 0.577235,0.505081 0.399625,0.216463 1.054565,0.455128 0.715994,0.260866 1.215525,0.555038 0.499531,0.28861 0.760401,0.71044 0.26086,0.41628 0.26086,1.06011 z"
           id="path15745" /><path
           d="m 102.53798,104.14448 v -8.114602 h 0.94356 v 8.114602 z"
           id="path15747" /><path
           d="m 112.15673,100.00947 q 0,1.37094 -0.49954,2.29229 -0.49953,0.91581 -1.44863,1.38204 -0.94356,0.46068 -2.2923,0.46068 h -2.20348 v -8.114602 h 2.4477 q 1.23773,0 2.13133,0.455128 0.89361,0.449578 1.37649,1.337633 0.48843,0.882504 0.48843,2.186831 z m -0.99352,0.0333 q 0,-1.093422 -0.36632,-1.803866 -0.36077,-0.710443 -1.06566,-1.054565 -0.69935,-0.349671 -1.71506,-0.349671 h -1.35983 v 6.499452 h 1.14892 q 1.6762,0 2.5143,-0.827 0.84365,-0.827 0.84365,-2.46435 z"
           id="path15749" /><path
           d="m 119.05025,104.14448 -0.99906,-2.57536 h -3.2525 l -0.99351,2.57536 h -0.95466 l 3.17479,-8.147904 h 0.8492 l 3.1526,8.147904 z m -1.28213,-3.41346 -0.94911,-2.55871 q -0.0333,-0.09991 -0.11101,-0.32747 -0.0721,-0.227564 -0.14985,-0.471779 -0.0777,-0.244215 -0.12766,-0.394074 -0.0555,0.227564 -0.12211,0.455128 -0.061,0.222013 -0.12211,0.416275 -0.061,0.188712 -0.10545,0.32192 l -0.96576,2.55871 z"
           id="path15751" /><path
           d="m 127.59222,100.00947 q 0,1.37094 -0.49953,2.29229 -0.49953,0.91581 -1.44864,1.38204 -0.94355,0.46068 -2.29229,0.46068 h -2.20348 v -8.114602 h 2.4477 q 1.23772,0 2.13133,0.455128 0.8936,0.449578 1.37648,1.337633 0.48843,0.882504 0.48843,2.186831 z m -0.99351,0.0333 q 0,-1.093422 -0.36632,-1.803866 -0.36077,-0.710443 -1.06567,-1.054565 -0.69934,-0.349671 -1.71505,-0.349671 h -1.35984 v 6.499452 h 1.14893 q 1.6762,0 2.5143,-0.827 0.84365,-0.827 0.84365,-2.46435 z"
           id="path15753" /><path
           d="m 133.91406,104.14448 h -4.51797 v -8.114602 h 4.51797 v 0.832552 h -3.57442 v 2.625311 h 3.36906 v 0.821449 h -3.36906 v 3.00274 h 3.57442 z"
           id="path15755" /><path
           d="m 145.10911,100.00947 q 0,1.37094 -0.49953,2.29229 -0.49953,0.91581 -1.44864,1.38204 -0.94356,0.46068 -2.29229,0.46068 h -2.20349 v -8.114602 h 2.4477 q 1.23773,0 2.13133,0.455128 0.89361,0.449578 1.37649,1.337633 0.48843,0.882504 0.48843,2.186831 z m -0.99351,0.0333 q 0,-1.093422 -0.36633,-1.803866 -0.36077,-0.710443 -1.06566,-1.054565 -0.69935,-0.349671 -1.71506,-0.349671 h -1.35983 v 6.499452 h 1.14892 q 1.6762,0 2.5143,-0.827 0.84366,-0.827 0.84366,-2.46435 z"
           id="path15757" /><path
           d="m 153.9508,100.07608 q 0,0.93801 -0.23867,1.7095 -0.23866,0.76595 -0.71044,1.32098 -0.46623,0.54949 -1.16002,0.84921 -0.6938,0.29971 -1.6096,0.29971 -0.94356,0 -1.64845,-0.29971 -0.69935,-0.29972 -1.16558,-0.85476 -0.46067,-0.55503 -0.69379,-1.32653 -0.22756,-0.7715 -0.22756,-1.7095 0,-1.24328 0.41072,-2.181288 0.41073,-0.938007 1.24328,-1.459739 0.8381,-0.521733 2.09803,-0.521733 1.20442,0 2.02587,0.516182 0.827,0.516182 1.24883,1.45419 0.42738,0.932457 0.42738,2.203488 z m -6.4606,0 q 0,1.03236 0.29417,1.78721 0.29416,0.75484 0.89915,1.16557 0.61054,0.41072 1.54855,0.41072 0.94356,0 1.54299,-0.41072 0.60499,-0.41073 0.89361,-1.16557 0.28862,-0.75485 0.28862,-1.78721 0,-1.570749 -0.6605,-2.453254 -0.65494,-0.888054 -2.04807,-0.888054 -0.94356,0 -1.5541,0.405175 -0.61053,0.405175 -0.91025,1.154471 -0.29417,0.743745 -0.29417,1.781662 z"
           id="path15759" /><path
           d="m 160.82767,96.029878 q 1.57075,0 2.29229,0.616088 0.7271,0.610538 0.7271,1.753908 0,0.516182 -0.17206,0.982411 -0.16651,0.460678 -0.54394,0.815895 -0.37742,0.34968 -0.99351,0.55504 -0.61053,0.19981 -1.49859,0.19981 H 159.651 v 3.19145 h -0.94356 v -8.114602 z m -0.0888,0.8048 H 159.651 v 3.308002 h 0.8825 q 0.77705,0 1.29323,-0.166509 0.52174,-0.16651 0.7826,-0.538383 0.26087,-0.377423 0.26087,-0.999061 0,-0.81035 -0.51618,-1.204425 -0.51618,-0.399624 -1.61515,-0.399624 z"
           id="path15761" /><path
           d="m 172.5833,100.07608 q 0,0.93801 -0.23867,1.7095 -0.23866,0.76595 -0.71044,1.32098 -0.46623,0.54949 -1.16002,0.84921 -0.6938,0.29971 -1.6096,0.29971 -0.94356,0 -1.64845,-0.29971 -0.69935,-0.29972 -1.16558,-0.85476 -0.46067,-0.55503 -0.69379,-1.32653 -0.22756,-0.7715 -0.22756,-1.7095 0,-1.24328 0.41072,-2.181288 0.41073,-0.938007 1.24328,-1.459739 0.8381,-0.521733 2.09803,-0.521733 1.20442,0 2.02587,0.516182 0.827,0.516182 1.24883,1.45419 0.42738,0.932457 0.42738,2.203488 z m -6.4606,0 q 0,1.03236 0.29417,1.78721 0.29416,0.75484 0.89915,1.16557 0.61054,0.41072 1.54855,0.41072 0.94356,0 1.54299,-0.41072 0.60499,-0.41073 0.89361,-1.16557 0.28861,-0.75485 0.28861,-1.78721 0,-1.570749 -0.66049,-2.453254 -0.65494,-0.888054 -2.04807,-0.888054 -0.94356,0 -1.5541,0.405175 -0.61054,0.405175 -0.91025,1.154471 -0.29417,0.743745 -0.29417,1.781662 z"
           id="path15763" /><path
           d="m 176.57954,96.029878 q 0.99906,0 1.64845,0.249766 0.65494,0.244215 0.97686,0.749296 0.32192,0.505081 0.32192,1.287679 0,0.64384 -0.23312,1.076766 -0.23311,0.427377 -0.61053,0.693795 -0.37743,0.26641 -0.8048,0.41072 l 2.22568,3.64658 h -1.09896 l -1.98703,-3.38571 h -1.6873 v 3.38571 h -0.94356 v -8.114602 z m -0.0555,0.815901 h -1.19332 v 3.113741 h 1.28768 q 0.99351,0 1.45974,-0.405175 0.47178,-0.405175 0.47178,-1.193323 0,-0.827001 -0.49953,-1.171122 -0.49398,-0.344121 -1.52635,-0.344121 z"
           id="path15765" /><path
           d="m 183.89489,104.14448 h -0.94911 v -7.28205 h -2.55316 v -0.832552 h 6.04433 v 0.832552 h -2.54206 z"
           id="path15767" /><path
           d="m 194.70141,100.07608 q 0,0.93801 -0.23867,1.7095 -0.23866,0.76595 -0.71044,1.32098 -0.46623,0.54949 -1.16002,0.84921 -0.6938,0.29971 -1.6096,0.29971 -0.94356,0 -1.64845,-0.29971 -0.69935,-0.29972 -1.16558,-0.85476 -0.46067,-0.55503 -0.69379,-1.32653 -0.22756,-0.7715 -0.22756,-1.7095 0,-1.24328 0.41072,-2.181288 0.41073,-0.938007 1.24328,-1.459739 0.8381,-0.521733 2.09803,-0.521733 1.20442,0 2.02587,0.516182 0.827,0.516182 1.24883,1.45419 0.42738,0.932457 0.42738,2.203488 z m -6.4606,0 q 0,1.03236 0.29417,1.78721 0.29417,0.75484 0.89915,1.16557 0.61054,0.41072 1.54855,0.41072 0.94356,0 1.54299,-0.41072 0.60499,-0.41073 0.89361,-1.16557 0.28862,-0.75485 0.28862,-1.78721 0,-1.570749 -0.6605,-2.453254 -0.65494,-0.888054 -2.04807,-0.888054 -0.94356,0 -1.5541,0.405175 -0.61053,0.405175 -0.91025,1.154471 -0.29417,0.743745 -0.29417,1.781662 z"
           id="path15769" /></g><rect
         style="display:inline;fill:none;fill-opacity:0;stroke:#000000;stroke-width:0.265;stroke-linejoin:round;stroke-dasharray:none;stroke-opacity:1"
         id="rect1294"
         width="40.204193"
         height="22.01656"
         x="8.9662104"
         y="82.238922" /><rect
         style="fill:#fff500;fill-opacity:1;stroke:none;stroke-width:0.465;stroke-linejoin:round"
         id="rect2093-0"
         width="38.090553"
         height="9.8982258"
         x="10.022981"
         y="93.41111" /><g
         aria-label="FMUP"
         transform="scale(1.1293871,0.885436)"
         id="text1228"
         style="font-size:12.1286px;line-height:1.25;font-family:'Open Sans';-inkscape-font-specification:'Open Sans, Normal';font-variant-ligatures:none;letter-spacing:0px;word-spacing:0px;stroke-width:0.264583"><path
           d="M 11.178431,103.40173 H 8.8747079 v -8.658206 h 5.1167531 v 1.877327 h -2.81303 v 1.652285 h 2.59391 v 1.877324 h -2.59391 z"
           style="font-weight:800;-inkscape-font-specification:'Open Sans Ultra-Bold'"
           id="path15772" /><path
           d="m 19.185202,103.40173 -1.770728,-6.23604 h -0.0533 q 0.02369,0.242809 0.04738,0.657361 0.02961,0.414552 0.0533,0.894247 0.02369,0.479696 0.02369,0.923859 v 3.760573 h -2.072759 v -8.658206 h 3.115061 l 1.806261,6.147206 h 0.04738 l 1.770729,-6.147206 h 3.120982 v 8.658206 h -2.149747 v -3.796106 q 0,-0.40863 0.01185,-0.876481 0.01777,-0.473774 0.03553,-0.888325 0.02369,-0.420474 0.04145,-0.663283 h -0.0533 l -1.747039,6.224195 z"
           style="font-weight:800;-inkscape-font-specification:'Open Sans Ultra-Bold'"
           id="path15774" /><path
           d="m 34.499928,94.743524 v 5.211508 q 0,1.089678 -0.414551,1.895098 -0.414552,0.79949 -1.243656,1.23773 -0.829103,0.43232 -2.078681,0.43232 -1.788494,0 -2.730119,-0.91794 -0.941625,-0.91794 -0.941625,-2.59391 v -5.264806 h 2.351101 v 5.08122 q 0,0.917936 0.343486,1.332486 0.343485,0.41455 1.01269,0.41455 0.479696,0 0.781727,-0.17766 0.30203,-0.18359 0.43824,-0.57445 0.142132,-0.39086 0.142132,-1.00677 v -5.069376 z"
           style="font-weight:800;-inkscape-font-specification:'Open Sans Ultra-Bold'"
           id="path15776" /><path
           d="m 39.314652,94.743524 q 1.646363,0 2.463622,0.716582 0.823181,0.716582 0.823181,2.037226 0,0.592217 -0.171743,1.137056 -0.16582,0.54484 -0.550761,0.971236 -0.379019,0.426396 -1.012691,0.675126 -0.62775,0.24873 -1.551608,0.24873 h -0.657361 v 2.87225 h -2.339256 v -8.658206 z m -0.0533,1.889171 h -0.604061 v 1.989849 h 0.461929 q 0.302031,0 0.562606,-0.100677 0.260576,-0.106599 0.414552,-0.337564 0.159899,-0.236886 0.159899,-0.627749 0,-0.40863 -0.242809,-0.663283 -0.242809,-0.260576 -0.752116,-0.260576 z"
           style="font-weight:800;-inkscape-font-specification:'Open Sans Ultra-Bold'"
           id="path15778" /></g></g></g></svg>
