<svg width="645.316" height="354.479" viewBox="0 0 170.74 93.789" version="1.1" id="prefix__svg1526" xmlns="http://www.w3.org/2000/svg"><rect width="100%" height="100%" fill="#FFFFFF"/><defs id="prefix__defs1523"><marker id="prefix__Arrow2Mend" refX="0" refY="0" orient="auto" overflow="visible"><path transform="scale(-.6)" d="M8.719 4.034L-2.207.016 8.719-4.002c-1.746 2.372-1.736 5.618 0 8.036z" id="prefix__path14119" fill="context-stroke" fill-rule="evenodd" stroke-width=".625" stroke-linejoin="round"/></marker><marker id="prefix__Arrow2Lend" refX="0" refY="0" orient="auto" overflow="visible"><path transform="matrix(-1.1 0 0 -1.1 -1.1 0)" d="M8.719 4.034L-2.207.016 8.719-4.002c-1.746 2.372-1.736 5.618 0 8.036z" id="prefix__path14113" fill="context-stroke" fill-rule="evenodd" stroke-width=".625" stroke-linejoin="round"/></marker><marker id="prefix__Arrow1Mstart" refX="0" refY="0" orient="auto" overflow="visible"><path d="M4 0l2-2-7 2 7 2z" id="prefix__path26666" fill="context-stroke" fill-rule="evenodd" stroke="context-stroke" stroke-width=".4pt"/></marker><marker id="prefix__Arrow1Mend" refX="0" refY="0" orient="auto" overflow="visible"><path d="M-4 0l-2 2 7-2-7-2z" id="prefix__path26669" fill="context-stroke" fill-rule="evenodd" stroke="context-stroke" stroke-width=".4pt"/></marker><marker id="prefix__Arrow2Mstart" refX="0" refY="0" orient="auto" overflow="visible"><path transform="scale(.6)" d="M8.719 4.034L-2.207.016 8.719-4.002c-1.746 2.372-1.736 5.618 0 8.036z" id="prefix__path26684" fill="context-stroke" fill-rule="evenodd" stroke-width=".625" stroke-linejoin="round"/></marker><marker id="prefix__Arrow1Lend" refX="0" refY="0" orient="auto" overflow="visible"><path d="M-10 0l-4 4L0 0l-14-4z" id="prefix__path26663" fill="context-stroke" fill-rule="evenodd" stroke="context-stroke" stroke-width=".8pt"/></marker><marker id="prefix__Arrow1Mstart-6" refX="0" refY="0" orient="auto" overflow="visible"><path d="M4 0l2-2-7 2 7 2z" id="prefix__path26666-9" fill="context-stroke" fill-rule="evenodd" stroke="context-stroke" stroke-width=".4pt"/></marker><marker id="prefix__Arrow1Mstart-3" refX="0" refY="0" orient="auto" overflow="visible"><path d="M4 0l2-2-7 2 7 2z" id="prefix__path26666-6" fill="context-stroke" fill-rule="evenodd" stroke="context-stroke" stroke-width=".4pt"/></marker><marker id="prefix__Arrow1Mstart-8" refX="0" refY="0" orient="auto" overflow="visible"><path d="M4 0l2-2-7 2 7 2z" id="prefix__path26666-3" fill="context-stroke" fill-rule="evenodd" stroke="context-stroke" stroke-width=".4pt"/></marker><marker id="prefix__Arrow1Mstart-7" refX="0" refY="0" orient="auto" overflow="visible"><path d="M4 0l2-2-7 2 7 2z" id="prefix__path26666-8" fill="context-stroke" fill-rule="evenodd" stroke="context-stroke" stroke-width=".4pt"/></marker><marker id="prefix__Arrow1Mstart-0" refX="0" refY="0" orient="auto" overflow="visible"><path d="M4 0l2-2-7 2 7 2z" id="prefix__path26666-2" fill="context-stroke" fill-rule="evenodd" stroke="context-stroke" stroke-width=".4pt"/></marker><marker id="prefix__Arrow1Mstart-8-7" refX="0" refY="0" orient="auto" overflow="visible"><path d="M4 0l2-2-7 2 7 2z" id="prefix__path26666-3-3" fill="context-stroke" fill-rule="evenodd" stroke="context-stroke" stroke-width=".4pt"/></marker><marker id="prefix__Arrow1Mstart-8-7-5" refX="0" refY="0" orient="auto" overflow="visible"><path d="M4 0l2-2-7 2 7 2z" id="prefix__path26666-3-3-4" fill="context-stroke" fill-rule="evenodd" stroke="context-stroke" stroke-width=".4pt"/></marker><clipPath id="prefix__cpMC4wMHw3MjAuMDB8MC4wMHwyMTYuMDA="><path id="prefix__rect25669" d="M0 0h720v216H0z"/></clipPath><clipPath id="prefix__cpNTkuMDR8Njg5Ljc2fDU5LjA0fDE0Mi41Ng=="><path id="prefix__rect25676" d="M59.04 59.04h630.72v83.52H59.04z"/></clipPath><clipPath id="prefix__cpMC4wMHw3MjAuMDB8MC4wMHwyMTYuMDA=-4"><path id="prefix__rect27557" d="M0 0h720v216H0z"/></clipPath><clipPath id="prefix__cpNTkuMDR8Njg5Ljc2fDU5LjA0fDE0Mi41Ng==-2"><path id="prefix__rect27564" d="M59.04 59.04h630.72v83.52H59.04z"/></clipPath><style type="text/css" id="style25663">.prefix__svglite line,.prefix__svglite polyline,.prefix__svglite polygon,.prefix__svglite path,.prefix__svglite rect,.prefix__svglite circle{fill:none;stroke:#000000;stroke-linecap:round;stroke-linejoin:round;stroke-miterlimit:10.00}.prefix__svglite text{white-space:pre}</style><style type="text/css" id="style27551">.prefix__svglite line,.prefix__svglite polyline,.prefix__svglite polygon,.prefix__svglite path,.prefix__svglite rect,.prefix__svglite circle{fill:none;stroke:#000000;stroke-linecap:round;stroke-linejoin:round;stroke-miterlimit:10.00}.prefix__svglite text{white-space:pre}</style></defs><g id="prefix__layer3" transform="translate(29.544 36.445)"><text xml:space="preserve" style="line-height:1.25;-inkscape-font-specification:'Arial, Normal';font-variant-ligatures:normal;font-variant-caps:normal;font-variant-numeric:normal;font-variant-east-asian:normal;text-align:start" x="-29.54" y="49.695" id="prefix__text39085" font-style="normal" font-variant="normal" font-weight="400" font-stretch="normal" font-size="2.822" font-family="Arial" letter-spacing="0" word-spacing="0" writing-mode="lr-tb" text-anchor="start" fill="#000" fill-opacity="1" stroke="none" stroke-width=".265"><tspan id="prefix__tspan76514" x="-29.54" y="49.695" font-size="2.822">Above: The computed arc counts for this time series.</tspan><tspan x="-29.54" y="53.223" id="prefix__tspan29945" font-size="2.822">Below: The arrows represent a shape pointing to its nearest neighbor. The gray area in the center shows the regime changing point.</tspan><tspan x="-29.54" y="56.75" id="prefix__tspan1738" font-size="2.822">The dashed line with a number underneath is a toy example, showing that four arcs cross that position.</tspan></text></g><g id="prefix__layer1" transform="translate(7.455 -91.796)" display="inline"><g id="prefix__g61512" transform="translate(-29.428)"><path d="M72.757 126.521v34.33" id="prefix__path56465" fill="none" stroke="#000" stroke-width=".265" stroke-linecap="butt" stroke-linejoin="miter" stroke-miterlimit="4" stroke-dasharray="1.058 .529" stroke-dashoffset="0" stroke-opacity="1"/><g id="prefix__g58652" transform="translate(22.064 128.05)" stroke-width=".265"><circle id="prefix__path58567" cx="50.726" cy="34.801" r="1.315" opacity=".523" fill="#000" fill-opacity=".173" fill-rule="nonzero" stroke="none" stroke-linecap="round" stroke-linejoin="round" stroke-miterlimit="4" stroke-dasharray="1.058 .529" stroke-dashoffset="0" stroke-opacity="1"/><text xml:space="preserve" style="line-height:1.25;-inkscape-font-specification:'Arial, Normal';font-variant-ligatures:normal;font-variant-caps:normal;font-variant-numeric:normal;font-variant-east-asian:normal" x="50.072" y="35.454" id="prefix__text57847" font-style="normal" font-variant="normal" font-weight="400" font-stretch="normal" font-size="2.117" font-family="Arial" letter-spacing="0" word-spacing="0" writing-mode="lr-tb"><tspan style="-inkscape-font-specification:'Arial, Normal';font-variant-ligatures:normal;font-variant-caps:normal;font-variant-numeric:normal;font-variant-east-asian:normal" x="50.072" y="35.454" id="prefix__tspan57849" font-style="normal" font-variant="normal" font-weight="400" font-stretch="normal" font-size="2.117" font-family="Arial" stroke-width=".265">4</tspan></text></g><g id="prefix__g25198" transform="translate(.983 -1.058)" display="inline" stroke-width=".265"><g id="prefix__g25153" stroke="#000" stroke-linecap="butt" stroke-linejoin="miter" stroke-opacity="1"><path d="M171.9 168.019v-1.893" id="prefix__path3320-7" fill="none"/><path d="M155.24 168.019v-1.893" id="prefix__path3320-9" fill="none"/><path d="M138.58 168.019v-1.893" id="prefix__path3320-6" fill="none"/><path d="M121.92 168.019v-1.893" id="prefix__path3320-9-6" fill="none"/><path d="M105.259 168.019v-1.893" id="prefix__path3320-6-5" fill="none"/><path d="M88.598 168.019v-1.893" id="prefix__path3320-9-7" fill="none"/><path d="M55.278 168.019v-1.893" id="prefix__path3320-9-9" fill="none"/><path d="M38.617 168.019v-1.893" id="prefix__path3320-6-6" fill="none"/><path d="M71.938 168.019v-1.893" id="prefix__path3320-6-7" fill="none"/><path d="M21.957 168.019v-1.893" id="prefix__path3320-9-9-7" fill="none"/><path d="M21.825 168.019h166.868" id="prefix__path2659" fill="red"/><path d="M188.56 168.019v-1.893" id="prefix__path3320" fill="none"/></g><text xml:space="preserve" style="line-height:1.25;-inkscape-font-specification:'Arial, Normal';font-variant-ligatures:normal;font-variant-caps:normal;font-variant-numeric:normal;font-feature-settings:normal;text-align:center" x="88.527" y="171.908" id="prefix__text4987-7" font-style="normal" font-variant="normal" font-weight="400" font-stretch="normal" font-size="2.981" font-family="Arial" letter-spacing="0" word-spacing="0" writing-mode="lr-tb" text-anchor="middle" fill="#000" fill-opacity="1" stroke="none"><tspan id="prefix__tspan4985-8" style="text-align:center" x="88.527" y="171.908" font-size="2.981" text-anchor="middle" stroke-width=".265">2000</tspan></text><text xml:space="preserve" style="line-height:1.25;-inkscape-font-specification:'Arial, Normal';font-variant-ligatures:normal;font-variant-caps:normal;font-variant-numeric:normal;font-feature-settings:normal;text-align:center" x="55.06" y="171.908" id="prefix__text4987" font-style="normal" font-variant="normal" font-weight="400" font-stretch="normal" font-size="2.981" font-family="Arial" letter-spacing="0" word-spacing="0" writing-mode="lr-tb" text-anchor="middle" fill="#000" fill-opacity="1" stroke="none"><tspan id="prefix__tspan4985" style="text-align:center" x="55.06" y="171.908" font-size="2.981" text-anchor="middle" stroke-width=".265">1000</tspan></text><text xml:space="preserve" style="line-height:1.25;-inkscape-font-specification:'Arial, Normal';font-variant-ligatures:normal;font-variant-caps:normal;font-variant-numeric:normal;font-feature-settings:normal;text-align:center" x="21.812" y="171.908" id="prefix__text4987-26" font-style="normal" font-variant="normal" font-weight="400" font-stretch="normal" font-size="2.981" font-family="Arial" letter-spacing="0" word-spacing="0" writing-mode="lr-tb" text-anchor="middle" fill="#000" fill-opacity="1" stroke="none"><tspan id="prefix__tspan4985-2" style="text-align:center" x="21.812" y="171.908" font-size="2.981" text-anchor="middle" stroke-width=".265">0</tspan></text><text xml:space="preserve" style="line-height:1.25;-inkscape-font-specification:'Arial, Normal';font-variant-ligatures:normal;font-variant-caps:normal;font-variant-numeric:normal;font-feature-settings:normal;text-align:center" x="121.858" y="171.907" id="prefix__text4987-2" font-style="normal" font-variant="normal" font-weight="400" font-stretch="normal" font-size="2.981" font-family="Arial" letter-spacing="0" word-spacing="0" writing-mode="lr-tb" text-anchor="middle" fill="#000" fill-opacity="1" stroke="none"><tspan id="prefix__tspan4985-1" style="text-align:center" x="121.858" y="171.907" font-size="2.981" text-anchor="middle" stroke-width=".265">3000</tspan></text><text xml:space="preserve" style="line-height:1.25;-inkscape-font-specification:'Arial, Normal';font-variant-ligatures:normal;font-variant-caps:normal;font-variant-numeric:normal;font-feature-settings:normal;text-align:center" x="155.251" y="171.908" id="prefix__text4987-0" font-style="normal" font-variant="normal" font-weight="400" font-stretch="normal" font-size="2.981" font-family="Arial" letter-spacing="0" word-spacing="0" writing-mode="lr-tb" text-anchor="middle" fill="#000" fill-opacity="1" stroke="none"><tspan id="prefix__tspan4985-7" style="text-align:center" x="155.251" y="171.908" font-size="2.981" text-anchor="middle" stroke-width=".265">4000</tspan></text><text xml:space="preserve" style="line-height:1.25;-inkscape-font-specification:'Arial, Normal';font-variant-ligatures:normal;font-variant-caps:normal;font-variant-numeric:normal;font-feature-settings:normal;text-align:center" x="188.557" y="171.908" id="prefix__text4987-21" font-style="normal" font-variant="normal" font-weight="400" font-stretch="normal" font-size="2.981" font-family="Arial" letter-spacing="0" word-spacing="0" writing-mode="lr-tb" text-anchor="middle" fill="#000" fill-opacity="1" stroke="none"><tspan id="prefix__tspan4985-4" style="text-align:center" x="188.557" y="171.908" font-size="2.981" text-anchor="middle" stroke-width=".265">5000</tspan></text></g><g id="prefix__g27655" transform="matrix(.35278 0 0 .35278 -25.866 114.482)" display="inline" fill="#000" fill-opacity="1"><path id="prefix__polyline27569" d="M138.911 121.787c1.043.759.963-1.304 1.192-1.932.538-4.7.622-9.44.854-14.162.42-10.69.686-21.387 1.207-32.073.187-2.58.183-5.201.792-7.727.311.791.517 2.672.693 3.896.738 6.726.945 13.516 2.064 20.198.425 1.032.164 3.061 1.517 3.267.438-.348 1.004-.914 1.364-.087.642 1.532.653 3.236 1.085 4.83.375.93.177 2.34 1.18 2.845 1.18.28.919-1.408 1.895-1.656.437-.19 1.396.829 1.38 1.576.423 1.185.795 2.393 1.042 3.624.608 1.867 1.213 3.73 1.958 5.549.572 1.026 1.097 2.12 1.92 2.966.747.813 1.657 1.586 2.727 1.742.44-.197.758.984 1.033.276.628.631 1.74.49 2.318 1.068.543-.036 1.075 1.004 1.764 1.4.589.962 1.26 1.913 2.043 2.749 1.195 1.133 1.33-1.216 1.408-2 .726-6.94.763-13.927 1.096-20.89.38-9.84.565-19.69 1.256-29.512.023-.457.263-2.523.754-1.355.694 4.87.903 9.793 1.388 14.686.356 3.868.603 7.772 1.485 11.565.12.828.934 2.554 1.767 1.488.046.39.342-.627.457.047.579.836.673 1.807.86 2.818.416 1.297.465 2.703.993 3.977.074 1.076 1.188 1.015 1.247.001.618-.584.865-2.161 1.891-1.946 1.001.766 1.057 2.169 1.431 3.282.396 1.346.715 2.725 1.164 4.048.372.937.59 1.93 1.11 2.806.597.897.97 1.941 1.675 2.758.736.699 1.925 1.76 2.514 1.87.413.004.922.185 1.12.191.326-.042.884.328.895.152.191.03.448.842.49.158 1.039.185 1.625 1.148 2.43 1.739.49.744 1.361 1.453 1.602 2.33.526.307.624 1.007 1.013.959.525-.163.45-1.572.652-2.228.479-3.6.538-7.24.73-10.863.572-12.946.772-25.909 1.573-38.844.141-1.037.1-2.321.54-3.18.63.59.28 1.735.544 2.539.73 6.796 1.013 13.639 1.956 20.412.291 1.684.45 3.412 1.08 5.016.553.671 1.338-.076 1.978.162.587 1.912.882 3.908 1.25 5.876.193.75.403 1.575.719 2.228.965-.259 1.258-.937 1.715-1.863.069-.602.804-.711.95-.795.581.884 1.16 1.786 1.364 2.885.4 1.626.902 3.222 1.305 4.847.252.841.631 1.625.833 2.475.52 1.147.963 2.234 1.77 3.212.56.894 1.692 1.921 2.567 1.925.942.398 1.559.453 2.468.847.957-.071 1.481.798 2.156 1.318.584.665 1.088 1.197 1.73 1.928.459.68 1.368 2.41 2.265 1.446.275-1.286.336-2.62.498-3.93.464-5.613.583-11.246.812-16.872.389-10.843.638-21.693 1.295-32.524.135-.924.154-2.677.569-3.054.502.96.322 2.103.573 3.136.386 3.605.631 7.223.964 10.833.295 3.637.664 7.271 1.268 10.871.405.859.362 2.782 1.68 2.506.973-1.139 1.758.815 1.68 1.7.218 1.242.433 2.492.68 3.731.167 1.14.29 2.328.863 3.352 1.307.903 1.73-2.013 2.771-1.25.615.875.826 1.962 1.246 2.935.672 2.442 1.352 4.885 2.293 7.24.61 1.124 1.291 2.25 1.946 3.358.652.473 1.311.948 1.925 1.389.94.292 1.959.676 2.893 1.115.657.645 1.476.714 1.955 1.477.784.26 1.574 1.297 2.119 2.061.678.834 1.148 1.976 2.13 2.477 1.051-.46.68-1.999.902-2.958.658-6.861.725-13.76 1.032-20.642.383-10.34.577-20.693 1.316-31.017.102-.524.124-1.715.441-1.787.518.985.453 2.153.63 3.228.676 6.983 1.008 14.002 2.033 20.947.305 1.298.373 2.696 1.125 3.827.723.429 1.647-1.068 1.899.314.772 2.316.775 4.813 1.5 7.137.15.33.403 1.713.862 1.019.12.573 1.068-.2 1.09-.271.192-1.198 1.706-.736 1.79.272.485 1.143.657 2.394 1.179 3.524.281 1.35.705 2.649 1.261 3.906.335 1.174.934 2.232 1.433 3.334.304.81 1.054 1.498 1.666 1.82.243.66 1.11.895 1.449.992.384.706 1.48.448 1.913 1.12.71.122 1.042 1.155 1.315.927.7.3 1.309.892 1.715 1.537.918.206 1.941 1.246 2.363 2.206.333.716 1.184 1.782 1.777 1.878.614-1.5.56-3.16.765-4.744.595-8.075.755-16.174 1.067-24.263.296-7.968.518-15.942 1.098-23.896.132-.56.068-1.941.437-1.955.665 1.08.42 2.435.66 3.637.382 4 .638 8.012.978 12.017.29 3.194.612 6.386 1.084 9.559.497 1.236.14 2.914 1.305 3.808.744-.063 1.721-.512 1.818.663.501 1.164.424 2.464.823 3.659.339.981.167 2.473 1.305 2.924 1.035-.413 1.068-1.893 1.933-2.548.845-.088 1.037 1.478 1.475 2.13.31 1.162.639 2.326.919 3.487.365 1.04.639 2.106.918 3.164.563 1.1.894 2.292 1.574 3.334.466 1.071 1.274 1.812 2.17 2.517.258.254.853.216.742.162.026.817.849.119 1.032.708.524.445.834.47 1.364.356.571.356 1.424.646 1.818.941.815.066.956 1.335 1.443 1.028.747.689 1.42 2.343 2.477 2.171.605-1.004.42-2.3.662-3.424.554-5.626.674-11.283.909-16.929.41-11.053.67-22.115 1.323-33.157.157-.9.032-2.398.6-2.9.435.788.282 1.772.463 2.643.792 7.311 1.044 14.68 2.151 21.955.236 1.275.416 2.583.835 3.808.463.963 1.51.52 1.833-.195.744.573.783 1.77 1.014 2.648.259 1.647.51 3.32 1.09 4.883.741 1.358 1.37-.654 1.743-1.292-.134-.989 1.031-1.272 1.245-.275.78 1.753 1.077 3.657 1.415 5.53.335 1.102.604 2.223 1.015 3.302.42 1.196 1.122 2.336 2.279 2.94 1.15.613 1.514 2.002 2.4 2.876.93.557 2.287-.234 2.937.911.421-.144.306-.108.69.171.883-.21 1.615.614 2.117 1.234.683.907 1.582 1.514 2.055 2.476.725 1.13 1.428.061 1.388-.82.626-3.103.633-6.285.852-9.432.598-11.607.88-23.23 1.567-34.832.133-1.78.243-3.569.581-5.325 1.04 1.014.623 2.635.945 3.928.488 4.782.893 9.583 1.728 14.321.267.59.232 2.042.747 2.046 1.057-.865.957-2.353 1.338-3.547.117-.619.12-2.42.919-2.044.68 1.292.463 2.822.938 4.184.272 1.203.772 2.336 1.408 3.387.317 1.112 1.132 1.935 1.661 2.932.968 1.857 1.38 3.925 1.945 5.923.196 1.056.365 2.126.707 3.142.176 1.304 1.387 1.95 2.252 2.73.494 1.032.655 2.196.868 3.314.321 1.914.78 3.806 1.384 5.647.35.982 1.787.904 1.98 1.963.554 1.56 1.018 3.158 1.647 4.689.288 1.005 1.397 1.683 2.152 1.047 1.294.526.992 2.287 1.544 3.367.306 1.012.47 2.798 1.724 2.936 1.043-.486.831-1.79 1.085-2.727.434-3.033.464-6.105.689-9.157.564-10.217.872-20.448 1.583-30.657.12-1.398.291-2.795.589-4.169.823.677.602 2.016.881 2.98.702 5.31.969 10.666 1.597 15.985.374 3.63.872 7.252 1.678 10.811.36 1.43.83 2.825 1.386 4.191a45.01 45.01 0 001.12 3.226c.88.901 1.232-1.167 1.551-1.77.35-1.496.899-2.932 1.26-4.426.299-.772.626-1.978 1.59-2.049 1.119.4 1.25 1.779 1.852 2.659.6.902.814 1.971 1.347 2.909.618.827.67 1.95 1.315 2.759.51.913 1.249 1.647 2.078 2.263.64.82 1.578.82 2.07 1.753.695.619 1.86.252 2.188 1.313.23-.507.549.874.963.767.592.895 1.51 1.744 2.618 1.8.963-.725.796-2.488 1.061-3.657.921-11.68 1.15-23.405 2.034-35.088.089-1.023.207-2.045.418-3.051.782.761.535 1.956.766 2.93.954 7.73 1.272 15.537 2.548 23.225.278 1.304.618 2.574.943 3.863.51 1.114 1.032 2.21 1.362 3.416.34.771.628 2.227 1.46 2.348.919-1.046.961-2.52 1.537-3.74.404-1.227.783-2.602 1.816-3.458.973-.263 1.608 1.098 1.888 1.898.48 1.446 1.26 2.789 1.67 4.26.63 1.496 2.038 2.426 2.979 3.705.925.735 1.412 2.121 2.454 2.592.943.34 1.705 1.939 2.268 2.03.774.35 1.39 1.198 2.07 1.816.511.599 1.857 1.398 1.78.021.712-3.449.77-6.986.997-10.489.323-7.116.584-14.235.899-21.351.245-5.728.4-11.473 1.032-17.172.474-1.45.83.901.837 1.509.588 3.811.785 7.673 1.16 11.51.289 3.179.62 6.357.992 9.525.513 2.934.843 6.005 2.303 8.65 1.47 1.84 1.52 4.292 2.405 6.394.532 1.37 1.487-.188 1.503-.991.508-1.127.975-2.313 1.468-3.432.265.68.343-.903 1.044-.47 1.24.606 1.18 2.239 1.809 3.317.304 1.15.934 2.128 1.285 3.257.377 1.116 1.006 2.13 1.49 3.203.314 1.002 1.203 1.67 2.094 2.101.224.432.443.22.522.285.528 1.028 1.839.787 2.415 1.732.55-.318.909.893 1.32.356.42.946 1.67 1.054 2.158 1.976.552.326.877 1.248 1.316.27.437-1.315.43-2.744.635-4.113.517-5.755.634-11.536.914-17.305.367-8.74.617-17.486 1.15-26.218.141-1.44.177-2.914.549-4.313.72.062.577 1.59.716 2.266.802 7.28 1.265 14.594 2.184 21.86.327 2.508.722 5.013 1.462 7.437.655.977.852 2.186 1.568 3.137.881 1.677 1.035 3.582 1.595 5.366-.107.912 1.18 2.437 1.706 1.021.607-1.166 1.006-2.44 1.666-3.574.839-1.245 1.856.385 2.032 1.252.456 1.245.905 2.475 1.439 3.691.482 1.223.824 2.498 1.428 3.674.45 1.029 1 2.018 1.491 3.032.76.45 1.24 1.329 2.124 1.429.249.346.19.49.42.141.645.708 1.703.63 2.384 1.365.438.08.355.983.783.471.294.472.783.735.844.557.612.8 1.264 1.862 2.111 2.28.627-1.11.806-2.4.898-3.664.77-7 .816-14.05 1.166-21.078.356-8.493.591-16.997 1.257-25.473.092-.721.263-2.146.519-2.396.77 3.468.883 7.035 1.236 10.56.558 6.569 1.027 13.159 2.092 19.67.37 1.588.764 3.167 1.285 4.71.706.973 1.27 2.068 1.729 3.203.438 1.393.589 2.917 1.291 4.203.817.078 1.214-1.003 1.545-1.651.262-1.233.937-2.313 1.292-3.518.14-1.039 1.357-1.702 1.737-.409.876 1.701 1.296 3.59 1.928 5.386.437 1.246.963 2.466 1.263 3.756.557.898.784 1.96 1.597 2.68.535.633 1.064 1.16 1.843 1.297.354.525 1.782.175 2.116.607.506-.116.71.796 1.228.414 1.195.38 1.53 1.91 2.678 2.29.8-.601.47-1.915.734-2.825.658-5.76.737-11.564 1.013-17.35.399-10.132.631-20.274 1.305-30.392.14-1.304.061-2.683.653-3.892.607.857.406 1.985.63 2.964.838 7.21 1.263 14.465 2.243 21.66.328 2.694.807 5.376 1.66 7.956.29 1.127 1.014 2.06 1.389 3.153.541.622.715 1.405.9 2.205.323 1.252.627 2.505.83 3.782.349.811.491 1.95 1.211 2.416 1.119-.518 1.375-2.078 2.344-2.866 1.009-1.177 1.947.73 2.216 1.606.727 1.128 1.064 2.459 1.51 3.709.525 1.735 1.46 3.306 2.045 5.017.861.578 1.288 2.547 2.548 2.034.34.1.932.235 1.02.266.508.116.527.502 1.145.442.748.201 1.253 1.337 1.68.948.629.763 1.364 1.558 2.295 1.953.85-.693.575-2.164.88-3.18.677-5.682.867-11.41 1.112-17.123.253-7.518.597-15.032.945-22.546.16-2.558.292-5.129.688-7.66.63-.724.53 1.044.693 1.456.533 3.618.674 7.278 1.033 10.915.491 5.867 1.006 11.745 2.103 17.535.388 1.201.533 2.484 1.236 3.564.355 1.171 1.2 2.085 1.549 3.249.573 1.323.597 2.84 1.317 4.099 1.112 1.19 1.641-.795 2.028-1.58.726-1.145.915-2.642 2.002-3.551 1.067-.034 1.229 1.602 1.632 2.38.346 1.138.733 2.258 1.133 3.376a17.741 17.741 0 001.676 4.424c.454.953 1.07 1.664 1.884 2.298.582.054 1.078.037 1.547.542.606-.052 1.308.43 2.023.215.329.736.837.35 1.17 1.131.618.823 2.03 1.072 1.995-.297.506-2.076.516-4.23.75-6.347.496-6.558.619-13.137.9-19.706.28-7.058.515-14.12 1.009-21.167.107-1.103.24-2.204.443-3.293.903.241.529 1.685.817 2.43.886 7.56 1.23 15.18 2.404 22.705.086 1.287.471 2.524.627 3.805.262 1.348.697 2.66 1.145 3.955.783 1.025 1.237 2.277 1.628 3.502.54 2.09.852 4.263 1.721 6.253.035 1.356 1.416.639 1.708-.182.778-.974.884-2.337 1.822-3.198.315-.408.368.379.846-.139.597.7.981 2.124 1.422 3.112.358 1.424 1.205 2.663 1.585 4.083.492.997.98 2.512 1.818 3.02.218.77 1.042 1.665 1.738 1.579.359.393.423-.012.658.532.605.18 1.281.03 1.628.328.699.395 1.446-.1 1.891.795.425.732 1.766 1.558 1.877.172.501-2.51.57-5.082.796-7.627" fill="none" stroke="#000" stroke-width=".75" stroke-linejoin="round" stroke-miterlimit="0" stroke-dasharray="none"/></g><path d="M87.277 135.125c-15.64-9.868-37.967-6.999-48.35-3.365" id="prefix__path33103-6-7" display="inline" fill="none" stroke="#ccc" stroke-width=".265" stroke-linecap="round" stroke-linejoin="round" stroke-miterlimit="4" stroke-dasharray="none" stroke-opacity="1"/><path d="M76.697 136.355c-13.033-9.45-33.327-6.437-41.948-1.802" id="prefix__path33103-2" display="inline" fill="none" stroke="#ccc" stroke-width=".265" stroke-linecap="round" stroke-linejoin="miter" stroke-miterlimit="4" stroke-dasharray="none" stroke-opacity="1" marker-start="url(#prefix__Arrow1Mstart-8)"/><path d="M170.243 142.41c-15.638-10.39-44.121-5.659-50.882-.352" id="prefix__path33103-2-3" display="inline" fill="none" stroke="#ccc" stroke-width=".265" stroke-linecap="round" stroke-linejoin="miter" stroke-miterlimit="4" stroke-dasharray="none" stroke-opacity="1" marker-start="url(#prefix__Arrow1Mstart-8-7)"/><path d="M87.277 135.125c-16.374-8.26-28.691-6.602-41.347.514" id="prefix__path33103" display="inline" fill="none" stroke="#000" stroke-width=".265" stroke-linecap="round" stroke-linejoin="miter" stroke-miterlimit="4" stroke-dasharray="none" stroke-opacity="1" marker-start="url(#prefix__Arrow1Mstart)"/><path d="M159.44 139.832c-11.135-6.248-35.002-6.601-50.44.514" id="prefix__path33103-0" display="inline" fill="none" stroke="#000" stroke-width=".265" stroke-linecap="round" stroke-linejoin="miter" stroke-miterlimit="4" stroke-dasharray="none" stroke-opacity="1" marker-start="url(#prefix__Arrow1Mstart-7)"/><path d="M87.277 135.125c-7.437-3.555-13.657-3.279-20.111.514" id="prefix__path33103-6" display="inline" fill="none" stroke="#000" stroke-width=".265" stroke-linecap="round" stroke-linejoin="round" stroke-miterlimit="4" stroke-dasharray="none" stroke-opacity="1"/><path d="M159.44 139.832c-10.189-4.946-20.662-3.275-29.44.14" id="prefix__path33103-69" display="inline" fill="none" stroke="#000" stroke-width=".265" stroke-linecap="round" stroke-linejoin="miter" stroke-miterlimit="4" stroke-dasharray="none" stroke-opacity="1"/><path d="M170.243 142.41c-4.155-2.883-7.2-2.523-10.15-1.823" id="prefix__path33103-2-3-4" display="inline" fill="none" stroke="#ccc" stroke-width=".265" stroke-linecap="round" stroke-linejoin="miter" stroke-miterlimit="4" stroke-dasharray="none" stroke-opacity="1"/><rect id="prefix__rect51372" width="4.829" height="23.349" x="101.497" y="136.278" rx="0" ry="0" display="inline" opacity=".523" fill="#000" fill-opacity=".173" fill-rule="nonzero" stroke="none" stroke-width=".265" stroke-linecap="round" stroke-linejoin="round" stroke-miterlimit="4" stroke-dasharray="none" stroke-dashoffset="0" stroke-opacity="1"/><path d="M42.551 154.797c.367.066.573.405.858.614.172.262.48.512.565.822.185.108.22.355.357.338.185-.057.159-.554.23-.786.169-1.27.19-2.554.258-3.832.201-4.567.272-9.14.555-13.703.05-.366.035-.82.19-1.122.223.208.099.612.192.896.257 2.397.357 4.811.69 7.2.103.595.159 1.204.38 1.77.196.237.473-.027.699.057.207.675.311 1.379.44 2.073.069.265.143.556.254.786.34-.091.444-.33.605-.657.025-.213.284-.251.336-.28.205.311.409.63.48 1.017.142.574.319 1.137.461 1.71.089.297.223.573.294.873.184.405.34.788.624 1.134.198.315.597.677.906.678.332.14.55.16.87.3.338-.026.523.28.761.464.206.235.384.422.61.68" id="prefix__path31000" display="inline" fill="none" stroke="red" stroke-width=".4" stroke-linejoin="round" stroke-miterlimit="0" stroke-dasharray="none" stroke-opacity="1"/><path d="M85.352 155.466c.288.023.338.47.51.363.263.243.5.826.873.766.214-.355.149-.812.234-1.208.195-1.985.238-3.98.32-5.972.145-3.9.237-7.802.467-11.698.056-.317.011-.845.212-1.023.153.278.1.625.163.933.28 2.579.369 5.178.76 7.745.082.45.146.911.294 1.343.163.34.532.184.646-.068.263.202.276.624.358.934.091.58.18 1.171.385 1.722.261.48.483-.23.614-.456-.047-.348.364-.448.44-.097.275.62.38 1.29.499 1.951.118.39.213.785.358 1.165.148.422.396.824.804 1.038.405.216.534.706.846 1.014.329.197.807-.083 1.036.322.15-.051.108-.039.244.06.311-.075.57.216.747.435" id="prefix__path31175" display="inline" fill="none" stroke="#80e5ff" stroke-width=".4" stroke-linejoin="round" stroke-miterlimit="0" stroke-dasharray="none"/><path d="M64.854 155.66c.239.294.405.697.752.874.37-.162.24-.705.317-1.044.233-2.42.256-4.854.365-7.282.135-3.648.203-7.3.464-10.942.036-.185.044-.605.156-.63.182.347.16.76.222 1.139.238 2.463.355 4.94.717 7.39.108.457.131.95.397 1.35.255.15.58-.377.67.11.272.817.273 1.698.529 2.518.053.116.142.604.304.36.042.202.376-.071.384-.096.068-.423.602-.26.632.096.171.403.232.844.416 1.243.1.476.249.934.445 1.378.118.414.33.787.505 1.176.108.286.372.528.588.642.086.233.391.316.511.35.136.249.522.158.675.395.25.043.368.408.464.327.247.106.461.315.605.542" id="prefix__path31450" display="inline" fill="none" fill-opacity="1" stroke="#7fff2a" stroke-width=".4" stroke-linejoin="round" stroke-miterlimit="0" stroke-dasharray="none"/><path d="M126.044 158.17c.333.12.602.684.8.717.273.123.49.422.73.64.181.211.656.493.629.007.25-1.217.27-2.465.351-3.7.114-2.51.206-5.022.317-7.533.087-2.02.141-4.047.364-6.058.168-.511.293.318.296.533.207 1.344.276 2.707.41 4.06.1 1.122.218 2.243.349 3.36.18 1.036.297 2.12.812 3.052.519.65.536 1.514.849 2.256.187.483.524-.067.53-.35.18-.397.344-.816.518-1.21.093.24.121-.319.368-.167.438.215.416.79.638 1.17.108.407.33.752.454 1.15.133.393.355.751.526 1.13.11.353.424.589.738.74.079.153.156.079.184.101.186.363.649.278.852.611.194-.112.32.316.466.126" id="prefix__path31712" display="inline" fill="none" stroke="#ff2a7f" stroke-width=".4" stroke-linejoin="round" stroke-miterlimit="0" stroke-dasharray="none"/><path d="M157.499 160.07c.178-.041.25.28.433.146.421.134.54.674.944.808.283-.213.166-.676.26-.997.232-2.032.26-4.08.357-6.12.14-3.575.222-7.153.46-10.722.05-.46.022-.947.23-1.373.215.302.144.7.223 1.045.295 2.544.445 5.103.791 7.642.116.95.285 1.896.586 2.806.102.398.357.727.49 1.113.19.219.252.495.317.777.114.442.221.884.293 1.335.123.286.173.687.427.852.395-.183.485-.733.827-1.011.356-.415.687.257.782.566.256.398.375.868.533 1.309.185.612.514 1.166.72 1.77.305.204.456.898.9.717.12.036.329.083.36.094.179.041.186.177.404.156" id="prefix__path31912" display="inline" fill="none" stroke="#ff7f2a" stroke-width=".4" stroke-linejoin="round" stroke-miterlimit="0" stroke-dasharray="none"/><path d="M106.414 156.756c.457.186.35.807.545 1.188.108.357.165.987.608 1.036.368-.172.293-.632.383-.962.153-1.07.164-2.154.243-3.23.199-3.605.308-7.214.558-10.816.043-.493.103-.986.208-1.47.29.238.213.71.311 1.05.248 1.874.342 3.764.563 5.64.132 1.28.308 2.558.592 3.814.128.504.293.996.49 1.478.115.386.25.763.394 1.138.311.318.435-.411.548-.624.123-.528.317-1.034.444-1.561.106-.273.22-.698.56-.723.396.14.442.627.654.938.212.318.288.695.475 1.026.218.291.237.688.464.973.18.322.441.581.733.799.226.289.557.29.73.618.246.218.657.089.772.463.082-.179.194.308.34.27" id="prefix__path32149" display="inline" fill="none" stroke="#b380ff" stroke-width=".4" stroke-linejoin="round" stroke-miterlimit="0" stroke-dasharray="none"/><g id="prefix__g25198-1" transform="translate(.983 -47.379)" display="inline" stroke-width=".265"><g id="prefix__g25153-4" stroke="#000" stroke-linecap="butt" stroke-linejoin="miter" stroke-opacity="1"><path d="M171.9 168.019v-1.893" id="prefix__path3320-7-0" fill="none"/><path d="M155.24 168.019v-1.893" id="prefix__path3320-9-1" fill="none"/><path d="M138.58 168.019v-1.893" id="prefix__path3320-6-4" fill="none"/><path d="M121.92 168.019v-1.893" id="prefix__path3320-9-6-7" fill="none"/><path d="M105.259 168.019v-1.893" id="prefix__path3320-6-5-3" fill="none"/><path d="M88.598 168.019v-1.893" id="prefix__path3320-9-7-7" fill="none"/><path d="M55.278 168.019v-1.893" id="prefix__path3320-9-9-9" fill="none"/><path d="M38.617 168.019v-1.893" id="prefix__path3320-6-6-9" fill="none"/><path d="M71.938 168.019v-1.893" id="prefix__path3320-6-7-3" fill="none"/><path d="M21.957 168.019v-1.893" id="prefix__path3320-9-9-7-9" fill="none"/><path d="M21.825 168.019h166.868" id="prefix__path2659-1" fill="red"/><path d="M188.56 168.019v-1.893" id="prefix__path3320-98" fill="none"/></g><text xml:space="preserve" style="line-height:1.25;-inkscape-font-specification:'Arial, Normal';font-variant-ligatures:normal;font-variant-caps:normal;font-variant-numeric:normal;font-feature-settings:normal;text-align:center" x="21.812" y="171.908" id="prefix__text4987-26-2" font-style="normal" font-variant="normal" font-weight="400" font-stretch="normal" font-size="2.981" font-family="Arial" letter-spacing="0" word-spacing="0" writing-mode="lr-tb" text-anchor="middle" fill="#000" fill-opacity="1" stroke="none"><tspan id="prefix__tspan4985-2-2" style="text-align:center" x="21.812" y="171.908" font-size="2.981" text-anchor="middle" stroke-width=".265">0</tspan></text><text xml:space="preserve" style="line-height:1.25;-inkscape-font-specification:'Arial, Normal';font-variant-ligatures:normal;font-variant-caps:normal;font-variant-numeric:normal;font-feature-settings:normal;text-align:center" x="188.557" y="171.908" id="prefix__text4987-21-0" font-style="normal" font-variant="normal" font-weight="400" font-stretch="normal" font-size="2.981" font-family="Arial" letter-spacing="0" word-spacing="0" writing-mode="lr-tb" text-anchor="middle" fill="#000" fill-opacity="1" stroke="none"><tspan id="prefix__tspan4985-4-0" style="text-align:center" x="188.557" y="171.908" font-size="2.981" text-anchor="middle" stroke-width=".265">5000</tspan></text><path d="M132.438 163.014l-27.478 1.485" id="prefix__path14090" fill="none" stroke="#000" stroke-linecap="butt" stroke-linejoin="miter" stroke-opacity="1" marker-end="url(#prefix__Arrow2Mend)"/><text xml:space="preserve" style="line-height:1.25;-inkscape-font-specification:'Arial, Normal'" x="132.455" y="163.878" id="prefix__text16584" font-size="2.703" font-family="Arial" letter-spacing="0" word-spacing="0" writing-mode="lr-tb"><tspan id="prefix__tspan16582" style="-inkscape-font-specification:Arial;font-variant-ligatures:normal;font-variant-caps:normal;font-variant-numeric:normal;font-variant-east-asian:normal" x="132.455" y="163.878" font-style="normal" font-variant="normal" font-weight="400" font-stretch="normal" font-size="2.703" font-family="Arial" stroke-width=".265">The minimum value suggests a regime change</tspan></text></g><path id="prefix__path10748" d="M22.942 93.177c.974-.001 1.981.126 2.899.568 2.35 1.1 4.888 1.734 7.197 2.938.857.31 1.659 1.154 2.589.768 1.042-.307 2.12-.095 3.058.409 1.928.806 3.839 1.72 5.907 2.086 2.316.815 4.53 2.004 6.986 2.344 1.79.527 3.505 1.786 5.448 1.334 2.547-.062 4.706 1.507 7.061 2.233 1.863.755 3.815 1.285 5.692 1.975 1.6.913 3.268 1.693 5.048 2.175a16.73 16.73 0 006.847 1.13c2.55-.01 5.1.099 7.623.469 1.695.071 3.376.28 5.04.581 3.378.374 6.187 2.548 9.438 3.339 2.258.516 4.453-.677 6.723-.424.984.025 1.977.64 2.906.011 1.833-.735 3.819-1.002 5.664-1.72 2.389-.83 4.788-1.64 7.226-2.3 1.298-.566 2.635-1.06 4.052-1.186 1.774-.586 3.342-1.659 5.081-2.34 1.469-.545 2.73-1.466 4.054-2.27.96-.612 2.087-.784 3.195-.818 1.922-.46 3.616-1.607 5.583-1.936 1.632-.38 3.358-.306 4.89-1.068 4.52-1.469 8.836-3.51 13.403-4.87 1.687-.738 3.394-1.58 5.272-1.604 1.531-.126 2.947.919 4.491.472 1.69-.148 3.181-1.027 4.838-1.31 1.911-.4 3.33-2.359 5.394-2.092.944.416 1.952.495 2.972.49" color="#000" fill="none" fill-opacity="1" fill-rule="nonzero" stroke="#00f" stroke-width=".5" stroke-miterlimit="4" stroke-dasharray="none" stroke-opacity="1"/><path d="M104.254 110.123v59.348" id="prefix__path13082" fill="none" fill-opacity="1" fill-rule="nonzero" stroke="#ff0030" stroke-width=".25" stroke-linecap="butt" stroke-linejoin="miter" stroke-miterlimit="4" stroke-dasharray=".75 .75" stroke-dashoffset="0" stroke-opacity="1"/><text xml:space="preserve" style="line-height:1.25;-inkscape-font-specification:'Arial, Normal'" x="96.438" y="96.785" id="prefix__text28821" font-size="3.528" font-family="Arial" letter-spacing="0" word-spacing="0" writing-mode="lr-tb" stroke-width=".265"><tspan id="prefix__tspan28819" x="96.438" y="96.785" stroke-width=".265">Arc Counts</tspan></text></g></g></svg>